<svg xmlns="http://www.w3.org/2000/svg" width="20" height="20" fill="none"><g clip-path="url(#a)"><path fill="#6A5349" fill-opacity=".7" d="M10 20a9.962 9.962 0 0 1-7.071-2.929A9.97 9.97 0 0 1 0 10.001 9.964 9.964 0 0 1 2.929 2.93 9.96 9.96 0 0 1 10-.001a9.965 9.965 0 0 1 7.071 2.929A9.96 9.96 0 0 1 20.001 10a9.963 9.963 0 0 1-2.929 7.071A9.96 9.96 0 0 1 10 20.001z"/><path fill="#fff" d="M15.023 6.604a.972.972 0 0 0-1.723-.499l-4.597 5.73L6.63 9.76a.972.972 0 0 0-1.658.687c0 .259.101.503.285.686l2.841 2.842a.96.96 0 0 0 .74.283.97.97 0 0 0 .705-.363l5.274-6.577a.97.97 0 0 0 .207-.714"/></g><defs><clipPath id="a"><path fill="#fff" d="M0 0h20v20H0z"/></clipPath></defs></svg>