<svg width="20" height="20" viewBox="0 0 20 20" fill="none" xmlns="http://www.w3.org/2000/svg">
<g clip-path="url(#clip0_20192_4532)">
<path d="M10.0001 20C8.6505 20 7.34077 19.7355 6.10743 19.2137C4.91646 18.7101 3.84717 17.9892 2.929 17.071C2.01083 16.1528 1.2899 15.0835 0.786258 13.8926C0.264451 12.6594 0 11.3497 0 10.0001C0 8.6505 0.264451 7.34077 0.786258 6.10743C1.2899 4.91646 2.01083 3.84717 2.929 2.929C3.84717 2.01083 4.91646 1.2899 6.10743 0.786258C7.34077 0.264451 8.65029 0 10.0001 0C11.3499 0 12.6594 0.264451 13.8928 0.786258C15.0837 1.2899 16.153 2.01083 17.0712 2.929C17.9894 3.84717 18.7103 4.91646 19.2139 6.10743C19.7355 7.34077 20.0002 8.6505 20.0002 10.0001C20.0002 11.3497 19.7358 12.6594 19.2139 13.8928C18.7103 15.0837 17.9894 16.153 17.0712 17.0712C16.153 17.9894 15.0837 18.7103 13.8928 19.2139C12.6594 19.7355 11.3497 20.0002 10.0001 20.0002V20Z" fill="#6A5349" fill-opacity="0.7"/>
<path d="M15.0226 6.60398C14.9938 6.3462 14.8664 6.11515 14.664 5.95318C14.2459 5.61881 13.6337 5.68706 13.2996 6.10513L8.70327 11.8348L6.62857 9.76007C6.25016 9.38166 5.63422 9.38166 5.25559 9.76007C5.07234 9.94333 4.97131 10.1871 4.97131 10.4466C4.97131 10.706 5.07234 10.9496 5.25559 11.133L8.09735 13.9748C8.28061 14.1581 8.5244 14.2591 8.78384 14.2591C8.80179 14.2591 8.81995 14.2587 8.83769 14.2576C9.1132 14.2424 9.36993 14.1101 9.54192 13.8947L14.8159 7.31781C14.9779 7.11535 15.0511 6.86175 15.0226 6.60419V6.60398Z" fill="white"/>
</g>
<defs>
<clipPath id="clip0_20192_4532">
<rect width="20" height="20" fill="white"/>
</clipPath>
</defs>
</svg>
