<svg xmlns="http://www.w3.org/2000/svg" width="50" height="60" fill="none"><path fill="#6A5349" fill-opacity=".7" d="M29.57 49.083q.116-.057.183-.088c2.44-1.136 6.048-.923 8.15-2.465.426-1.712-6.866.978-7.687 1.232-3.184.985-6.452 1.593-9.69 2.157-1.58.276-3.93.36-5.344 1.004-.284.129-3.051.82-3.2.683-.633-.581 4.708-4.026 5.251-4.075.303-.027 4.102-.857 4.143-1.257 1.717 0 4.607-1.341 6.25-1.915 1.424-.68 9.653-1.81 9.864-2.968.297-1.622 1.486-3.373 3.591-4.004 1.747-.523 5.198.07 5.403 2.215.171 1.787.413 5.247-2.33 5.779-1.204 1.131-5.848-.187-5.695 1.02.82 0 1.8 1.04 2.917 1.022 1.44.114 3.395-.791 4.464-1.641 2.25-1.793 2.296-4.255 1.781-6.523-.525-2.312-3.448-3.068-5.69-3.068-1.255.092-2.97.668-3.612 1.66-.274.166-2.505 2.807-1.528 2.807.064.362-8.953 2.523-9.713 2.754-1.715.52-3.998 1.03-5.566 1.842-.007.686-2.853.491-3.055 1.021-.571-.012 3.432-2.26 3.333-2.68 2.177-.636 4.602-3.152 6.25-4.594 1.672-.01 3.12-3.137 4.862-3.447 0-.245 4.15-3.574 4.445-3.574.222-1.752-1.586.102-1.952.377-.746.56-1.723 1.037-2.215 1.793-.644.055-1.967 1.195-2.446 1.612-1.274 1.107-2.795 1.975-4.055 3.134-1.195 1.097-2.73 1.964-4.15 3.015-.929.687-7.28 4.477-7.126 5.13-.353-.047 2.114-4.401 2.222-5.106.513-.08.946-1.697 1.38-2.178.535-.598 1.188-.98 1.764-1.506 1.748-1.6 3.455-3.06 5.264-4.512 1.763-1.414 3.57-2.781 5.342-4.186.861-.487 1.177-1.56 2.223-1.405.05-.347-.71-3.063-.694-3.063.252-.976.07-2.14.386-3.22.387-1.323 1.674-2.62 2.867-3.397.34-.222 3.41-1.19 3.414-1.299 2.437.506 6.863.56 7.639 3.574 1.18 2.314 1.481 4.257.272 6.69-1.284 2.58-4.38 4.047-7.314 3.86-2.476-.157-2.137 1.046.127 1.147.161.007 2.936-.035 3.026-.465 2.451.348 5.041-3.407 5.613-5.182.636-1.973.772-4.188-.452-6.113-1.59-2.503-4.297-4.405-7.522-4.405-1.454 0-2.498.298-3.888.637-.725-.088 1.133-2.701 1.25-3.445.518-3.062.654-5.887-1.193-8.604C36.053 3.278 33.18.293 30.822.575c0-.96-5.616-.442-6.25-.384-2.155.598-5.23 2.33-6.11 4.34-1.3 1.322-2.099 4.922-1.715 6.682.268 1.229.488 2.361.79 3.59.358 1.465 1.43 1.64 1.898 2.749 1.332.817 1.114.644 2.361.383.057-.763-1.685-1.17-2.253-1.758-.524-.545-2.534-7.379-1.497-7.305-.012-3.732 4.269-7.786 8.24-7.786 7.003 0 11.204 3.887 11.204 10.34.555 0-2.734 5.749-3.582 6.323-1.09.736-2.41.857-3.64 1.209-.37.77-2.244-.295-2.843.621-5.034 7.722-7.902 17.086-12.444 25.028-.922 1.612-1.623 3.268-2.778 4.85-.552.755-1.656 2.275-2.73 2.428-1.451.204-2.334-.863-2.123-2.165.155-.164 1.389-3.938 1.389-1.531 0 .894 1.01 2.053 1.925.843.814-1.078-.953-2.502-2.064-2.502-.338-1.441 2.199-3.168 2.083-4.723.745-.88 2.227-6 2.916-6 .715-.944.863-2.056 1.438-3.018.935-1.565 1.985-3.108 2.73-4.746.686-1.504 1.884-3.248 2.287-4.812.23-.892 1.133-3.02 1.878-3.634-.273-.767-1.5-1.76-1.389-.128-.666.948-1.944 2.952-1.944 4.084-1.38 1.074-1.85 3.507-2.585 5.101-2.343 5.07-5.406 9.674-7.41 14.908-.635 1.657-1.467 3.125-3.58 3.184-2.012.07-3.785 2.218-4.536 3.793-1.262 2.65.053 6.404 2.473 7.744 1.357.751 3.935 1.975 5.576 1.211 1.025-.476 1.99-.444 2.882-1.138.416-.323 2.353-1.386 2.179-2.126.489-.79.547-1.746.856-2.567.17-.452-.023-.866-.023-1.39-.032.012.975-.4.972-.383 2.105.06 4.061-1.301 6.265-1.136.628.047 1.33-.19 1.857-.504.235-.14 1.028-.147 1.252-.147 1.157 0 2.268-.434 3.402-.638.24-.42 1.305-.041 1.39-.383zm-10-11.488c0-.101.901-1.577.887-1.546.773-1.544 1.452-3.124 2.204-4.676.98-2.02 3.073-4.515 3.185-6.774.071-1.437 1.922-2.616 2.407-3.979.404-1.138.377-.184 1.162-.243 1.537-.116 2.846-.686 4.32-1.035-.486.672-2.992 4.311-1.805 5.234 0 .876.296 1.697.417 2.552-.654.856-1.484 1.791-2.5 2.298-1.208.16-3.363 2.586-4.378 3.333-1.083.798-1.859 1.796-2.983 2.539-.398.33-2.974 2.675-2.916 2.298-.022.148 0-.043 0 0zM12.903 54.57c-.107.327.34-.201 0 0-1.35 4.117-6.874 5.117-10.029 2.067-1.543-1.492-2.241-3.87-1.22-5.896.901-1.221 3.015-3.688 4.999-3.319.284 1.924-2.158 4.618 1.389 5.488 1.152.857 3.763-.51 5-.51.222.542.562 1.755-.14 2.17"/><path fill="#6A5349" fill-opacity=".7" d="M36.654 19.975c-1.789-.1-2.613 3.656-2.771 4.86-.372 2.827 2.273 5.225 4.99 5.225 1.269.05 2.112-.165 3.56-.558 1.014-.275 1.964-.773 1.44-1.74-.596-.026-2.718.942-3.194 1.277-1.864-.006-3.479.072-4.804-1.457-.903-1.043-1.254-2.589-.83-3.976.226-.737 2.35-3.59 1.608-3.631zM39.708 39.635c-1.389.262-1.966 2.517-1.805 3.574 1.404.89 1.586 1.914 3.612 1.914.166-.161 1.71-.36 1.666-.51 1.6-.395 1.27-2.165-.278-1.021-2.364.51-5.735-.879-2.777-2.936.73-.161.464-1.29-.418-1.021M22.193 16.118c.959.836 1.518 1.173 2.726 1.621.906.337 4.147 1.531 4.93.066.015-.12 2.077-.858 2.328-.987 1.267-.649 2.205-2.396 2.858-3.532 1.265-2.2 1.245-4.15.508-6.33-1.023-2.27-.553 1.363-.402 2.065.38 1.773-1.11 4.96-2.653 6.104-.372 1.35-3.789 2.348-5.124 2.317-.972-.023-1.823-.334-2.666-.775-.795-.416-2.695-2.893-3.322-2.946-1.839-.485.704 2.298.817 2.397"/></svg>