<svg width="50" height="60" viewBox="0 0 50 60" fill="none" xmlns="http://www.w3.org/2000/svg">
<path d="M29.5701 49.0833C29.6477 49.0443 29.7077 49.016 29.7531 48.9945C32.1921 47.8589 35.8009 48.0715 37.9032 46.5296C38.3292 44.8182 31.037 47.5078 30.2157 47.762C27.0315 48.7469 23.7639 49.355 20.5255 49.9188C18.9459 50.1946 16.5962 50.2794 15.182 50.9225C14.8979 51.0516 12.131 51.7432 11.9817 51.606C11.3492 51.0247 16.6899 47.5804 17.233 47.5306C17.5361 47.5037 21.3351 46.6736 21.3761 46.274C23.0934 46.274 25.9833 44.9326 27.6259 44.3594C29.0504 43.6786 37.2795 42.5498 37.4903 41.3914C37.7875 39.7688 38.9763 38.0184 41.0815 37.3874C42.8281 36.864 46.2787 37.4573 46.4837 39.6019C46.655 41.3887 46.8965 44.8492 44.1545 45.3806C42.9496 46.5121 38.3058 45.1936 38.4595 46.4018C39.2794 46.4018 40.2588 47.4418 41.3758 47.423C42.8164 47.5374 44.7708 46.6319 45.8395 45.7816C48.0897 43.9894 48.1365 41.5273 47.6212 39.2589C47.0956 36.9474 44.1735 36.1913 41.9307 36.1913C40.676 36.2827 38.9602 36.8586 38.319 37.8502C38.0452 38.017 35.8141 40.6581 36.7906 40.6581C36.855 41.0201 27.8382 43.1808 27.0784 43.4122C25.3626 43.9329 23.0802 44.4428 21.5123 45.2541C21.505 45.9403 18.6589 45.7452 18.4569 46.2753C17.886 46.2632 21.8885 44.015 21.7904 43.5952C23.9674 42.9588 26.3918 40.4428 28.0402 39.0005C29.7121 38.9911 31.16 35.8643 32.9022 35.5535C32.9022 35.3086 37.0526 31.98 37.3469 31.98C37.5694 30.2283 35.7614 32.0823 35.3954 32.3568C34.6487 32.9165 33.6722 33.3941 33.1803 34.1502C32.5362 34.2054 31.2127 35.345 30.734 35.7621C29.4603 36.8694 27.9392 37.7372 26.6787 38.8956C25.4841 39.9935 23.9484 40.8599 22.5283 41.9107C21.6001 42.5982 15.2493 46.3884 15.403 47.0409C15.0502 46.9938 17.517 42.64 17.6254 41.9349C18.1378 41.8556 18.5711 40.2383 19.0044 39.7567C19.5403 39.1593 20.1932 38.7772 20.7686 38.2511C22.5166 36.6514 24.2236 35.1903 26.0331 33.7385C27.7958 32.3245 29.6023 30.9575 31.3752 29.5529C32.2361 29.0658 32.5523 27.9921 33.5976 28.1482C33.6488 27.8011 32.8875 25.0847 32.9036 25.0847C33.1555 24.1092 32.9739 22.9441 33.2901 21.865C33.6766 20.5424 34.9635 19.2454 36.1566 18.4678C36.4978 18.2458 39.5678 17.2771 39.5707 17.1694C42.0082 17.6753 46.4339 17.7291 47.2098 20.7429C48.3898 23.0571 48.6914 24.9999 47.4821 27.4324C46.1982 30.013 43.1019 31.4795 40.168 31.2938C37.6924 31.1364 38.0306 32.3393 40.2954 32.4402C40.4564 32.4469 43.2307 32.4052 43.3214 31.9746C45.7722 32.3231 48.362 28.568 48.9344 26.7934C49.5698 24.8196 49.7059 22.605 48.482 20.6797C46.8921 18.1771 44.1852 16.2747 40.96 16.2747C39.5063 16.2747 38.4624 16.5734 37.0716 16.9124C36.347 16.8236 38.2048 14.2108 38.3219 13.4668C38.8402 10.4045 38.9763 7.58047 37.1287 4.86268C36.0527 3.27775 33.1803 0.292218 30.8218 0.57476C30.8218 -0.384539 25.2059 0.133459 24.572 0.191313C22.417 0.788689 19.3426 2.52027 18.4613 4.53171C17.1627 5.85293 16.3634 9.45331 16.747 11.2132C17.0149 12.4415 17.2345 13.5744 17.5361 14.8028C17.8947 16.268 18.9664 16.4429 19.4349 17.5515C20.7671 18.3695 20.549 18.196 21.7963 17.935C21.8534 17.1721 20.1112 16.7644 19.5432 16.1765C19.0191 15.6316 17.009 8.7981 18.0455 8.8721C18.0338 5.13985 22.3146 1.08602 26.2864 1.08602C33.2887 1.08602 37.4903 4.97301 37.4903 11.4257C38.0452 11.4257 34.7556 17.1748 33.9079 17.7493C32.8187 18.4853 31.4982 18.6064 30.2684 18.9575C29.8981 19.7285 28.0241 18.6629 27.4254 19.5791C22.3907 27.3006 19.5227 36.6649 14.9814 44.607C14.0591 46.2188 13.3578 47.8751 12.2027 49.4573C11.6508 50.2121 10.5469 51.7324 9.47383 51.8845C8.02154 52.089 7.13875 51.0221 7.34957 49.7197C7.50475 49.5555 8.7389 45.7816 8.7389 48.1886C8.7389 49.0833 9.74906 50.2417 10.6641 49.0321C11.478 47.9544 9.711 46.5296 8.59982 46.5296C8.26164 45.0886 10.7987 43.3625 10.6831 41.8071C11.4283 40.9272 12.9098 35.8078 13.5994 35.8078C14.3138 34.8633 14.4617 33.7506 15.037 32.7886C15.9725 31.2239 17.0222 29.6807 17.7674 28.0433C18.4525 26.5391 19.6515 24.7954 20.0541 23.2306C20.284 22.3386 21.1873 20.2115 21.9324 19.5966C21.6587 18.8297 20.4319 17.8368 20.5431 19.4688C19.877 20.4173 18.5989 22.4207 18.5989 23.5535C17.2184 24.6272 16.7499 27.0597 16.0135 28.6541C13.6711 33.7237 10.6084 38.3278 8.60421 43.5616C7.96884 45.2192 7.13729 46.687 5.02328 46.7462C3.01174 46.8162 1.23884 48.9635 0.487811 50.539C-0.774155 53.1882 0.540515 56.9433 2.9605 58.2834C4.31763 59.0342 6.89573 60.2585 8.53687 59.4943C9.56167 59.018 10.5264 59.0503 11.4195 58.356C11.8353 58.0331 13.7721 56.9702 13.5979 56.2303C14.0869 55.4405 14.1454 54.4839 14.4543 53.6631C14.6242 53.2111 14.4309 52.7967 14.4309 52.2733C14.3987 52.2854 15.4059 51.8737 15.403 51.8899C17.5082 51.9504 19.4641 50.5888 21.6675 50.7543C22.2955 50.8014 22.9982 50.5632 23.5253 50.2498C23.7595 50.1098 24.553 50.1031 24.777 50.1031C25.9336 50.1031 27.0447 49.6685 28.1793 49.4654C28.4194 49.0456 29.4837 49.4237 29.5687 49.0819L29.5701 49.0833ZM19.5696 37.5946C19.5696 37.4936 20.4714 36.0177 20.4567 36.0486C21.2297 34.5054 21.909 32.9245 22.6615 31.3732C23.6409 29.3537 25.7344 26.8579 25.8457 24.5989C25.9174 23.162 27.7679 21.9834 28.2525 20.6205C28.6566 19.4822 28.6302 20.4361 29.4149 20.3769C30.9521 20.2612 32.2609 19.6908 33.7352 19.3423C33.2491 20.0137 30.7428 23.6531 31.9301 24.5761C31.9301 25.452 32.2258 26.2727 32.3473 27.1284C31.6929 27.9841 30.8628 28.9191 29.8468 29.4264C28.639 29.5865 26.484 32.0123 25.4695 32.759C24.3861 33.5569 23.6102 34.5552 22.4858 35.2979C22.0876 35.6275 19.5125 37.9726 19.5696 37.5959C19.5476 37.7439 19.5696 37.5528 19.5696 37.5959V37.5946ZM3.87843 57.5151C3.89453 57.5609 3.92381 57.5959 3.9692 57.6174C3.92381 57.5972 3.896 57.5622 3.87843 57.5151ZM12.9025 54.5713C12.7956 54.8983 13.2436 54.3695 12.9025 54.5713C11.5527 58.6884 6.02904 59.688 2.87413 56.6379C1.33107 55.1458 0.632747 52.7684 1.65315 50.7422C2.55498 49.5205 4.66899 47.0543 6.6527 47.423C6.93672 49.347 4.49477 52.0405 8.04204 52.911C9.19421 53.7681 11.8045 52.4011 13.0416 52.4011C13.2641 52.9433 13.6038 54.1556 12.9025 54.5713Z" fill="#6A5349" fill-opacity="0.7"/>
<path d="M36.6542 19.9746C34.8652 19.875 34.041 23.6315 33.8829 24.8343C33.511 27.6624 36.1565 30.06 38.8736 30.06C40.1415 30.1098 40.9847 29.8945 42.4326 29.5017C43.4472 29.2272 44.3973 28.7294 43.8732 27.762C43.2773 27.7364 41.1545 28.7038 40.6788 29.0388C38.8151 29.0335 37.2003 29.1115 35.8754 27.5817C34.9721 26.539 34.6207 24.9931 35.0453 23.6059C35.2707 22.8686 37.395 20.0163 36.6528 19.9746H36.6542Z" fill="#6A5349" fill-opacity="0.7"/>
<path d="M39.7084 39.635C38.3191 39.8974 37.7423 42.1523 37.9033 43.2085C39.3073 44.0992 39.4888 45.1231 41.515 45.1231C41.6805 44.9616 43.225 44.7625 43.181 44.6131C44.7812 44.2176 44.4518 42.4483 42.9029 43.592C40.5385 44.1019 37.1684 42.7134 40.1257 40.6562C40.8562 40.4948 40.5898 39.3659 39.7084 39.635Z" fill="#6A5349" fill-opacity="0.7"/>
<path d="M22.193 16.1182C23.1519 16.9537 23.7111 17.2914 24.9189 17.7394C25.8251 18.0758 29.0664 19.2705 29.8482 17.8054C29.8643 17.6856 31.9256 16.947 32.1774 16.8178C33.4438 16.1693 34.3822 14.4216 35.0352 13.286C36.3 11.0862 36.2796 9.13534 35.5432 6.95573C34.5198 4.68597 34.9898 8.31866 35.1406 9.02098C35.5212 10.7943 34.0308 13.9803 32.4878 15.1252C32.1159 16.4747 28.699 17.473 27.3638 17.4421C26.3917 17.4192 25.5411 17.1084 24.6979 16.6671C23.9029 16.2514 22.0026 13.7744 21.3761 13.7206C19.5373 13.2362 22.0802 16.0186 22.193 16.1182Z" fill="#6A5349" fill-opacity="0.7"/>
</svg>
