<svg width="74" height="74" viewBox="0 0 74 74" fill="none" xmlns="http://www.w3.org/2000/svg">
<circle cx="37" cy="37" r="37" fill="#6A5349" fill-opacity="0.1"/>
<path d="M19.0125 46.2544V26.7436C19.0125 25.4939 20.0676 24.4805 21.3688 24.4805H53.6311C54.9323 24.4805 55.9875 25.4939 55.9875 26.7436V46.2544C55.9875 47.5041 54.9323 48.5175 53.6311 48.5175H21.3688C20.0676 48.5175 19.0125 47.5041 19.0125 46.2544ZM37.5029 38.4183C37.5089 38.4183 37.5148 38.4173 37.5198 38.4154C37.6547 38.3668 37.7776 38.2973 37.8897 38.2087C39.8404 36.66 41.1316 35.6303 41.7653 35.1198C48.8154 29.4325 52.3409 26.5883 52.3419 26.5855C52.3568 26.5569 52.5413 26.4188 52.8943 26.1711C52.9161 26.1559 52.9052 26.1216 52.8774 26.1226C52.8586 26.1226 47.7344 26.1226 37.5049 26.1216C27.2744 26.1207 22.1502 26.1197 22.1314 26.1188C22.1046 26.1188 22.0927 26.1521 22.1145 26.1673C22.4676 26.415 22.652 26.5531 22.6669 26.5817C22.6689 26.5845 26.1934 29.4296 33.2415 35.1188C33.8752 35.6294 35.1665 36.659 37.1162 38.2087C37.2282 38.2973 37.3512 38.3668 37.4861 38.4154C37.491 38.4173 37.497 38.4183 37.5029 38.4183ZM54.2847 45.7572C54.3045 45.7743 54.3363 45.76 54.3363 45.7353V27.1274C54.3363 27.1017 54.3055 27.0884 54.2857 27.1046L43.1805 36.1418C43.1666 36.1532 43.1656 36.1742 43.1805 36.1866L54.2857 45.7572M20.7688 45.6296L31.8383 36.1266C31.8571 36.1094 31.8561 36.0808 31.8363 36.0656C31.5457 35.8532 31.1113 35.5189 30.5332 35.0607C30.4816 35.0198 28.995 33.8206 26.0744 31.4613C24.33 30.0525 22.5578 28.6038 20.7569 27.116C20.743 27.1046 20.7212 27.1141 20.7212 27.1322V45.6096C20.7212 45.6334 20.7509 45.6457 20.7688 45.6296ZM53.0669 46.8859L41.8675 37.2334C41.8337 37.2038 41.7832 37.2029 41.7475 37.2305C40.3422 38.3449 39.4229 39.0802 38.9885 39.4355C38.57 39.7794 38.2279 39.987 37.9631 40.0603C37.4494 40.2032 36.9486 40.0965 36.4596 39.7394C35.3955 38.9612 34.4247 38.2192 33.547 37.5124C33.4329 37.421 33.3209 37.3343 33.2098 37.2534C33.1682 37.2219 33.1087 37.2238 33.069 37.2572C31.7163 38.3821 30.3983 39.5012 29.116 40.6166C25.403 43.8436 22.9981 45.9353 21.9023 46.8916C21.8795 46.9116 21.8964 46.9478 21.9271 46.9449C22.2256 46.9154 22.4249 46.9011 22.5251 46.9011C36.059 46.8897 46.1655 46.8907 52.8427 46.903C52.9072 46.904 52.9419 46.9049 52.9488 46.9068C53.0222 46.9326 53.0649 46.9411 53.0758 46.9326C53.0887 46.9221 53.0837 46.9002 53.0669 46.8859Z" fill="#6A5349" fill-opacity="0.7"/>
</svg>
