<svg width="74" height="74" viewBox="0 0 74 74" fill="none" xmlns="http://www.w3.org/2000/svg">
<circle cx="37" cy="37" r="37" fill="#6A5349" fill-opacity="0.1"/>
<g clip-path="url(#clip0_20849_7398)">
<path d="M10.4905 27.153C10.2356 27.2465 9.82372 27.5268 9.60799 27.7511C9.23536 28.1435 9.21574 28.4425 9.09807 35.6376L9.00001 43.113L8.45087 44.7575C7.62716 47.2618 7.92134 48.4952 9.41186 48.8129C9.84333 48.9064 15.3936 48.9998 21.7283 48.9998C31.7501 48.9998 33.3583 48.9624 33.927 48.7195C35.1822 48.1401 35.3391 46.7385 34.3781 44.552L33.7309 43.113L33.6328 35.6937L33.5348 28.2557L32.8876 27.6576L32.26 27.0409L21.6106 27.0035C14.864 26.9849 10.8043 27.0409 10.4905 27.153ZM32.2796 28.3865C32.4953 28.6294 32.5738 30.0311 32.613 35.3012L32.6718 41.8982H24.219V40.5526C24.219 38.8707 23.7091 37.7681 22.7873 37.3943C22.3362 37.2074 21.1595 37.1327 18.6099 37.1327H15.0602L14.3345 37.6746C13.4323 38.3287 13.1186 38.9828 12.942 40.6274L12.8048 41.8982H10.0983V35.3386C10.0983 31.1897 10.1767 28.6668 10.2944 28.4239C10.4905 28.0875 10.8239 28.0688 21.2576 28.0688C31.0244 28.0688 32.0442 28.1062 32.2796 28.3865ZM22.3951 38.3287C22.9246 38.5904 23.1796 39.3005 23.2972 40.7208L23.3953 41.8982H13.7658L13.8834 40.8143C13.9227 40.2162 14.1188 39.45 14.3149 39.1136C14.864 38.0858 15.472 37.955 18.9434 38.0484C20.63 38.0858 22.199 38.2166 22.3951 38.3287ZM33.0249 43.711C33.1621 44.1034 33.319 44.5333 33.3583 44.6454C33.4563 44.8323 31.0048 44.8884 21.4929 44.8884H9.50992V44.4398C9.50992 44.1782 9.58837 43.767 9.70605 43.5054L9.90217 43.0195H32.7895L33.0249 43.711ZM34.0251 46.7385C34.0251 47.3926 33.9466 47.6916 33.7113 47.7664C33.1425 47.9719 9.70605 47.8972 9.29419 47.6916C9.05885 47.5608 8.92156 47.2992 8.92156 46.9441C8.92156 45.7293 7.90173 45.8228 21.591 45.8228H34.0251V46.7385Z" fill="#6A5349" fill-opacity="0.7"/>
<path d="M17.2175 30.7764C16.5703 31.0381 15.8838 31.8977 15.6681 32.7013C15.5897 32.9256 15.6093 33.5049 15.6877 33.9534C15.8642 35.1121 16.8252 36.0279 18.0412 36.1961C19.2179 36.3829 19.767 36.2147 20.6888 35.4298C21.944 34.3459 22.1401 33.019 21.2576 31.6361C20.5907 30.5895 18.6491 30.1784 17.2175 30.7764ZM19.9043 31.7108C21.0614 32.2715 21.1007 34.1216 19.9632 34.9813C19.414 35.3925 18.1785 35.4859 17.5313 35.1682C17.0017 34.8879 16.5703 34.0095 16.5703 33.2059C16.5703 31.7856 18.3942 30.9633 19.9043 31.7108Z" fill="#6A5349" fill-opacity="0.7"/>
<path d="M24.7685 31.001C24.5724 31.0571 24.4155 31.2066 24.4155 31.3374C24.4155 31.8233 25.102 31.9354 27.6319 31.8793C30.0246 31.8046 30.9464 31.599 30.5541 31.2252C30.3776 31.0571 25.3569 30.8702 24.7685 31.001Z" fill="#6A5349" fill-opacity="0.7"/>
<path d="M24.5528 34.5327C24.4744 34.6075 24.4155 34.8318 24.4155 35.0186C24.4155 35.3363 24.6116 35.355 27.4162 35.3177C30.2403 35.2616 30.3972 35.2429 30.3972 34.8878C30.3972 34.5327 30.2403 34.5141 27.5339 34.458C25.9649 34.4393 24.6313 34.4767 24.5528 34.5327Z" fill="#6A5349" fill-opacity="0.7"/>
<path d="M17.8844 46.6785C17.5314 47.0336 18.2374 47.1271 21.0616 47.1271C23.5915 47.1271 24.2191 47.071 24.4152 46.8467C24.631 46.6038 24.2584 46.5664 21.3361 46.5664C19.5122 46.5664 17.9433 46.6225 17.8844 46.6785Z" fill="#6A5349" fill-opacity="0.7"/>
</g>
<g clip-path="url(#clip1_20849_7398)">
<path d="M58.246 27.0711C55.1111 27.1848 53.8611 27.507 52.3532 28.5492L51.5794 29.0797L50.9246 28.5492C50.5675 28.2649 49.6349 27.8291 48.8413 27.5828C47.5714 27.1848 47.0754 27.1469 43.7024 27.1469H39.9524L39.4762 27.6775L39 28.2081V36.7921C39 46.3614 39.0198 46.4561 40.25 47.0057C40.627 47.1952 42.1746 47.4415 43.9206 47.5931C47.1746 47.9152 49.5357 48.3321 50.7659 48.7869C51.4802 49.0711 51.619 49.0711 52.4722 48.7869C54.1786 48.2184 55.7659 47.9152 58.246 47.7068C59.6151 47.5931 61.3016 47.3657 61.9762 47.1952C64.0992 46.7025 64 47.2141 64 37.2847C64 32.2821 63.9206 28.5681 63.8016 28.1702C63.4643 27.0143 62.8294 26.8816 58.246 27.0711ZM46.2817 28.1891C48.2262 28.4355 49.377 28.8144 50.2302 29.4208L50.9048 29.9135V45.9824L50.2698 45.6413C48.881 44.8834 45.4286 44.2959 42.3135 44.2959C39.754 44.2959 39.9921 45.1107 39.9921 36.2615C39.9921 28.0944 39.9722 28.3218 40.9841 28.1323C41.9365 27.9617 44.7341 27.9996 46.2817 28.1891ZM62.4921 28.3028C62.7698 28.5492 62.8095 29.5535 62.8095 36.4131V44.2391L59.9921 44.3528C57.1349 44.4665 55.0714 44.7697 53.4643 45.3381C52.9881 45.5087 52.4325 45.6982 52.2341 45.755C51.8968 45.8498 51.877 45.5087 51.9365 38.0806L51.996 30.3114L52.4722 29.8188C53.7024 28.5681 55.8056 28.0754 60.0714 28.0186C61.7579 27.9996 62.254 28.0565 62.4921 28.3028ZM46.123 45.6413C48.6825 46.0203 50.9048 46.7783 50.9048 47.252C50.9048 47.5931 50.3492 47.5931 48.9405 47.252C47.5913 46.9109 47.1151 46.8541 43.9206 46.5698C41.3413 46.3235 40.1905 45.9445 40.1905 45.3571C40.1905 44.997 42.5516 45.1107 46.123 45.6413ZM62.9683 45.376C62.869 45.9635 61.6389 46.3424 59.0397 46.5509C57.6706 46.6646 55.5873 46.9488 54.4167 47.1762C52.254 47.5741 51.7778 47.5552 52.3135 47.0246C53.0873 46.3045 56.5397 45.5276 60.25 45.2623C61.381 45.1676 62.4722 45.0918 62.6706 45.0728C62.9286 45.0539 63.0079 45.1676 62.9683 45.376Z" fill="#6A5349" fill-opacity="0.7"/>
<path d="M42.9881 34.8964C42.5516 35.3891 42.9484 35.7681 43.9008 35.7681C44.377 35.7681 45.627 35.8629 46.6587 35.9955C48.3453 36.185 48.5834 36.185 48.881 35.9008C49.3968 35.3891 49 35.2375 46.6389 35.0101C45.4484 34.8964 44.1786 34.7638 43.8413 34.7259C43.4643 34.6691 43.127 34.7449 42.9881 34.8964Z" fill="#6A5349" fill-opacity="0.7"/>
<path d="M42.6905 38.9171C42.4921 39.4098 43.0675 39.7509 44.1389 39.7698C44.635 39.7698 45.2302 39.8077 45.4485 39.8267C47.9485 40.1299 48.881 40.1488 48.9802 39.8646C49.0397 39.713 48.9802 39.5046 48.8612 39.4098C48.6032 39.2014 46.6389 38.8982 44.3374 38.7087C42.9881 38.595 42.8096 38.6139 42.6905 38.9171Z" fill="#6A5349" fill-opacity="0.7"/>
</g>
<defs>
<clipPath id="clip0_20849_7398">
<rect width="27" height="22" fill="white" transform="translate(8 27)"/>
</clipPath>
<clipPath id="clip1_20849_7398">
<rect width="25" height="22" fill="white" transform="translate(39 27)"/>
</clipPath>
</defs>
</svg>
