<svg width="74" height="74" viewBox="0 0 74 74" fill="none" xmlns="http://www.w3.org/2000/svg">
<circle cx="37" cy="37" r="37" fill="#6A5349" fill-opacity="0.1"/>
<g clip-path="url(#clip0_20849_7399)">
<path d="M46.11 48.0389C46.083 48.0389 46.0614 48.0604 46.0614 48.0873C46.0606 49.6845 46.0614 50.7749 46.0659 51.3575C46.0705 51.9995 45.4607 52.1699 44.9839 51.8256C44.4513 51.4392 44.0873 51.1791 43.891 51.0446C43.5213 50.7908 43.2523 50.5352 42.8709 50.2303C42.8234 50.1928 42.7566 50.1909 42.708 50.2269L40.373 51.9513C40.3586 51.9619 40.3423 51.9691 40.3244 51.9728C39.9566 52.049 39.6778 51.9055 39.486 51.5415C39.4788 51.5271 39.4753 51.5109 39.4753 51.4949V48.09C39.4753 48.0623 39.4529 48.0397 39.4248 48.0397C38.1719 48.037 32.6852 48.037 22.9629 48.0389C22.64 48.0397 22.4143 47.9949 22.2874 47.9052C22.0946 47.7699 21.9992 47.5529 22 47.256C22.0091 43.9211 22.0107 36.8408 22.0064 26.0158C22.0064 25.6841 22.0323 25.4726 22.0847 25.3821C22.188 25.2018 22.3446 25.0788 22.554 25.0125C22.5791 25.0045 22.606 25 22.633 25H51.3977C51.4247 25 51.4525 25.0053 51.4778 25.0152C51.8243 25.1507 51.9968 25.3765 51.9976 25.6913C52.0011 33.9597 52.0003 41.0741 51.9957 47.0363C51.9949 47.5484 51.9714 47.7555 51.582 47.9843C51.5174 48.0218 51.3734 48.0407 51.1493 48.0399C49.3181 48.0354 47.6378 48.0354 46.1097 48.0391M46.0515 46.9242C46.0515 46.9458 46.0686 46.9636 46.0902 46.9636H50.8969C50.9284 46.9636 50.9535 46.9386 50.9535 46.9072V26.1703C50.9535 26.1317 50.9231 26.1013 50.8843 26.1013H23.0759C23.0524 26.1013 23.0337 26.1202 23.0337 26.1434V46.9146C23.0337 46.9415 23.0561 46.9639 23.0831 46.9639H39.4497C39.4686 46.9639 39.4839 46.9487 39.4839 46.9306V45.4448C39.4839 45.399 39.4676 45.3542 39.439 45.3194C38.8212 44.5698 38.4542 43.7196 38.338 42.77C38.2696 42.2087 38.3137 41.6463 38.471 41.0834C38.6321 40.5043 38.8821 39.9983 39.2194 39.5672C39.6612 39.0022 40.2016 38.5541 40.8402 38.2231C41.7611 37.7451 43.0069 37.6652 43.9585 37.9477C45.2385 38.3269 46.1963 39.1188 46.8341 40.3232C47.051 40.7311 47.1904 41.1391 47.2542 41.5481C47.4594 42.8672 47.1752 44.1531 46.3098 45.194C46.1541 45.3814 46.075 45.4783 46.0723 45.4837C46.0606 45.5124 46.0544 45.542 46.0544 45.5723L46.0518 46.9245M46.2323 42.3035C46.2323 40.4185 44.6997 38.8906 42.8089 38.8906C40.9182 38.8906 39.3856 40.4185 39.3856 42.3035C39.3856 44.1885 40.9182 45.7164 42.8089 45.7164C44.6997 45.7164 46.2323 44.1885 46.2323 42.3035ZM42.8089 46.7708C42.3079 46.7682 41.8413 46.6902 41.4075 46.5376C41.1439 46.4452 40.8794 46.3115 40.6142 46.1368C40.5854 46.1179 40.5477 46.1387 40.5477 46.1728V50.4572C40.5477 50.4777 40.572 50.4894 40.5891 50.4769C41.0648 50.1118 41.6559 49.6528 42.3618 49.1013C42.4689 49.018 42.6137 48.9767 42.7953 48.9775C42.977 48.9783 43.1209 49.0214 43.227 49.1066C43.9267 49.6671 44.5122 50.1323 44.9836 50.5027C44.9999 50.5163 45.025 50.5046 45.025 50.4838L45.0763 46.1994C45.0771 46.1653 45.0395 46.1448 45.0106 46.1627C44.7435 46.3339 44.4772 46.4649 44.2128 46.5546C43.7774 46.7016 43.309 46.7735 42.8087 46.7708H42.8089Z" fill="#6A5349" fill-opacity="0.7"/>
<path d="M47.8773 29.8094C47.8773 30.1223 47.6228 30.3761 47.3089 30.3761H26.7222C26.4084 30.3761 26.1538 30.1223 26.1538 29.8094V29.7932C26.1538 29.4803 26.4084 29.2266 26.7222 29.2266H47.3089C47.6228 29.2266 47.8773 29.4803 47.8773 29.7932V29.8094Z" fill="#6A5349" fill-opacity="0.7"/>
<path d="M45.1018 34.0683C45.1018 34.366 44.859 34.6081 44.5604 34.6081H29.3666C29.068 34.6081 28.8252 34.366 28.8252 34.0683V34.0593C28.8252 33.7616 29.068 33.5195 29.3666 33.5195H44.5601C44.8587 33.5195 45.1015 33.7616 45.1015 34.0593V34.0683H45.1018Z" fill="#6A5349" fill-opacity="0.7"/>
<path d="M33.1045 42.9919C33.1037 43.2997 32.8537 43.5481 32.5449 43.5479L26.7398 43.5378C26.4313 43.5375 26.1813 43.2872 26.1821 42.9799V42.9583C26.1829 42.6505 26.4332 42.4021 26.7417 42.4023L32.5468 42.4125C32.8553 42.4127 33.1053 42.663 33.1045 42.9703V42.9919Z" fill="#6A5349" fill-opacity="0.7"/>
</g>
<defs>
<clipPath id="clip0_20849_7399">
<rect width="30" height="27" fill="white" transform="translate(22 25)"/>
</clipPath>
</defs>
</svg>
