<svg xmlns="http://www.w3.org/2000/svg" width="139" height="184" fill="none"><g fill="#6A5349" fill-opacity=".4" clip-path="url(#a)"><path d="M103.08 28.33c-.437-.623-1.142-.782-1.801-.935-.634-.147-1.103.191-1.396.82-.107.231-.154.495-.269.723-.034.07-.285.123-.3.1a44 44 0 0 1-1.195-1.996c-.05-.09.032-.282.1-.4.07-.124.199-.215.3-.324 1.57-1.685 2.179-3.669 1.695-5.924-.215-1.002-.317-2.057-.908-2.95-.102-.155-.162-.339-.275-.48-.162-.204-.347-.404-.65-.204-.238.153-.376.307-.262.635.149.416.25.853.332 1.287.4 2.06.229 4.051-.743 5.941-.135.264-.25.538-.377.805-.115.241-.075.647-.465.6-.09-.012-.15-.436-.184-.675-.132-.949-.217-1.903-.378-2.846a5.2 5.2 0 0 1 .096-2.311c.224-.82.428-1.649.716-2.446.173-.476.424-.954.968-1.159.023-.009-.021-.312-.046-.312-.247-.018-.525-.075-.736.016-1.155.496-1.81 1.478-2.319 2.56-.475 1.01-.782 2.071-.699 3.214.006.079-.077.18-.148.242-.027.024-.147-.019-.192-.062-.473-.47-.957-.929-1.403-1.424-.24-.267-.233-.55.005-.892.755-1.078 1.185-2.296 1.383-3.595.032-.216.082-.447.04-.656-.275-1.387-.686-2.73-1.461-3.93-.19-.295-.341-.69-.811-.658.29.547.587 1.092.873 1.644.607 1.173.837 2.444.836 3.744 0 .54-.213 1.082-.357 1.616-.031.12-.173.21-.264.316-.05-.118-.147-.238-.147-.357.011-.96.064-1.919.055-2.877-.006-.474-.049-.969-.189-1.418a11.7 11.7 0 0 0-.778-1.83c-.158-.303-.178-.544-.013-.822-.023-.435-.353-.633-.663-.825-.513-.322-.873-.271-1.277.181-.904 1.015-1.638 2.11-1.562 3.562.001.036-.01.072-.014.109l-.185 1.75c-.671-.064-.994-.696-1.555-.952-.341-.157-.204-.432-.057-.655.301-.46.65-.894.918-1.37.252-.452.389-.932.294-1.491-.088-.505.004-1.037-.029-1.554-.135-2.114-.98-3.856-2.736-5.096-.753-.53-.944-.524-1.605.162-.382.396-.672.88-1.008 1.32-.301.391-.413.406-.65.037-1.224-1.893-3.057-2.7-5.204-2.939-.252-.027-.596-.08-.756.052-.487.401-.828.09-1.169-.161-.943-.69-2.01-1.074-3.119-1.391-1.101-.318-2.205-.234-3.303-.08-1.115.156-1.604 1.315-.974 2.272.751 1.14 1.448 2.332 2.57 3.169.243.18.132.324-.016.428-.548.381-1.054.809-1.432 1.364-.143.21-.293.442-.333.683-.032.187.034.479.169.591.475.4.967.804 1.513 1.094.649.345 1.345.612 2.044.842.825.272 1.691.192 2.533.086.675-.085 1.059.105 1.437.702 1.029 1.625 2.558 2.522 4.47 2.758.292.036.58.116.865.198.087.025.158.115.237.177-.065.084-.114.193-.2.248-.373.24-.764.453-1.134.696-.502.33-.5.494-.043.882.193.164.5.345.521.543.117 1.076 1.201 1.241 1.719 1.926 1.053.33 1.936 1.128 3.072 1.208 1.065.074 2.156.182 3.2.03.773-.114 1.5-.597 2.224-.961.281-.143.482-.145.686.07.278.298.546.604.82.902q.707.77 1.416 1.54c-.657.325-1.347.016-2.012.109-.544.076-1.08.22-1.617.351-.177.044-.339.155-.516.2-.245.065-.497.098-.745.143.088.306.145.626.274.913.314.709.58 1.455 1.226 1.957l-.014.02c.078-.307.246-.331.473-.147.984.798 2.091 1.35 3.275 1.806.814.314 1.635.42 2.477.495.16.014.334-.099.502-.154-.149-.037-.298-.11-.446-.102-.407.017-.78-.065-1.18-.156-2.306-.52-3.932-2.075-5.598-3.578-.095-.087-.18-.358-.143-.39.26-.212.545-.524.835-.54.46-.023.931.16 1.398.256 1.658.343 3.087 1.15 4.442 2.136.6.436 1.16.813 1.317 1.638.12.631.055.897-.584 1.077-.909.255-1.826.24-2.743.121-.622-.08-1.22-.247-1.709-.704-.48-.45-1-.86-1.52-1.265-.162-.125-.38-.177-.574-.262l.016-.011c.159.68.533 1.198 1.145 1.54.065.035.13.075.183.127 1.046 1.009 2.313 1.232 3.696 1.058.098-.013.202.043.305.067-.025.1-.036.208-.082.299q-.271.543-.563 1.079c-.211.386-.435.766-.652 1.15-.356-.23-.722-.445-1.065-.694-1.159-.845-2.417-1.421-3.869-1.504-.138-.007-.332-.042-.399-.136-.313-.446-.716-.88-.855-1.383-.354-1.291-1.229-2.19-2.156-3.024-.624-.561-1.388-.977-2.129-1.384-.31-.169-.543-.343-.714-.643-.218-.386-.43-.783-.704-1.126-.293-.37-.655-.686-.99-1.021-.181-.181-.41-.33-.546-.54-.476-.736-1.203-1.073-2-1.257-.68-.157-1.383-.221-2.08-.304-.344-.04-.591-.19-.558-.55.1-1.063-.536-1.858-1.061-2.622-.928-1.352-2.199-2.345-3.793-2.865-.724-.237-1.456-.22-2.191-.114-.133.02-.326.222-.333.35-.006.12.169.32.306.37.831.3 1.673.57 2.513.85l.004.009-1.736-1.24c1.424.197 2.673.599 3.57 1.687.745.907 1.707 1.7 1.887 3.154-.489-.761-.905-1.363-1.274-1.995-.38-.648-1.031-.92-1.632-1.267-.045-.026-.13.018-.198.03.014.063.006.151.045.187.304.27.615.53.923.795.876.751 1.506 1.631 1.473 2.855-.002.108.039.216.06.324.042.218-.522.377-.092.597.19.097.479-.01.724-.005.251.006.52-.018.746.063 1.834.654 3.472 1.597 4.6 3.254.245.36.213.428-.195.506-.653.126-1.307.236-1.958.36-.648.122-.69.179-.667.86.012.366-.16.529-.422.355-.758-.508-1.552-.995-1.839-1.954l-.232-.21-.026-.03.025.042q.107.106.215.217l1.288.932-.016.015c.146-.238.228-.48-.035-.692-.2-.162-.403-.329-.626-.46-.897-.524-1.303-1.48-1.943-2.229-.084-.098-.068-.282-.093-.426-.126-.716-.195-.85-.84-.909-.668-.06-1.185-.398-1.683-.771a10.7 10.7 0 0 1-2.384-2.458c-.4-.572-.943-1.05-1.015-1.807-.006-.063-.175-.171-.232-.151-.08.028-.176.156-.176.24 0 .181.066.362.086.543.003.032-.075.078-.121.108-.006.004-.07-.046-.071-.073-.018-.438-.06-.879-.025-1.314.008-.103.288-.173.425-.283.103-.082.175-.203.262-.307-.129-.053-.268-.166-.387-.146-.422.067-.65-.027-.824-.479-.428-1.122-1.15-2.089-1.987-2.918-1.071-1.064-2.376-1.766-3.95-1.765-.704 0-1.406.036-2.108.059-.297.01-.496.147-.504.467-.009.44-.074.895.012 1.318.13.648.37 1.274.548 1.914.028.103-.035.228-.055.343-.122-.076-.315-.125-.356-.232-.173-.444-.297-.906-.449-1.359-.24-.722-.696-1.294-1.252-1.8-.993-.902-2.008-1.772-3.373-2.034-.613-.117-1.244-.218-1.862-.196-.949.032-1.697-.227-2.342-.963-1.202-1.374-2.858-1.801-4.583-1.911-.72-.047-1.457.17-2.182.287-.087.013-.155.138-.231.211.121.048.24.12.366.136.103.012.218-.035.322-.069 1.236-.403 2.396-.142 3.549.363.989.434 1.9.975 2.697 1.705.103.095.25.206.266.324.11.838.192 1.68.28 2.522.025.237-.104.326-.324.338-.401.02-.803.064-1.204.073-.553.012-1.11.027-1.613-.287a.77.77 0 0 0-.42-.126c-1.058.072-1.828-.562-2.592-1.123-.43-.316-.683-.861-1.066-1.255-.589-.606-.82-1.29-.654-2.12.022-.115-.082-.254-.129-.382-.099.038-.237.048-.288.12-.227.314-.54.333-.887.346q-.886.035-1.767.136c-.577.065-1.166.26-1.615-.312-1.716-.585-3.417-.898-5.152-.01-.72.369-1.511.595-2.27.887-.274.106-.31.253-.127.5.217.293.363.64.594.92.372.452.79.865 1.186 1.298.118.127.305.243.144.462-.137.189-.468.184-.66-.016-.434-.45-.793-1.022-1.31-1.33-1.177-.704-2.445-1.245-3.872-1.098q-1.051.11-2.082.337a3 3 0 0 0-1.005.437c-.417.286-.75.3-1.202.034-1.063-.63-2.281-.495-3.45-.583-.059-.006-.124.064-.186.099.093.044.196.143.278.128.853-.152 1.595.231 2.364.471.158.05.425.09.27.345-.114.185-.117.544-.517.442-.39-.098-.812-.099-1.186-.235-.66-.24-1.303-.213-1.957-.022-.072.022-.142.049-.213.06q-.387.064-.773.121c.291.011.585.059.871.024 1.088-.132 2.119.089 3.162.368.784.212 1.228.786 1.728 1.32.06.065.043.288-.025.368-.156.194-.338.45-.554.503-.889.212-1.777.47-2.72.284-.47-.092-.958-.072-1.436-.122a13 13 0 0 1-1.205-.174c-.679-.136-1.348-.322-2.032-.431-.139-.023-.301.265-.48.316-.352.101-.724.128-1.08.21-.068.015-.113.137-.167.21.069.02.139.06.206.056.585-.03 1.17-.086 1.757-.09.245 0 .56.036.723.188.502.467 1.119.704 1.711.997.275.135.247.248.051.487-.377.463-.845.726-1.414.773-.842.071-1.69.215-2.528-.088-.308-.111-.652-.127-.98-.176-.05-.007-.11.045-.165.07.042.058.076.153.132.167 1.128.295 2.217.897 3.445.443.077-.028.196.051.295.08-.081.1-.147.264-.247.292-1.186.322-2.356.191-3.468-.278-.645-.272-1.239-.663-1.85-1.014-.279-.16-.304-.359-.048-.49.737-.38 1.27-.981 1.826-1.568.197-.207.495-.314.733-.485.257-.186.987-.17.362-.78-.007-.008.134-.23.239-.284.716-.376 1.429-.754 2.222-.96.27-.071.173-.267-.041-.376l-.157.07q.086-.025.172-.055c.063-.378.4-.385.664-.496q.41-.17.808-.364c.044-.022.06-.106.088-.16-.069-.02-.142-.066-.206-.054-1.097.213-2.144.5-2.97 1.357-.372.386-.894.642-1.374.906-.268.147-.467.229-.203.554.031.04-.075.25-.167.319a154 154 0 0 1-2.11 1.583c-.208.154-.428.293-.633.45q-.698.528.088.929c.067.034.137.059.2.099.25.152.719.33.706.46-.036.365-.468.181-.718.29-1.147.504-2.336.933-3.16 1.957-.024.028-.047.058-.077.079-1.25.879-1.602 2.241-1.942 3.611-.124.497-.278.984-.418 1.476.486.016.985-.033 1.454.063 1.405.285 2.711-.15 4.036-.472 1.015-.247 1.747-.849 2.39-1.674.594-.763 1.175-1.494 1.473-2.439.129-.41.437-.772.71-1.117.075-.094.333-.091.49-.053.068.017.132.23.127.35a30 30 0 0 1-.12 1.597c-.056.548-.142 1.091-.187 1.64-.005.069.173.223.257.217.622-.036 1.253-.044 1.857-.175.86-.187 1.688-.516 2.547-.702.817-.178 1.427-.66 1.888-1.272a28 28 0 0 0 2.005-3.056c.283-.496.38-1.114.487-1.69.077-.42.312-.456.63-.413.18.023.36.078.534.13.196.059.485.08.555.21.084.161.057.474-.054.626-.397.543-.457 1.16-.503 1.789-.029.397-.199.69-.498.95-.116.099-.206.34-.164.472.038.118.263.22.42.246.29.052.589.034.883.06.254.024.597-.015.733.13.115.124-.039.474-.022.72.046.7.003 1.436.218 2.085.152.453-.348.976.09 1.214.282.153.774-.046 1.161-.13 1.044-.228 2.17-.304 3.098-.768.963-.483 1.84-1.26 2.554-2.084.582-.67 1.133-1.037 2.017-1.029.923.01 1.842-.123 2.718-.464.699-.273 1.304-.647 1.807-1.234.347-.404-.046-.281-.17-.327-.287-.101-.36-.264-.143-.481.361-.366.744-.708 1.118-1.06l-.016.021c.516-.703.86-1.534 1.68-2.001 1.705-.97 3.468-1.218 5.325-.536.192.07.342.256.502.4.037.034.03.119.043.18-.067.006-.145.037-.2.014-.206-.08-.4-.207-.612-.257-.244-.058-.5-.05-.753-.072.19.1.378.217.577.296.446.179.898.34 1.35.5.136.05.33.157.41.105.542-.351.85.021 1.235.305.224.165.557.18.838.269.211.066.424.135.627.225.27.12.322.363.072.497-.711.38-1.147 1.035-1.674 1.596-1.337 1.418-.913 1.266.452 1.786.297.113.618.17.928.255-.035.483-.528.434-.772.672q-.316.31-.577.666c-.547.735-.944 1.593-1.741 2.13-.04.026.004.303.068.334.161.075.356.095.538.1.907.022 1.723.348 2.534.72.328.15.69.274 1.046.308 1.885.173 3.7-.07 5.289-1.18.516-.362.914-.018 1.367.018.069.006.142-.021.214-.033-.045-.07-.077-.153-.135-.207-.053-.045-.137-.053-.203-.087-.13-.069-.269-.132-.383-.223-.075-.06-.115-.166-.17-.25.073-.01.146-.035.215-.027.109.014.215.047.322.077 2.28.602 4.459.14 6.596-.662.437-.164.921-.317 1.097-.846l.017.021.007-.259-.018.023c.069-.077.125-.174.208-.225.105-.065.234-.092.352-.136.009.125.032.253.022.375-.005.06-.074.114-.114.169l-.07.125c-1.341 1.629-3.17 2.221-5.175 2.386-.464.039-.945-.135-1.42-.193-.09-.011-.19.065-.284.099.07.075.13.203.21.216.617.104 1.235.21 1.856.264.366.032.742-.001 1.107-.048.321-.042.663-.089.945-.234a19 19 0 0 0 2.004-1.175 8 8 0 0 0 1.315-1.161c.453-.485.576-.506 1.006.002q.393.465.818.9c.247.251.513.484.772.727-.276.239-.579.456-.823.725-.392.428-1.018.547-1.321 1.113-.257.481-.4 2.07-.107 2.515.078.119.204.218.326.294 1.957 1.193 3.997 1.384 6.12.482.034-.014.065-.034.098-.05 1.216-.596 1.008-.467 1.761.302.503.516 1.081.9 1.772 1.097.426.12.694.374.881.772.482 1.028 1.16 1.89 2.171 2.455.204.114.237.267.036.427-.03.022-.055.052-.088.069-1.002.518-1.417 1.573-2.145 2.34.9.6 1.535 1.517 2.552 1.994 1.627.762 3.268.809 4.957.321.46-.133.913-.294 1.36-.471.277-.109.416-.009.511.233q.024.053.038.105c.367 1.42 1.335 2.343 2.541 3.07.159.094.315.2.444.33.056.057.062.19.047.281-.01.05-.108.094-.176.12a.6.6 0 0 1-.215.024c-.17-.004-.343-.018-.513-.028.036.24.032.496.12.716.148.372.42.701.527 1.08.483 1.696 1.765 2.685 3.112 3.623.3.209.618.395.927.59.506.323 1.008.61 1.656.472.242-.051.512.044.769.037.696-.021 1.406.02 2.082-.116.841-.165 1.523-.161 1.973.714.146.286.441.49.64.755.17.227.335.471.441.733.206.504.372 1.025.554 1.54l.031.076-.009-.092c-.67-.363-1.335-.73-2.008-1.085-1.014-.534-2.088-.715-3.213-.478-.97.205-1.934.444-2.902.67-.21.048-.322.156-.24.389q.166.456.327.912c.037.105.046.224.1.316 1.097 1.838 2.326 3.51 4.557 4.103.795.212 1.594.294 2.406.32.631.02 1.257-.036 1.774-.477.282-.24.475-.126.761.077.89.63 1.836 1.186 2.749 1.79a1.7 1.7 0 0 1 .528.542c.926 1.6 1.837 3.21 2.741 4.822.106.191.237.423.218.622-.06.64.313 1.131.501 1.683.321.945.638 1.892.983 2.828.366.998.8 1.975 1.135 2.983.476 1.435 1.158 2.804 1.383 4.323.075.508.26 1 .374 1.507.274 1.228.685 2.45.763 3.692.09 1.456.521 2.834.695 4.263.119.988.438 1.952.536 2.94.167 1.69.239 3.389.333 5.085.037.665.028 1.333.039 2 .018 1.11.065 2.221.043 3.328-.045 2.225-.085 4.45-.212 6.67-.092 1.624-.295 3.241-.494 4.857a36 36 0 0 1-.71 3.982c-.169-1.392-.391-2.782-.494-4.181-.106-1.443-.453-2.832-.74-4.237-.006-.037-.007-.079-.026-.108-1.085-1.579-1.046-3.533-1.733-5.247-.287-.716-.497-1.453-.872-2.142-.334-.61-.473-1.327-.774-1.96-.631-1.333-.943-2.812-1.817-4.035-.599-2.356-2.13-4.203-3.471-6.122-1.095-1.565-2.224-3.149-3.724-4.39l-.12.105c1.044 1.339 1.845 2.85 2.965 4.135.242.278.495.557.685.871a160 160 0 0 1 2.347 4c.365.647.523 1.388.958 2.021.253.37.46.826.385 1.358-.035.254.167.551.289.816.885 1.91 1.86 3.779 2.393 5.839.231.89.594 1.748.898 2.62.278.798.584 1.583.405 2.468-.046.229.075.509.163.749.822 2.244 1.16 4.591 1.454 6.941.133 1.052.147 2.12.204 3.181.012.22-.045.445-.041.666.008.359-.511.809.165 1.066.013.004.012.071.003.105-.305 1.249-.317 2.567-.9 3.747-.028.057-.079.1-.12.151-.041-.059-.101-.114-.118-.178-.037-.143-.093-.298-.066-.435.366-2.002.003-3.977-.168-5.967-.33-3.833-1.526-7.45-2.665-11.082-.043-.136-.134-.257-.201-.383l.015-.015c.177.905.317 1.818.54 2.711a112 112 0 0 0 1.299 4.8c.298 1 .44 2.014.523 3.047.03.365.116.729.186 1.091.161.838.242 1.662.069 2.525-.179.9-.202 1.833-.294 2.752.57.638.078 1.461.388 2.191.181.427-.061 1.062-.187 1.585-.09.375-.303.719-.579 1.031-.026-1.66-.113-3.321-.059-4.979.033-1.017-.252-1.965-.365-2.945-.169-1.439-.691-2.79-1.15-4.147-.412-1.218-.981-2.385-1.513-3.56-.334-.738-.68-1.478-1.107-2.161-.509-.811-1.092-1.578-1.68-2.336-.195-.251-.505-.412-.765-.614l.014-.011c.061.168.077.376.187.502 1.656 1.896 2.715 4.13 3.676 6.426.385.919.871 1.798.951 2.819.009.11.027.225.074.323 1.144 2.373 1.18 4.931 1.228 7.481.017.918-.092 1.839-.172 2.755-.109 1.222-.38 2.404-.904 3.524-.69 1.471-1.277 2.983-1.855 4.502-.291.767-.514 1.616-1.161 2.23-.173.164-.226.459-.326.698-.314.753-.577 1.53-.947 2.252-.636 1.242-1.443 2.391-1.985 3.687-.077.187-.295.319-.461.459-.546.459-.951 1.021-1.292 1.646a43 43 0 0 1-1.338 2.306c-.307.488-.574 1.042-1.218 1.216-.121.033-.219.192-.303.311a546 546 0 0 0-2.672 3.822c-.1.147-.15.332-.223.498l-.019-.012.255.006-.027.016.253-.239-.026.024.254-.241-.028.026.253-.241-.02.02c.086-.197.132-.428.262-.588.978-1.188 2.191-2.168 3.032-3.479.151-.237.422-.403.65-.585.069-.054.182-.049.274-.072-.016.101.004.232-.053.298-.592.702-1.203 1.385-1.794 2.087-.278.331-.525.692-.784 1.038.81-.753 1.691-1.446 2.417-2.276 1.524-1.748 2.966-3.569 4.446-5.358.164-.2.36-.374.52-.575 1.539-1.945 3.164-3.812 4.934-5.551.131-.13.288-.262.351-.426.259-.683.795-1.147 1.27-1.656.935-.998 1.896-1.973 2.833-2.971a770 770 0 0 0 4.608-4.96c.55-.597 1.026-1.265 1.603-1.833.788-.773 1.609-1.505 2.153-2.487 1.491-1.266 2.908-2.639 4.493-3.778 2.305-1.659 4.473-3.533 7.038-4.816.124-.062.213-.19.325-.28.649-.531 1.238-1.175 1.964-1.566 1.362-.734 2.8-1.326 4.209-1.971.165-.074.364-.079.519-.165a18.8 18.8 0 0 1 4.391-1.744c.712-.184 1.493-.272 2.104-.637.975-.583 2.043-.857 3.086-1.192 2.389-.765 4.813-1.419 7.217-2.142.517-.157 1.044-.295 1.484-.689.247-.223.677-.237 1.025-.345l.016-.063-.035.045c-.28.239-.551.489-.842.712-1.396 1.077-2.842 2.099-4.192 3.231-2.232 1.871-4.396 3.82-6.608 5.712-.642.548-1.407.959-2.01 1.542-1.335 1.291-2.861 2.327-4.34 3.423-1.837 1.362-3.705 2.681-5.552 4.031-.284.208-.664.354-.705.788l-.015-.017c.322-.165.67-.291.961-.5.837-.606 1.641-1.258 2.474-1.867 2.203-1.614 4.427-3.2 6.619-4.83.945-.702 1.836-1.48 2.747-2.23 1.796-1.478 3.679-2.865 5.361-4.465 1.966-1.871 4.235-3.332 6.31-5.047.053-.043.139-.044.209-.064l.254-.199-.019-.02-.187.27-.031.424-.019-.02c.663-.158 1.031-.7 1.448-1.156a158 158 0 0 0 3.011-3.414c.162-.186.263-.428.374-.653.023-.044-.026-.15-.075-.194-.038-.034-.132-.036-.188-.016a.5.5 0 0 0-.172.135c-1.287 1.522-2.966 2.546-4.611 3.603-.461.296-.989.498-1.506.692-.862.326-1.741.612-2.611.915-.139.048-.273.127-.416.151-2.087.361-4.036 1.149-6.004 1.903-2.242.86-4.545 1.561-6.796 2.402-2.769 1.033-5.529 2.094-7.959 3.854-.683.495-1.467.848-2.208 1.264-.128.072-.286.108-.394.201-1.734 1.501-3.879 2.44-5.514 4.088-.583.588-1.227 1.121-2.018 1.509-.702.343-1.246 1.03-1.828 1.598-.742.724-1.452 1.481-2.176 2.223-1.547 1.59-3.097 3.176-4.638 4.771q-.425.44-.797.927a8.2 8.2 0 0 1-1.22 1.268c-.64.547-1.127 1.27-1.706 1.895-.42.454-.733 1.036-1.373 1.254-.063.022-.139.076-.164.134-.465 1.122-1.399 1.892-2.118 2.818-.521.671-1.15 1.253-1.705 1.897-.234.273-.403.605-.601.909l-.02-.014q.12.014.242.027.028-.024.055-.052l-.07.033-.232.238.022-.023-.936 1.114.02-.023-.251.24.023-.019-.249.236.022-.021q-.125.118-.25.238l.02-.021c-.088.229-.172.463-.477.219l.013.019c-.355.403-.7.814-1.066 1.207-.241.255-.509.484-.764.724l-.252.212q-.101.225-.199.451l-.034.033.036-.031.215-.433.249-.216c.1-.236.181-.482.305-.703 1.173-2.103 2.36-4.197 3.527-6.303a72 72 0 0 0 1.556-2.938c.278-.561.489-1.159.718-1.746.511-1.311 1.111-2.598 1.495-3.946.443-1.561 1.195-3.006 1.532-4.608.257-1.227.734-2.405 1.115-3.606.056-.175.181-.35.176-.521-.05-1.328.511-2.526.782-3.785.225-1.048.501-2.073.51-3.169.006-.879.252-1.754.391-2.632.034-.22.076-.44.091-.661.199-2.773.441-5.546.573-8.32.087-1.813.079-3.636.003-5.448-.105-2.547.175-5.013.969-7.446.353-1.082.892-2.105 1.058-3.25.176-1.21.38-2.415.573-3.624.041-.256.095-.51.126-.769.034-.262.186-.437.428-.419 1.075.077 1.885-.6 2.773-1.004 2.812-1.276 3.812-3.66 3.789-6.596-.001-.19-.118-.425-.256-.557-.347-.33-.267-.604-.055-.975a8.13 8.13 0 0 0 1.099-4.357c-.019-.7-.264-1.018-.953-1.124a5.47 5.47 0 0 0-3.542.62c-.323.177-.601.433-.913.63-.218.14-.402.534-.715.242-.144-.134.205-.774.444-.905.033-.016.07-.025.105-.035.921-.28 1.546-.934 2.214-1.593 1.116-1.101 1.532-2.456 1.575-3.922a10 10 0 0 0-.634-3.81c-.222-.593-.47-1.195-1.265-1.207-.231-.004-.304-.165-.301-.374.002-.148-.019-.298-.006-.444.102-1.078-.226-2.068-.742-2.971-.292-.513-.262-.948-.14-1.475.189-.82.421-1.668.384-2.494-.029-.67-.421-1.322-.663-1.98-.017-.044-.149-.097-.184-.075-.08.05-.194.147-.186.217.023.25.062.504.141.742.349 1.057.228 2.126.089 3.194-.017.134-.129.256-.197.383-.147-.1-.358-.169-.426-.308-.104-.22-.196-.508-.144-.732.322-1.4.015-2.72-.433-4.031-.057-.17-.052-.36-.074-.544l-.042-.026.028.024c.17.194.333.398.515.581.061.063.17.077.257.114.01-.069.046-.147.025-.207-.309-.914-.95-1.567-1.701-2.122-.098-.071-.313-.101-.407-.044-.554.35-.604-.107-.74-.437-.307-.751-.569-1.524-.931-2.247-.441-.886-1.233-1.425-2.041-1.975-.88-.6-1.921-.718-2.841-1.163-.081-.04-.314.052-.356.14a4.7 4.7 0 0 0-.338.937c-.374 1.587-.276 3.164.167 4.72.097.339.032.47-.309.528-.835.143-1.666.31-2.502.46-.294.053-.345.234-.278.481.039.143.091.283.147.42.074.183.082.293-.124.443a11.6 11.6 0 0 0-2.492 2.494c-.063.085-.151.152-.228.227-.037-.126-.125-.261-.105-.378.105-.598.07-1.284.851-1.507a.53.53 0 0 0 .253-.209c1.014-1.495 1.862-3.014 1.319-4.952-.365-1.3-.778-2.546-1.691-3.577-.552-.622-1.166-1.137-2.037-1.164-.344-.01-.431-.216-.54-.451a8.7 8.7 0 0 0-1.838-2.617c-.49-.477-.98-1.023-1.762-1.033l.584.625.514.549.213.224.226.232c.423.452.911.86 1.247 1.37.277.42.41.952.533 1.453.04.164-.149.386-.233.582-.114-.12-.274-.222-.334-.364-.128-.304-.183-.64-.308-.948-.283-.708-.591-1.405-.888-2.108l-.226-.232-.211-.226c-.498.16-.563.235-.337.527.693.891 1.075 1.936 1.535 2.944.323.71.299 1.436.066 2.165-.126.404-.144.406-.469.144-.655-.53-1.249-1.143-2.085-1.42-1.114-.37-1.537-1.364-1.795-2.344-.25-.953-.259-1.973-.336-2.967-.043-.57.262-.739.753-.442.377.23.726.507 1.108.73.31.18.24-.02.214-.225-.009-.073.162-.17.25-.257zm.263 114.949-.033.03.041-.031.024-.036zm1.112-.425q-.117.11-.233.217c-.013.067-.006.149-.045.195-.057.067-.148.109-.224.163.036-.084.058-.175.111-.245.036-.049.115-.064.173-.095l.233-.217q.125-.106.245-.215l.022-.046-.039.028zM58.022 17.647q.11.003.22.01c.287-.147.612-.248.856-.446.657-.53 1.395-.837 2.228-.83 1.308.012 2.614-.395 3.932.062.454.157.062-.273.138-.408-1.205-.068-2.408-.232-3.62-.117-.219.022-.44.005-.66-.01-.037-.001-.073-.085-.095-.137-.005-.012.04-.055.069-.071.062-.037.126-.078.196-.097 1.318-.398 2.604-.175 3.878.215.09.027.148.154.218.234.25.049.514.067.75.155.372.14.432.416.119.666-.688.545-1.314 1.16-2.13 1.55-.693.33-1.426.308-2.128.483-1.396.347-2.698-.067-4.03-.277-.288-.046-.32-.262-.139-.493.067-.087.129-.18.194-.27-.174-.077-.182-.15.006-.217zm7.767.174-.034.043.032-.035.04-.024zm3.544.094q-.104-.115-.21-.232l-.223-.222-.215-.234-.016.013q.107.12.21.24.114.11.227.22l.207.234q.117.124.233.25c.667-.09.88.085 1.086.892l.013-.013q-.54-.447-1.08-.898-.117-.124-.232-.248zM31.807 16.3q-.036.038-.073.077l.092-.06.03-.03zm85.122 53.809-.226-.225c-.595-.024-.814-.463-.923-.933-.196-.846-.328-1.707-.486-2.562.613.975 1.094 1.984 1.538 3.01.052.123-.095.33-.147.5l.236.213.036.03-.028-.031zM75.696 12.288l-.02.019q.12.11.238.223c.334.213.685.406 1 .645 1.287.973 2.644 1.755 4.33 1.741.663-.006 1.327.033 1.991.063.073.002.144.073.216.111-.064.027-.127.07-.194.082-1.846.355-3.674.417-5.392-.514-.888-.481-1.64-1.117-1.935-2.147l-.236-.225zm-7.02-3.06c.081-.206.145-.097.212.01.269-.27.764.223.96-.289 1.48-.871 3.069-1.087 4.75-.828.882.135 1.442.64 1.859 1.386.143.257.11.408-.147.513-1.27.523-2.584.875-3.966.852-1.037-.016-2.047-.22-2.99-.681-.22-.107-.419-.168-.504.156.1.02.215.015.292.067.068.046.09.156.132.236-.084-.026-.183-.03-.245-.08-.072-.059-.111-.158-.163-.24-.289-.003-.366-.218-.435-.44q.006-.222.013-.444.115-.11.227-.22zM96.212 37.26l-.233-.197c-.09-.058-.218-.094-.265-.178-.513-.873-.86-1.794-.777-2.834.026-.33.046-.665.013-.993-.051-.54.097-1.026.333-1.491.052-.102.188-.162.285-.242.007.107.045.221.02.32-.448 1.74-.347 3.443.344 5.105.04.097.021.218.032.328l.25.202.008.038-.012-.058zm-8.883-9.13q-.03-.026-.058-.052l.055.069.007.037-.004-.056zM62.308 14.628q-.09-.047-.18-.093.101-.061.201-.124c-.54-.493-1.107-.958-1.607-1.487-.349-.368-.612-.82-.904-1.242-.033-.047-.004-.139-.002-.212.088.01.197-.008.26.036.148.107.271.248.408.37.628.566 1.25 1.142 2.072 1.423l-.014.014c-.067-.457-.453-.632-.76-.887-.923-.77-1.923-1.475-2.454-2.615-.102-.222-.195-.472-.197-.71 0-.436.197-.6.633-.478 1.261.36 2.512.76 3.765 1.144l-.018.021c-.236-.307-.47-.615-.61-.8 1.215.372 2.059 1.04 2.623 2.16l-.017-.018c.404.077.617.369.777.71.14.298.265.602.388.907.025.06.016.133.023.2-.077-.032-.184-.043-.227-.101-.248-.343-.284-.843-.76-1.014l.02-.017c.083.273.139.557.251.815.22.503.49.986.707 1.49.159.369.074.526-.302.657-1.058.368-2.099.163-3.134-.114-.314-.085-.624-.18-.936-.27a5 5 0 0 0 0 .237zm56.244 35.918.408.25.054.057-.037-.076-.409-.246-.016.017zM104.029 142.2l-.015-.016q-.102.22-.204.441l-.035.026.046-.024zM88.469 17.7q-.228-.103-.457-.205c-1.323-.164-2.613-.619-4.242-.444.596.144.943.302 1.288.297 1.347-.016 2.47.643 3.64 1.156.513.226.9.61 1.15 1.139.129.274-.058.406-.149.591.102.001.207-.008.306.008.029.005.046.084.068.127-.034.003-.075.02-.1.007-.089-.049-.171-.106-.258-.159-2.148.552-4.28.455-6.342-.32-1.099-.414-1.99-1.192-2.713-2.138l.017.018c-.245-.108-.538-.2-.155-.503 1.068-.85 2.469-.801 3.642-1.365.03-.015.075-.008.11 0 .734.178 1.504.278 2.196.564.556.229 1.02.684 1.524 1.04q.238.102.474.2l.019.031-.018-.046zm20.729 23.925-.254.21c-.496.453-.504.458-.763-.01-.751-1.358-1.395-2.76-1.751-4.285-.338-1.437.084-2.7.819-3.896.195-.32.493-.332.725-.044.63.782 1.18 1.631 1.341 2.634.297 1.846.133 3.651-.686 5.372-.123.26.153.254.335.25q.127-.105.251-.214l.222-.45c.099-.58.243-1.16.287-1.747.116-1.585.165-3.172-.347-4.713l-.223-.444-.029-.04.035.046q.1.226.202.447c.112.085.251.152.338.26.587.735.558 1.656.757 2.513.187.801.121 1.553-.253 2.254-.251.474-.212 1.118-.788 1.407l-.22.448zM25.242 13.511q.107-.24.215-.479c.004-.47.304-.697.695-.852l.232-.217c.041-.138.042-.31.13-.404.66-.706 1.206-1.549 2.224-1.829.224-.061.411-.258.616-.393-.73-.018-1.355.22-1.931.68-.514.41-1.086.754-1.658 1.082a.72.72 0 0 1-.602.004c-.569-.308-1.113-.665-1.656-1.017-.08-.052-.11-.18-.166-.27.13-.015.278-.073.388-.033.657.239 1.302.508 1.958.751.086.03.204-.026.308-.042-.073-.075-.136-.175-.223-.225-.636-.363-1.285-.708-1.92-1.079-.488-.286-.798-.872-1.472-.866-.075 0-.203-.224-.212-.35-.007-.087.132-.226.235-.273.4-.182.811-.335 1.22-.5l-.022.017c.632-.436 1.384-.43 2.094-.541 1.849-.29 3.369.439 4.707 1.645.097.087.19.255.175.37-.012.087-.189.185-.309.222-.335.103-.746.033-.936.443.364-.014.729-.035 1.093-.036.096 0 .192.068.289.105-.04.093-.068.193-.118.278-.153.263-.4.247-.666.254-.841.023-1.543.355-2.16.949-.416.398-.929.696-1.4 1.04l-.23.219c-.08.409-.142.832-.695.855l-.218.476c-.01.034-.016.073-.034.103-.014.02-.044.03-.07.042q.06-.064.12-.13zm96.201 45.342c-.058-.038-.148-.064-.169-.116-.035-.078-.021-.175-.028-.266.067.06.154.11.195.184.029.052-.008.14-.013.213l.035.023zm-49.48-39.078c.037-.003.087-.023.108-.005.075.06.142.132.211.201l-.305-.213q-.164-.054-.329-.108c.025-.011.06-.039.076-.03.08.047.158.103.237.155zm93.586 79.402.039-.041-.035.036q-.139.098-.277.198c.003-.027-.002-.07.01-.078.085-.042.174-.077.263-.115M99.254 38.092c.07.097.156.19.205.297.022.046-.034.126-.054.19-.039-.064-.095-.125-.11-.196-.025-.1-.018-.206-.025-.31l-.03-.164.014.18zm23.235 32.412.024-.041-.022.028q-.245.308-.49.618c-.003.103.019.215-.012.31-.027.079-.114.136-.175.202-.002-.09-.03-.193.004-.27.039-.087.133-.151.201-.227l.472-.62zM96.271 24.828l-.19-.883c-.017-.025-.038-.047-.05-.074-.01-.02-.007-.042-.01-.065q.022.075.044.152c.331.237.231.567.19.885zM28.437 19.37c-.064.025-.126.056-.191.072-.03.007-.067-.015-.1-.024a1 1 0 0 0 .104-.003q.104-.013.206-.031l.431-.47c-.504.098-1.012.177-1.511.295-.262.063-.495.16-.675-.143-.235-.398-.327-1.184-.091-1.237.691-.16.622-.76.815-1.203.144-.33.36-.508.696-.647 1.19-.495 2.45-.846 3.514-1.622.072-.054.24-.07.298-.023.06.047.077.205.05.297-.257.865-.658 1.639-1.353 2.251a26 26 0 0 0-1.571 1.536c-.116.122-.131.338-.193.511l.672.03.03-.039-.032.03zm84.028 106.8.2-.717c.042-.208.074-.419.131-.623.014-.057.096-.097.149-.146.024.089.094.204.062.263-.098.176-.234.328-.357.49l-.202.717c-.086.24-.169.48-.259.72-.012.03-.051.05-.076.074-.024-.058-.085-.14-.065-.172.13-.208.276-.406.419-.606zm-9.751-82.436.014-.05-.016.034c-.037.17-.047.352-.122.504-.046.095-.189.143-.288.212-.047-.116-.112-.227-.135-.349-.011-.05.064-.117.1-.176-.396.03-.589-.22-.769-.522-.726-1.218-1.116-2.565-1.508-3.909a.8.8 0 0 1-.03-.329c.016-.128.073-.252.112-.377.097.046.196.087.286.14.816.48 1.608 1.007 2.453 1.433.538.27.627.229.537.75-.094.542-.262 1.072-.434 1.593-.114.349-.293.677-.443 1.015l.241.035zm-44.633-28.75.047-.058-.064.04c.086.477-.252.428-.536.423-.08-.002-.159-.08-.238-.123.157-.08.309-.175.471-.238.097-.038.212-.03.32-.042zm41.783 26.853-.87-.91c-.395-.082-.607-.632-1.11-.437l.016-.017c.615.66 1.227 1.326 1.851 1.977.063.067.206.06.312.085l.028-.038-.03.03c-.025.247-.07.494-.072.742 0 .428-.076.524-.491.504a2.3 2.3 0 0 1-.548-.075c-1.06-.317-2.13-.608-3.172-.98-1.388-.497-2.558-1.298-3.304-2.628-.17-.302-.291-.63-.814-.571-.346.037-.442-.474-.16-.726a3.3 3.3 0 0 1 1.758-.811c1.494-.23 2.843.169 4.098.926.36.218.573.697.94.885.516.263.67.639.678 1.15.474.127.962.24.87.91l.05.057q-.016-.036-.034-.073zM30.207 18.486l.01.013c.271-.242.538-.49.814-.724.025-.023.149.023.175.067s.003.167-.032.186c-.318.16-.644.308-.967.458m89.633 32.347c.15.196.31.385.449.588.226.328.436.663.653.997-.093-.469-.156-.945-.288-1.403-.397-1.377-.345-2.783-.262-4.181.032-.533.266-1.147.856-1.325.469-.14.919.135 1.296.451 1.053.88 1.749 2.008 2.111 3.31.259.931.181 1.903-.097 2.839-.023.076-.164.117-.252.174-.019-.068-.059-.138-.054-.203.222-2.376-.82-4.3-2.166-6.116a.75.75 0 0 0-.25-.21c-.049-.026-.151-.007-.198.03-.045.035-.086.146-.064.183.155.247.345.475.488.728.376.674.793 1.333 1.08 2.043.184.46.17 1 .238 1.506.1.764.211 1.53.278 2.297.018.202-.057.448-.172.618-.291.427-.626.824-.947 1.23-.148.189-.335.161-.46 0a7 7 0 0 1-.546-.827c-.217-.382-.408-.78-.609-1.171l-.017.677q.025.034.048.067l-.032-.082c-.679-.587-1.048-1.326-1.066-2.23-.203-.912-.41-1.825.059-2.972l-.074 2.983zM51.302 10.135l.894.47c-.505-.844-1.005-1.69-1.521-2.526-.074-.12-.223-.188-.319-.296-.327-.377-.276-.666.188-.844.176-.069.427-.05.61.019.76.282 1.505.603 2.258.899.09.035.203.003.307.002-.048-.084-.075-.206-.147-.248-.442-.253-.894-.489-1.339-.728 1.397.067 2.607.583 3.731 1.452 1.036.8 1.728 1.798 2.188 2.99.033.086 0 .2-.005.3-.095-.024-.199-.032-.284-.076-.558-.287-.8-.838-1.102-1.34-.404-.666-.834-1.303-1.643-1.534l.018-.017c.3.417.596.835.902 1.248.176.236.386.449.55.693.214.316.133.493-.218.513q-1.542.084-3.083.165c-.22.116-.433.247-.662.339-.081.034-.263.015-.29-.038-.28-.53-.965-.775-1.014-1.46-.028-.006-.059-.007-.083-.023-.014-.008-.01-.04-.014-.062zm37.844 6.074c.24.492.502.977.71 1.481.1.243.098.529.143.795-.194-.21-.43-.397-.574-.639-.3-.506-.582-1.035-.262-1.65-.326-.515-.386-1.09-.385-1.68 0-.098.064-.196.1-.295.064.079.183.154.189.237.039.583.057 1.167.08 1.751zm8.99 14.904q.605.908 1.206 1.82c.11.167.183.346-.089.418-.197.05-.462.182-.552-.135-.197-.702-.365-1.413-.547-2.12q-.038-.028-.077-.056l.06.075zm-5.568.952c.902.184 1.076 1.09 1.599 1.649.185.197-.151.447-.571.397.107.308.185.63.327.924.336.694.704 1.369 1.049 2.06.056.112.057.256.084.383-.107.003-.217.024-.32.006-.687-.119-1.352-.247-1.937-.71-.776-.615-1.672-1.083-2.413-1.735-.843-.743-1.25-1.798-1.63-2.844-.144-.396-.109-.869-.57-1.14-.183-.108-.064-.49.136-.54.451-.111.877-.03 1.24.252.022.018-.234.286.12.431.708.294 1.379.682 2.07 1.02.255.125.527.216.79.322q-.012-.211-.025-.422c-.204-.067-.433-.096-.604-.211-.217-.146-.386-.361-.575-.545.27.078.56.118.805.245.174.09.285.3.425.456zm6.456-1.362c.812.49 1.009 1.432 1.547 2.126.07.09-.023.308-.04.465-.16-.054-.416-.066-.464-.17-.363-.803-.687-1.625-1.023-2.44-.294-.27-.593-.537-.877-.815-.026-.025 0-.151.04-.183s.167-.03.189 0c.218.335.422.676.628 1.015zm15.598 6.21c.103.183.221.359.309.547.276.595.547 1.19.804 1.794.074.175.385.361.124.541-.103.072-.437-.068-.577-.204a1.3 1.3 0 0 1-.361-.649c-.125-.677-.193-1.362-.283-2.046q-.03-.075-.057-.151.02.084.043.168zm-99.1-26.339c.073.004.16-.015.218.017 1.066.58 2.21.69 3.393.568.023-.003.05.032.143.094-.515.285-.995.551-1.569.374-.777-.24-1.724-.152-2.173-1.068l-.149-.102q.067.058.137.117m63.302 10.062c1.739.185 2.507 1.43 3.101 2.86.02.05-.03.185-.058.188-.077.012-.214-.005-.234-.052-.574-1.347-1.682-2.188-2.813-3.01l-.024-.03zm34.095 22.68.686.22c.022-.567-.492-.794-.748-1.185-.24-.367-.529-.712-.716-1.105-.166-.346-.003-.5.387-.47.256.02.513.02.77.025.019 0 .039-.04.06-.06-.05-.038-.099-.085-.156-.113-.091-.047-.187-.082-.282-.12.08-.06.153-.156.242-.177 1.905-.42 3.586.028 5.026 1.35.129.119.197.306.276.472.025.054-.009.138-.015.207-.061-.017-.134-.021-.183-.055-.488-.33-.958-.69-1.462-.996-.7-.425-1.455-.72-2.285-.77-.054-.003-.14.068-.158.123-.015.046.03.147.076.173a1 1 0 0 0 .313.098c1.563.25 2.648 1.222 3.606 2.384.452.55.275 1.188.224 1.805-.523.212-.997.02-1.471-.173-.035-.014-.065-.036-.099-.052-.698-.334-1.405-.655-2.096-1.005-.335-.17-.625-.211-.9.087.381.707 1.189.85 1.737 1.336.144.128.263.285.393.43-.218.004-.463.073-.647-.002-.435-.18-.947-.22-1.258-.654-.43-.6-.871-1.191-1.308-1.786l-.014.015zM94.924 25.248c-.816-.32-1.63-.645-2.448-.96-.34-.13-.686-.243-1.028-.363.353-.396.827-.279 1.232-.213.498.082 1.03.22 1.438.495.345.231.917.424.788 1.06l.067.002-.051-.019zM67.69 3.861c.325.34.69.65.969 1.024.641.863 1.493 1.334 2.533 1.511-.816-.765-1.65-1.512-2.44-2.301-.311-.312-.582-.606-1.028-.75-.508-.164-.49-.346.003-.837l-.016.019c1.24-.522 2.504-.506 3.773-.146.46.13.9.333 1.358.467.774.227 1.353.743 1.905 1.284.16.156.192.452.247.692.021.087-.064.196-.101.297-.095-.048-.21-.074-.28-.147-.644-.67-1.32-1.295-2.227-1.592-.665-.218-1.328-.453-2.006-.618-.499-.122-1.02-.15-1.533-.2-.077-.007-.166.098-.247.152.083.058.16.134.252.171.1.04.218.038.326.056 2.057.336 3.844 1.225 5.364 2.645.233.217.41.514.546.805.138.3-.067.515-.392.4-.685-.244-1.38-.18-2.08-.15-.403.017-.808-.022-1.212-.036-.888.488-1.334.527-1.871-.037-.758-.797-1.49-1.633-1.845-2.715l-.046-.019.053.025zm57.938 55.986-.036.078.053-.062c.186-.558.342-1.129.568-1.668.348-.83.435-1.704.551-2.579.038-.289-.231-.63.129-.867.081.271.159.542.242.811.287.936-.169 1.805-.253 2.707-.013.128-.157.242-.239.363-.183.272-.347.556-.551.81-.126.158-.307.272-.466.407zM86.745 33.525l.011-.053-.027.036c-.258.13-.506.294-.778.38-.829.265-1.683.123-2.53.121-.847 0-1.576-.354-2.3-.725-.067-.035-.085-.16-.127-.243.07-.008.143-.033.21-.022 1.615.292 3.212.796 4.89.423.203-.045.434.051.652.081zM95.68 48.89c.204.147.442.263.606.444 1.45 1.604 3.158 2.75 5.332 3.099.198.032.385.146.577.222a3.4 3.4 0 0 1-1.348.095c-1.344-.187-2.556-.676-3.468-1.726-.597-.687-1.273-1.315-1.685-2.149l-.014.013zm21.026-14.393c.596.353 1.197.698 1.788 1.062.151.094.293.229.395.377.725 1.041 1.146 2.216 1.406 3.443.057.27.237.648-.169.864-.128-.247-.277-.487-.381-.745-.138-.34-.288-.687-.344-1.045-.182-1.15-.87-2.007-1.585-2.849-.104-.122-.31-.157-.469-.234.794 1.438 1.788 2.767 2.1 4.457a3.34 3.34 0 0 1-.092 1.612c-.065.221-.263.395-.496.17-.588-.565-1.211-1.074-1.952-1.433a.8.8 0 0 1-.308-.31c-.322-.533-.631-1.072-.941-1.612-.667-1.157-.445-2.523-.863-3.74-.086-.25.243-.515.493-.419.272.105.52.272.782.406q.432.218.866.428l-.228-.447-.022-.031.022.044zm-28.608-2.493c.082.161.187.315.24.484.388 1.223 1.003 2.306 2.008 3.114.743.597 1.54 1.124 2.31 1.688.08.058.123.163.182.245-.098.028-.2.087-.297.08-.182-.012-.38-.022-.538-.101-.957-.477-1.889-1.001-2.534-1.893-.318-.44-.704-.87-.877-1.37-.253-.722-.342-1.504-.502-2.26l-.018-.04zm3.561 8.332c.22.182.443.358.655.548.467.415.88.909 1.4 1.239.872.551 1.813.988 2.837 1.213.36.078.71.2 1.06.314.052.017.11.103.112.158 0 .037-.087.111-.14.114-1.008.04-1.98-.084-2.895-.563-.93-.486-1.68-1.181-2.428-1.9-.347-.334-.557-.673-.587-1.138zM58.59 12.51c-.657.223-1.304-.03-1.947-.03-1.171 0-2.354-.29-3.52.07-.071.021-.174-.062-.264-.097.036-.06.061-.136.112-.18.654-.555 1.428-.715 2.267-.72 1.221-.009 2.275.52 3.358.968l.026.035zm27.056-6.428c1.72 2.281 1.895 4.707.668 7.257-.104.218-.276.404-.417.606-.247-.3.144-.403.19-.613.101-.466.228-.928.314-1.396.308-1.652-.052-3.227-.54-4.791-.106-.344-.14-.712-.205-1.069l-.038-.026.026.03zm-15.472 4.964c.184.005.382-.03.55.026 1.28.427 2.53.253 3.808-.063.534-.133 1.065-.214 1.573-.46.293-.143.73-.652.935-.236.228.464-.449.473-.745.665l-.093.06c-1.214.89-2.625.942-4.023.836-.71-.054-1.435-.314-1.995-.843q-.106-.075-.213-.149.101.081.201.162zM25.387 14.81c.158.293.401.445.73.36.352-.094.694-.221 1.037-.347.27-.101.528-.308.799-.32 1.197-.055 2.043-.725 2.842-1.512.12-.118.302-.282.426-.258.319.06.622.213.93.329-.161.218-.298.463-.488.652-.611.605-1.357 1.005-2.145 1.329-.095.04-.274.074-.31.029-.413-.514-.858.088-1.274-.05-.687.452-1.49.311-2.24.421-.546.08-.562.01-.284-.62q.278-.713.557-1.424c.476-1.211 1.644-1.725 2.541-2.51.235-.205.6-.26.91-.376.064-.024.19-.038.2-.017.04.092.09.216.056.292a4.6 4.6 0 0 1-.377.666c-.103.157-.525.077-.376.392.073.154.359.217.558.293.17.065.359.078.53.141.128.048.348.151.341.205-.02.159-.095.358-.218.446-.99.712-2.053 1.295-3.245 1.599-.492.126-1 .188-1.5.28m80.938 34.787c.541-.265.746-.782.942-1.294.119-.306.187-.633.288-.947.019-.057.084-.129.136-.139.054-.008.158.04.17.085.099.338.334.661.024 1.03-.234.278-.378.64-.627.902a8.7 8.7 0 0 1-1.154.997c-.209.152-.195-.096-.224-.221-.294.27-.547.192-.715-.13-.465-.883-.899-1.78-.635-2.83-.278-1.291.186-2.482.513-3.687.095-.353.274-.685.432-1.017.044-.093.168-.236.216-.221.118.037.263.13.304.236.426 1.059.842 2.122 1.239 3.191.111.303.263.666.189.946-.203.776-.287 1.6-.785 2.287-.164.226-.212.538-.315.81zM51.55 17.28c.566-.144 1.142-.262 1.7-.436 1.24-.388 2.48-.192 3.722-.04.11.014.28.164.294.268.07.475-.718 1.695-1.22 1.844-.95.282-1.889.595-2.908.575-1.028-.02-2.057.05-3.084.067-.278.005-.557-.042-.834-.065.116-.258.196-.546.36-.768.145-.195.384-.32.59-.462.472-.328 1.083-.459 1.407-.998-.035-.014-.067-.032-.103-.043q-.21-.056-.418-.11c.085-.136.14-.344.26-.397.508-.218 1.044-.366 1.553-.582 1.185-.498 2.416-.683 3.678-.484.458.073.89.322 1.328.501.04.017.07.129.055.186-.013.048-.097.117-.143.112-.44-.042-.881-.07-1.312-.152-1.665-.316-3.218.05-4.726.733-.087.038-.132.166-.198.253zm47.967 31.037c-.405-.494-.985-.614-1.56-.761-.152-.039-.283-.17-.423-.259.16-.067.313-.147.475-.2.552-.185 1.098-.1 1.63.086.87.304 1.764.576 2.389 1.323.448.535.899 1.072 1.333 1.62.13.165.211.37.316.556-.172-.089-.354-.163-.512-.274a3 3 0 0 1-.503-.437c-.858-.94-1.973-1.385-3.173-1.672.291.523.861.641 1.33.895.582.316 1.162.599 1.63 1.11.49.534 1.093.964 1.642 1.444.101.09.181.203.27.305-.122.058-.239.134-.366.173-.174.051-.365.131-.535.102-.901-.145-1.828-.226-2.685-.509-1.37-.452-2.627-1.163-3.698-2.16-.429-.398-.834-.82-1.255-1.227-.21-.203-.183-.35.083-.484.666-.337 1.33-.253 2.013-.04.522.165 1.062.276 1.595.41zm23.738 17.96c.269-.395.486-.835.815-1.17.511-.525 1.054-1.042 1.66-1.449.729-.489 1.53-.878 2.322-1.265.151-.075.422.028.6.122.051.026-.008.319-.062.475-.105.314-.215.63-.367.922a20 20 0 0 1-.922 1.625c-.259.4-.569.77-.885 1.13-.337.385-.643.919-1.074 1.071-.789.28-1.431.75-2.118 1.176-.177.111-.397.15-.598.222-.011-.217-.069-.444-.026-.65.068-.323.208-.63.304-.948.127-.424.239-.85.357-1.274l-.008.01zM38.705 7.8l-.018.02c-.327-.451-.472-1.096-1.235-1.086-.09.001-.238-.36-.256-.561-.01-.102.198-.262.337-.33.297-.142.612-.248.921-.36.886-.319 1.788-.46 2.712-.191.065.019.108.16.126.25.005.028-.114.12-.165.114-.386-.054-.77-.125-1.153-.19.25.165.533.213.8.308.307.111.676.19.882.41.599.644 1.13 1.353 1.683 2.04.182.228.345.472.517.706-.267.16-.539.313-.798.486-.154.101-.285.234-.43.348-.477.374-1.016.468-1.565.232-1.164-.503-2.242-1.143-3.039-2.163-.104-.133-.118-.335-.173-.506l-.05-.008.034.025q.435.229.872.456zm60.39 28.711c.208.134.428.257.627.406.295.218.565.475.87.676.43.281.878.536 1.328.788.287.159.59.287.886.429l-.018.017c-.321-.665-.918-1.08-1.511-1.407-1.176-.651-2.023-1.573-2.65-2.731-.058-.11-.11-.306-.057-.37a.5.5 0 0 1 .393-.152c.357.06.705.229 1.059.245.618.027 1.132.255 1.627.598.484.334 1.034.579 1.492.941.511.403 1.155.695 1.449 1.308.364.758.643 1.557.961 2.34.074.184.015.295-.181.266-.766-.116-1.526-.3-2.294-.355-.959-.068-1.663-.539-2.303-1.187-.31-.315-.588-.706-.964-.903-.416-.218-.565-.554-.73-.92l-.02-.043.031.056zm-39.433-22.63c-.75-.023-1.382.309-2.01.662q-.53.296-1.086.543c-.197.087-.436.216-.623.173-1.131-.255-2.194.154-3.256.37-.929.188-1.74.04-2.554-.338-.382-.177-.416-.274-.14-.534 1.323-1.251 2.816-2.119 4.711-2.066.22.006.444-.027.663-.006 1.318.117 2.63.244 3.875.755.23.094.374.213.423.45l.03.033-.03-.043zm21.381 16.588.015.017c.049-.42.354-.688.681-.808 1.514-.562 3.043-.885 4.594-.076 1.37.715 1.427.796 1.25 2.41-.073.676-.374.995-1.031 1.048-.292.023-.595-.044-.881.003-2.051.33-3.949-.171-5.78-1.039-.074-.034-.101-.168-.15-.253.055-.026.117-.047.17-.08.428-.274.873-.526 1.276-.835.185-.143.113-.331-.142-.387zm38.866 26.591-.016.017-.164-.472c-.013-.026-.041-.053-.036-.078.007-.054.027-.105.044-.156-.1-.155-.166-.35-.303-.46-1.27-1.002-1.851-2.468-2.578-3.83a1.8 1.8 0 0 1-.114-1.407c.083-.265.268-.38.503-.282.857.364 1.738.764 2.263 1.55.7 1.051 1.369 2.11 2.321 2.96.105.093.151.332.12.485-.129.65-.304 1.29-.447 1.94-.136.62-.17.694-.694.48-.919-.377-1.811-.823-2.706-1.252a.9.9 0 0 1-.324-.3c-.736-1.082-1.196-2.286-1.506-3.552a.23.23 0 0 1 .003-.111c.015-.07.038-.14.057-.21.077.048.189.078.228.148.438.812.836 1.647 1.301 2.444.504.863 1.042 1.716 2.054 2.087zM19.841 15.791c-.27.191-.544.378-.813.573-.845.609-1.709 1.156-2.785 1.283-.957.11-.995.113-1.07-.84-.026-.328-.07-.69.037-.987.426-1.182.94-2.321 2.055-3.042q.411-.267.84-.504c.046-.025.133.025.202.04-.03.055-.047.127-.092.163a7.5 7.5 0 0 0-1.954 2.384c-.127.244-.343.508-.115.815.15-.202.32-.391.445-.609.831-1.456 1.972-2.574 3.523-3.238.372-.16.762-.29 1.157-.375.52-.112.594.015.415.583-.044.14-.067.288-.1.433-.232.98-.524 1.927-1.312 2.635-.123.11-.155.322-.23.488.887.002 1.116-.752 1.462-1.33.262-.438.405-.947.625-1.414.07-.146.215-.256.328-.382.013.177.067.363.03.529-.062.282-.129.586-.284.822-.524.8-1.078 1.579-1.636 2.356-.841 1.17-2.128 1.524-3.425 1.848-.06.016-.132-.009-.197-.016.063-.07.12-.197.189-.2.954-.08 1.54-.819 2.27-1.288.212-.137.293-.479.433-.725zM121.93 75.59l-.06.05.076-.038c-.021-.777-.109-1.555.162-2.312.048-.132.079-.305.034-.43-.26-.695.094-1.216.455-1.741.535-.774 1.249-1.354 2.028-1.862.179-.117.425-.214.502-.385.197-.443.578-.539.97-.644.507-.138 1.083-.261 1.464.134.329.34.103.855-.033 1.272-.769 2.318-2.253 4.06-4.376 5.218-.421.23-.64.794-1.222.74zM6.024 17.698c.212-.14.472-.24.63-.428 1.476-1.741 3.41-2.513 5.62-2.717.065-.007.196.045.193.062a.55.55 0 0 1-.08.276c-.152.204-.357.374-.485.591a11 11 0 0 1-1.857 2.312c-.83.803-1.76 1.454-2.933 1.684-.321.063-.624.22-.93.35-.13.054-.243.141-.364.213.14.029.293.111.418.08.999-.26 2.032-.426 2.938-.964.317-.188.681-.348.91-.619.62-.731 1.174-1.52 1.766-2.277.25-.32.51-.635.797-.918.174-.172.413-.281.623-.42.183.365-.173.502-.306.737-.09.16-.138.343-.24.494q-.757 1.15-1.538 2.283a1 1 0 0 1-.325.297c-.474.267-.941.557-1.443.765-1.156.486-2.305 1.006-3.62.833-.56-.073-.912-.418-.884-.978.008-.182.055-.365.101-.543.53-2.07 1.865-3.471 3.716-4.414.489-.249 1.032-.416 1.567-.537.5-.112 1.098.166.997.211-.246.107-.537.114-.809.164q-.163.028-.322.083a9.24 9.24 0 0 0-3.679 2.404c-.248.265-.523.544-.445.97l-.016.004zm32.859-7.641q.045-.12.088-.24c.013.027.04.068.033.08-.042.052-.093.097-.14.146-.224.534-.606.93-1.117 1.176-.895.431-1.771.933-2.711 1.223-.937.288-1.935.518-2.928.098-.609-.257-1.212-.52-1.89-.585-.42-.039-.506-.377-.231-.731.36-.462.737-.911 1.107-1.367.148-.273.369-.428.687-.432l2.008-1.39a.6.6 0 0 0-.478.044c-.67.329-1.203.144-1.643-.42-.136-.174-.281-.343-.41-.52-.038-.053-.034-.136-.047-.203.059-.005.135-.035.178-.011.365.199.678.53 1.154.422-.32-.24-.66-.454-.95-.726-.23-.22-.395-.51-.587-.768.29-.205.555-.51.878-.596.969-.254 1.956-.27 2.955-.095.897.156 1.631.443 1.858 1.438.015.067.08.123.11.19.125.292.244.583.367.876-.33 0-.658.01-.987-.004-.145-.005-.289-.084-.433-.081-.289.002-.581.031-.87.066-.05.007-.109.092-.128.153-.008.024.078.113.124.114.295.015.594-.02.885.022.864.13 1.784.135 2.412.903l.086.106c.256.162.488.333.266.684-.075.121-.155.246-.193.38-.02.072.046.168.074.253q.139-.068.281-.131.094-.04.194-.074zm74.879 44.174c.59-.216.757-.77.955-1.269.45-1.127.951-2.242 1.039-3.48.012-.18.088-.357.148-.532.018-.054.08-.092.122-.14.039.055.108.11.109.167 0 .36.105.786-.048 1.068-.269.496-.276.992-.238 1.5.052.748-.226 1.367-.648 1.944-.153.207-.399.37-.483.599-.322.858-1.088 1.157-1.81 1.508-.126.062-.336-.049-.505-.08-.288.02-.576.034-.862.063-.292.031-.421-.12-.395-.38.07-.736.121-1.476.258-2.2s.274-1.476.58-2.136c.514-1.107 1.26-2.072 2.136-2.937.376-.37.713-.63 1.258-.43.069.025.184-.072.277-.114-.068-.118-.109-.311-.206-.346a2.02 2.02 0 0 0-1.806.202c-.94.59-1.85 1.218-2.359 2.273-.109.224-.362.375-.492.592-.316.53-.819.416-1.288.406-.079-.002-.208-.105-.224-.18-.259-1.218-.713-2.37-.647-3.686.098-1.964 1.081-3.278 2.553-4.366.056-.041.132-.056.197-.084.006.093.049.207.009.271-.407.662-.843 1.306-1.237 1.974-.184.313-.384.655-.427 1.004a32 32 0 0 0-.233 3.097c-.011.464.161.933.263 1.398.01.045.12.103.174.095.048-.008.117-.103.114-.155-.021-.515-.064-1.029-.088-1.542-.047-1.084.033-2.157.493-3.152.263-.568.613-1.095.927-1.638.523-.905.519-.899 1.032-.047.151.251.321.503.529.704.627.61.637 1.272.238 1.994-.109.193-.232.378-.321.58-.027.06.034.161.055.244.064-.027.156-.036.19-.085.185-.274.357-.556.53-.838.096-.157.159-.35.292-.46.07-.059.354-.005.377.059.096.252.038.644.2.765.19.14.41-.405.764-.2.124.072.279.091.42.137.813.262 1.639.423 2.503.412.862-.011 1.117.296 1.021 1.145-.056.515-.13 1.026-.199 1.539-.064.495-.064.492-.635.408-.292-.044-.586-.066-.88-.099-.717-.079-.724-.087-.89-.746-.082-.322-.143-.654-.269-.959-.056-.136-.251-.31-.376-.305-.247.01-.525.089-.541.434-.002.073.004.148.002.221-.032 1.822-.635 3.473-1.482 5.056-.115.212-.12.484-.176.729zm4.73 30.992c-.733-3.569-1.42-7.055-2.173-10.529-.636-2.932-1.536-5.789-2.582-8.601-.346-.932-.573-1.911-.952-2.829-.803-1.944-1.124-3.978-1.269-6.055-.007-.11-.027-.249.029-.326.093-.134.226-.307.364-.329 1.1-.168 1.946-.816 2.754-1.494.488-.409.863-.952 1.289-1.433q.396.915.794 1.826c.06.136.15.258.205.395.082.212.009.371-.219.402-.256.036-.518.022-.774.053-1.091.137-1.494.513-1.636 1.602-.042.321-.001.668.076.985.128.538.293 1.073.483 1.594.463 1.267 1.033 2.458 2.349 3.079a.8.8 0 0 1 .249.217c.043.051.075.14.061.2-.009.04-.112.093-.163.084-.327-.058-.648-.155-.975-.195-.842-.104-1.408.32-1.613 1.148-.274 1.107.082 2.178.164 3.263.006.07.051.14.081.205.922 1.995 2.335 3.49 4.402 4.307.333.131.822.138.981.374.164.246.019.701.002 1.066-.037.81.092 1.615-.083 2.429-.258 1.192-.42 2.403-.644 3.603-.31 1.67-.608 3.346-1.198 4.957zm3.602-23.546q-.041.002-.079.006.038.377.081.755c.038.367.094.733.114 1.1.018.35-.045.65-.475.753-.478.115-1.041.057-1.058-.266-.029-.55-.359-.426-.648-.52-.31-.1-.621-.232-.893-.408-1.963-1.27-3.146-3.077-3.616-5.358-.041-.197-.032-.552.065-.6.196-.095.508-.108.705-.015.765.363 1.512.765 2.253 1.18 1.045.582 1.594 1.608 2.179 2.579.339.565.555 1.21.782 1.834.095.26.086.559.115.842.013.125.006.253.008.38.112-.116.311-.227.319-.351.02-.25-.046-.51-.109-.76-.42-1.67-1.081-3.222-2.285-4.496-.077-.08-.079-.234-.116-.354.136.024.285.02.406.077.165.077.331.18.456.31.807.835 1.357 1.834 1.802 2.898.049.118.001.276-.003.416zm.477-2.847c.053-.44.056-.895.166-1.321.297-1.14.588-2.288.987-3.395.237-.657.716-1.202 1.348-1.57.395-.23.629-.242.801.15.232.532.48 1.118.477 1.68-.014 2.345-.715 4.501-2.017 6.45-.153.23-.416.405-.661.549-.338.197-.549.122-.681-.26-.252-.735-.481-1.482-.424-2.283zm-6.912 5.717c.063-.037.185-.176.301-.17.511.027 1.034.036 1.525.164.846.22 1.431.878 2.116 1.375 1.409 1.026 1.624 2.56 1.871 4.093.014.085-.176.295-.213.28-.255-.088-.347.005-.311.24.038.251.166.5.156.744a1.67 1.67 0 0 1-.231.793c-.046.073-.4.007-.582-.07a3 3 0 0 1-.752-.453 34 34 0 0 1-1.727-1.56 2.8 2.8 0 0 1-.57-.803c-.446-.97-.895-1.941-1.263-2.939-.188-.51-.21-1.082-.32-1.696zM75.621 4.112c.232-.083.449-.239.555-.182.647.333 1.239.797 1.91 1.053.44.169.817.382 1.075.722.773 1.024 1.582 2.023 1.975 3.295.233.748.653 1.437.954 2.166.127.307.488.565.265.973-.214-.184-.415-.387-.647-.546-.143-.1-.342-.115-.495-.205-.663-.385-1.353-.734-1.969-1.184-1.24-.908-2.135-2.142-2.822-3.49-.39-.764-.523-1.662-.8-2.6zm4.422 20.366c.196.041.49.064.752.168.543.22 1.052.524 1.601.716.984.345 1.9.825 2.711 1.46.78.608 1.483 1.317 2.206 2 .082.079.083.265.08.4 0 .028-.192.09-.284.073-.467-.09-.944-.164-1.394-.315-.808-.27-1.603-.515-2.477-.342-.314.061-.715.086-.972-.061-.857-.488-1.754-.952-2.334-1.807a52 52 0 0 1-.904-1.39c-.13-.205-.23-.426-.345-.64.277-.093.547-.2.829-.272.137-.035.291.002.529.008zm6.1-13.56c.078.856-.229 1.72-.676 2.539-.207.378-.523.384-.787.055-.091-.114-.155-.25-.228-.378-.682-1.168-.978-2.448-1.18-3.772-.156-1.008.08-1.974.2-2.95.038-.316.195-.631.355-.915.377-.667.452-.674.784-.021.37.72.779 1.44 1 2.21.288 1.015.704 2.03.53 3.232zm6.147 5.729c-.057.841-.098 1.793-.2 2.737-.028.262-.239.505-.365.755-.18-.172-.385-.325-.532-.52a3.8 3.8 0 0 1-.433-.758c-.232-.544-.37-1.138-.66-1.645-.584-1.017-.651-2.09-.545-3.21.024-.253.107-.547.015-.755-.196-.44.03-.817.136-1.173.132-.439.452-.819.69-1.224.257.381.53.755.769 1.147.211.347.434.696.574 1.076.203.548.39 1.116.48 1.69.09.58.052 1.18.073 1.882zm-58.03-1.03c-.37-.008-.74-.002-1.107-.032-.25-.02-.395-.177-.382-.448.041-.968.823-1.878 1.73-1.829.947.05 1.713-.405 2.542-.69.247-.085.425-.379.631-.58.316-.31.58-.737.958-.899.416-.178.802-.289 1.01-.735.047-.099.262-.197.369-.171.377.095.74.243 1.111.373-.207.252-.413.508-.626.754-.36.42-.66.934-1.101 1.23-1.039.691-2.142 1.28-3.226 1.898-.389.223-.802.33-1.272.29-.436-.038-.884.037-1.324.076-.048.004-.117.093-.122.147-.005.055.053.166.091.169.402.03.823.128 1.203.041.934-.21 1.848-.514 2.774-.77a6.4 6.4 0 0 1 .967-.197c.115-.012.242.097.364.15-.079.07-.144.163-.236.21a8.07 8.07 0 0 1-4.349 1.012zm47.135-1.133c-2.077.006-3.628-.973-4.99-2.351q-.322-.325.111-.478a3.4 3.4 0 0 1 2.264-.032c1.105.373 2.163.895 3.37.92.835.016 1.251.695 1.741 1.233.12.13.084.333-.092.338-.836.023-1.574.704-2.402.368zm16.919 22.348c.023.546-.381.847-.601 1.212-.144.238-.401.184-.56-.005a4 4 0 0 1-.477-.74c-.428-.822-.648-1.703-.81-2.621-.228-1.277.002-2.477.363-3.678.042-.141.105-.276.173-.407.135-.257.28-.248.495-.022.71.753.959 1.72 1.275 2.66.109.324.076.477-.28.537-.404.069-.392.278-.265.64.275.793.464 1.615.687 2.424m-28.679-13.2c-.404-.01-.808-.034-1.21-.025-.263.005-.31-.115-.275-.335.038-.255.037-.522.118-.76.052-.156.228-.4.334-.389.657.055 1.055-.47 1.597-.659.692-.242 1.346-.596 2.11-.612 1.188-.026 1.19-.04 1.56 1.072.047.14.076.292.15.415.207.347.102.515-.266.65-1.332.49-2.694.772-4.118.646zm50.404 20.372q-.04-.01-.078-.023c.305-1.096.602-2.195.922-3.285.049-.164.183-.32.312-.442.179-.164.419-.21.579.009.237.325.51.658.623 1.033.268.877.456 1.778.664 2.672a.9.9 0 0 1-.001.44c-.095.341-.224.674-.338 1.01-.285-.154-.585-.282-.852-.462-.56-.375-.549-.38-1.036-.033-.193.137-.407.243-.611.363-.065-.244-.151-.484-.19-.733-.029-.177.003-.364.007-.547zm-9.61 12.59c.026.135.061.245.059.353-.003.096-.047.19-.073.286-.078-.075-.165-.142-.236-.224a1.5 1.5 0 0 1-.188-.274q-1.457-2.682-2.903-5.368c-.103-.193-.256-.427-.217-.605.034-.156.32-.245.466-.393.257-.259.486-.545.74-.807.093-.098.28-.253.316-.227.136.098.299.246.322.394.07.474-.006.983.133 1.43.457 1.486.97 2.956 1.49 4.423.123.35.314.666.091 1.014zM99.088 20.195c.01-.407.015-.814.036-1.218.004-.083.08-.161.123-.243.052.046.12.08.154.134.59 1 .566 2.136.594 3.23.016.597-.31 1.202-.459 1.807-.243.996-.928 1.651-1.698 2.24-.07.055-.2.028-.301.04-.008-.1-.047-.213-.014-.297a7 7 0 0 1 .372-.805c.862-1.516 1.175-3.17 1.191-4.888zm4.984 28.46c-.843-1.08-.884-2.426-1.159-3.698-.029-.131.031-.295.088-.428.429-1.016.787-2.083 1.775-2.734.247-.163.286-.646.742-.487-.103.265-.196.533-.311.791-.935 2.08-1.58 4.205-1.135 6.558zm-8.277-27.184q.072.013.143.029c-.108.494-.21.99-.332 1.483-.02.088-.126.156-.191.232-.06-.075-.14-.138-.175-.224-.12-.304-.226-.612-.335-.92-.06-.169-.183-.348-.16-.507.165-1.16.233-2.358 1.12-3.267.114-.117.267-.195.404-.292-.006.137-.002.275-.02.409q-.223 1.53-.45 3.059zm-42.976-.84c-.61-.185-1.385-.417-2.155-.66-.055-.016-.087-.107-.13-.164.056-.023.113-.062.173-.066.109-.007.222 0 .333.01.804.081 1.597.255 2.421.081 1.083-.23 2.18-.399 3.272-.58.135-.022.28.035.422.056-.095.136-.161.322-.294.398-1.193.684-2.539.72-4.04.924zm69.177 45.97-.261 1.327c-.159-.317-.284-.66-.486-.947-.317-.448-.66-.885-1.043-1.276-.279-.286-.641-.487-.959-.734-.049-.038-.06-.125-.089-.187.058-.022.12-.07.176-.063.324.043.646.106.973.145.529.061 1.241-.215 1.537.23.26.395.121 1.054.154 1.506zm-53.08-42.628a6.34 6.34 0 0 0 3.07-.116q1.057-.304 2.111-.614c.296-.087.514-.008.61.292.084.265-.079.391-.302.497-.804.382-1.622.663-2.537.636-1.036-.028-2.047-.11-2.952-.697zm41.416 29.383.094-.013c.077-.722.139-1.444.241-2.162.03-.208.158-.414.28-.598.261-.396.544-.777.818-1.164.288-.41.823-.723.793-.604-.068.273-.222.528-.351.784a5 5 0 0 1-.327.576c-.445.65-.759 1.34-.823 2.14-.064.806-.159 1.612-.244 2.418-.005.054-.064.103-.098.154-.052-.044-.145-.079-.154-.13-.084-.464-.153-.932-.226-1.4zM75.634 6.85l.055-.28c.073.06.17.107.213.185.97 1.735 2.126 3.296 3.931 4.257.032.016.07.038.085.07.03.058.05.122.076.184-.068.015-.157.065-.2.039-.824-.487-1.728-.884-2.44-1.503-.865-.753-1.453-1.758-1.72-2.954zm-1.957.727c-1.227.085-2.322.198-3.353.662-.323.146-.683.215-1.027.32.007-.495.52-.411.767-.641.31-.288.747-.514 1.163-.597.791-.161 1.606-.277 2.41-.265.535.008 1.067.265 1.592.433.064.021.083.183.123.28-.09.026-.186.09-.27.076-.507-.086-1.013-.19-1.407-.266zm45.766 56.454c-.099-.037-.211-.061-.302-.117-.592-.37-1.153-.805-1.775-1.112-1.21-.597-1.681-1.695-2.088-2.856-.033-.09.01-.209.019-.316.077.058.178.099.225.173.992 1.586 2.282 2.88 3.831 3.918q.092.06.167.139c.02.021.027.073.014.102s-.054.043-.091.07zm8.503 6.012c.014.035.044.072.037.103q-.087.433-.182.865c-.471 2.135-1.939 3.316-3.87 4.05-.058.021-.134-.006-.201-.011.017-.06.021-.129.057-.174.045-.054.113-.093.177-.13 1.84-1.093 3.259-2.54 3.909-4.64.008-.026.047-.042.073-.065zM78.942 4.721c.321.176.662.327.96.54.36.257.69.555 1.015.855.547.503.72 1.187.844 1.883.022.128-.07.273-.108.41-.105-.075-.254-.129-.31-.232-.675-1.24-1.536-2.337-2.403-3.455zm23.128 29.706c.056-.033.117-.099.169-.094.286.038.605.025.848.154 1.252.657 1.904 1.798 2.365 3.077.02.054-.032.134-.051.203-.057-.035-.131-.054-.168-.103-.33-.436-.575-.988-.999-1.292-.741-.533-1.168-1.423-2.058-1.77-.051-.02-.071-.115-.106-.175m26.539 29.968c.06-.002.119-.013.125-.003.027.066.069.144.056.205-.224.972-.663 1.846-1.203 2.676-.183.281-.451.353-.756.348-.069-.002-.155-.012-.201-.055-.029-.026-.012-.133.018-.182q.88-1.384 1.771-2.761c.058-.09.135-.162.192-.23zm-22.268-11.65c-.042-.02-.078-.031-.11-.05-.991-.543-1.62-1.373-1.932-2.45-.018-.06-.008-.129-.012-.192.064.013.147.004.192.041.838.68 1.287 1.66 1.921 2.496.017.022-.039.101-.061.154zM81.943 24.641q.06-.075.122-.148c.758.28 1.55.495 2.267.859.68.345 1.408.68 1.843 1.378.039.062.068.128.102.195-.095-.02-.204-.015-.28-.063-.217-.142-.406-.325-.626-.455-.633-.371-1.268-.74-1.918-1.077-.49-.254-1.004-.46-1.506-.687zm.145-15.84c.036-.158.036-.28.09-.368.067-.11.18-.19.275-.283.06.082.159.156.18.246q.231 1.02.433 2.047c.055.283.064.575.094.864-.437-.091-.328-.519-.462-.79-.193-.392-.303-.825-.448-1.241l-.162-.477zm43.344 53.847c.042.01.099.022.099.03-.002.06.006.144-.03.183-.483.545-.96 1.096-1.469 1.617-.173.178-.419.289-.645.404-.062.032-.183-.018-.258-.064-.027-.016-.014-.154.024-.203.567-.713 1.176-1.384 1.994-1.826.095-.051.194-.097.283-.143zm-54.8-42.71c.178.043.293.051.39.1.16.082.307.19.46.286-.144.09-.277.204-.432.265-.441.172-.89.328-1.338.48-.212.071-.432.123-.648.183.12-.18.218-.378.366-.534.2-.212.42-.414.661-.573.174-.115.397-.153.54-.206zm-36.428-15.5c1.031-.17 1.942.19 2.855.545a.34.34 0 0 1 .155.148c.031.055.052.142.03.191-.025.053-.11.12-.162.115-.214-.022-.438-.042-.637-.116-.742-.28-1.477-.58-2.241-.883M79.71 27.43c.056-.017.132-.067.163-.047.64.425 1.28.853 1.908 1.297.056.04.064.186.05.278-.006.048-.105.093-.17.117-.069.023-.163.047-.214.017-.666-.402-1.258-.887-1.688-1.55-.02-.032-.03-.067-.049-.11zM60.087 14.36c.287.093.536.164.775.259.032.012.045.199.026.206-.578.245-1.158.476-1.74.707-.028.011-.09.006-.094-.006-.022-.064-.061-.159-.034-.197.22-.296.439-.594.69-.86.085-.088.267-.082.379-.111zm-10.8-4.39c.66-.028 1.07-.06 1.315.353.051.088.09.216.065.305-.02.069-.15.148-.232.15a1.8 1.8 0 0 1-1.29-.46c-.042-.038-.065-.134-.05-.191a.24.24 0 0 1 .138-.143c.1-.032.21-.03.056-.012zm69.918 35.112.046-.214c.094.081.251.15.268.245.076.415.488.77.231 1.242-.05.093-.132.168-.199.249-.066-.075-.175-.143-.188-.226-.063-.395-.101-.793-.16-1.294zM86.583 21.25c-.677-.054-1.218-.092-1.757-.144-.051-.005-.122-.088-.132-.142-.009-.042.063-.144.101-.145.577-.018 1.169-.092 1.788.432zm20.237 19.676c.051-.037.111-.113.149-.102.243.06.711.824.651 1.065-.01.042-.111.102-.147.09-.356-.124-.709-.707-.653-1.053m-6.284-10.452c-.005.015-.028.118-.052.22-.079-.062-.185-.11-.235-.19-.171-.284-.367-.573-.203-.93a.3.3 0 0 1 .142-.15c.033-.012.133.05.143.092.07.288.124.577.203.958zm3.356 10.817c.087-.136.154-.363.298-.43.161-.077.391-.012.59-.001.013 0 .042.085.032.09q-.365.277-.743.535c-.008.006-.081-.086-.179-.192zm-37.14-25.395q-.513-.172-1.024-.35c-.024-.008-.035-.054-.051-.084.066-.027.128-.071.195-.08a1.02 1.02 0 0 1 .891.315c.041.041.053.112.078.17q-.045.017-.09.031zm24.892 4.882c.09-.107.128-.15.163-.194.22.236.44.47.655.71.004.004-.102.114-.102.114-.242-.207-.48-.42-.716-.63m-6.305-5.18c-.097-.022-.212-.028-.31-.075-.118-.055-.22-.142-.327-.213.144-.012.288-.03.432-.03.07 0 .15.017.207.055.081.056.143.138.212.209q-.1.024-.214.054m34.745 65.233q.038-.013.076-.025c-.012.176-.004.359-.044.529-.051.206-.146.401-.222.601.027-.23.046-.46.082-.69.023-.14.07-.276.108-.415m-1.972 18.753h-.044l.023-.949.044.001zM15.398 18.421l-.28-.255c.108-.072.217-.202.322-.2.103.003.203.142.303.22l-.345.233zm72.444 2.675c.083-.103.122-.192.16-.193.17-.002.343.022.513.035-.082.056-.157.143-.246.161-.123.026-.257.002-.429-.003zm-14.516-1.038.217.276c-.056.03-.142.102-.165.086-.107-.076-.197-.176-.292-.267l.24-.094zm43.543 90.197c.08.119.129.16.129.201.004.1-.016.203-.026.302-.038-.008-.109-.014-.111-.024-.004-.132.001-.265.006-.479zM50.266 17.658l.147-.12c.01.049.045.12.027.14-.04.039-.107.05-.163.072q-.004-.045-.011-.094zm-17.272-4.33c.076-.042.15-.102.231-.119.027-.005.118.132.11.14-.067.07-.15.128-.225.19zm89.09 46.04.106-.189c.027.063.072.121.076.185.004.065-.03.133-.047.2-.048-.068-.094-.139-.135-.197zm-21.017-26.377.002-.092c.044.016.093.027.131.053.015.01.006.056.008.084q-.071-.022-.143-.045zm21.995 36.817c.016-.026.026-.064.052-.08.019-.01.053.01.082.016-.018.027-.031.061-.056.076-.017.01-.051-.007-.078-.014zm-6.873 6.648q.017-.045.035-.088c.01.03.029.06.028.09-.001.028-.021.058-.031.087l-.03-.09zm4.619 1.228.048-.085c.024.047.056.094.068.144.005.023-.029.057-.045.085q-.035-.071-.069-.144zM68.124 16.13c.026.018.076.046.074.05-.02.045-.05.085-.078.127-.017-.032-.045-.061-.044-.092 0-.029.032-.058.048-.087zm48.518 62.426.023.095-.1.015c.003-.033 0-.067.012-.098.004-.011.042-.008.065-.012m1.087 6.852q.022-.046.04-.094l-.004.189-.038-.095zm-11.262-45.372.05-.178c.061.03.147.048.17.099.022.043-.026.122-.042.185l-.178-.104zm10.989 67.654-.028-.014.015-.059zm-1.092 5.786.002-.079c.026.02.064.034.077.059.009.02-.017.054-.027.082zm.718-67.542c-.012.022-.022.063-.034.064-.061.004-.123-.003-.184-.006.015-.038.034-.109.045-.107.059.007.116.032.175.05zm-10.99-11.395q.028-.039.056-.078c.026.045.061.088.075.136.005.02-.034.053-.054.08l-.079-.139zm9.937 41.183-.044-.084.065-.011zm.359 2.129.05-.003-.023.067zM88.933 12.807c.007.03.022.056.021.085 0 .01-.038.019-.058.026-.007-.027-.02-.056-.017-.083 0-.012.035-.019.054-.028m20.933 39.789.038-.091q.01.083.017.167l-.057-.076z"/><path d="M81.109 63.655c.573.214 1.187.633 1.598.987.441.377.917.716 1.39 1.054.886.635 1.783 1.256 2.676 1.881l-.016.019c.054-.506-.374-.699-.663-.95-.528-.46-1.108-.865-1.66-1.299a5 5 0 0 1-.486-.452c-.035-.037-.05-.154-.022-.18.045-.042.143-.07.2-.05.275.105.557.203.812.347 2.473 1.41 4.91 2.88 7.255 4.491 1.062.731 2.013 1.627 3.084 2.345.838.564 1.38 1.413 2.172 2.007.262.196.53.387.769.612 1.117 1.069 2.222 2.148 3.336 3.22.29.279.591.545.887.816l.12-.105c-.266-.392-.483-.828-.805-1.168-1.114-1.186-2.218-2.386-3.415-3.487-1.107-1.019-2.324-1.92-3.5-2.862-.693-.555-1.373-1.13-2.113-1.618-1.233-.81-2.508-1.554-3.765-2.327-.913-.56-1.809-1.154-2.748-1.668a29 29 0 0 0-2.598-1.235c-1.357-.578-2.733-1.115-4.103-1.66a2.7 2.7 0 0 0-.64-.152c-.032-.005-.144.188-.12.235.065.127.174.239.288.328q1.407 1.072 2.829 2.127c.08.06.207.06.312.088l-.016.015-1.04-1.37-.1-.023.084.036zM103.172 97.799c-.255-.888-.989-1.457-1.464-2.2-.498-.776-1.078-1.497-1.605-2.253-.951-1.364-1.912-2.72-2.824-4.11-.686-1.046-1.355-2.111-1.937-3.219-.842-1.6-1.598-3.246-2.381-4.878-.095-.197-.124-.424-.19-.633-.076-.246-.087-.563-.25-.72-.615-.602-.81-1.398-1.107-2.148-.767-1.931-1.795-3.728-2.9-5.476-.73-1.154-1.56-2.247-2.349-3.365-.107-.15-.214-.308-.355-.425-.163-.135-.364-.226-.547-.336-.2.338.132.464.285.617 1.251 1.245 2.05 2.809 3.002 4.261.999 1.52 1.623 3.232 2.447 4.84 1.297 2.53 2.15 5.263 3.547 7.742a61 61 0 0 0 2.354 3.888 216 216 0 0 0 4.232 6.108c.598.836 1.305 1.593 1.964 2.387l.082-.078zM97.146 151.14q-1.333 1.322-2.666 2.649c-1.175 1.167-2.325 2.359-3.53 3.497-.934.883-1.935 1.695-2.905 2.539l-.02-.01q.091.035.184.072l-.19.173.023-.018-.25.237.016-.005c-.382.344-.738.723-1.148 1.028-1.687 1.256-3.39 2.49-5.086 3.737-.057.042-.093.112-.14.169q.038.044.076.09c.266-.126.544-.228.791-.383a50 50 0 0 0 6.889-5.194c2.195-1.971 4.272-4.074 6.4-6.12.106-.103.216-.202.312-.313.901-1.02 1.778-2.064 2.705-3.059.605-.649 1.033-1.406 1.506-2.14l-1.15.888.019-.021-.253.241.027-.026-.253.242.025-.025-.253.24.028-.017-.255-.006.019.012q-.224.325-.45.649l-.02-.012c.172.087.124.17-.006.25l.02-.021-.248.236.017-.009-.248.443.012-.01zM108.76 94.855c-.423-1.633-1.261-3.079-2.122-4.496a115 115 0 0 0-3.628-5.578c-.84-1.214-1.806-2.34-2.716-3.505-.409-.525-.803-1.06-1.231-1.57-.157-.187-.388-.31-.585-.463l.016-.017c.457.709.862 1.46 1.384 2.12 2.023 2.558 4.028 5.127 5.718 7.923.956 1.583 1.787 3.243 2.685 4.863.14.252.33.473.496.708zM48.829 12.529c-.605.34-1.239.637-1.81 1.028-1.55 1.064-3.215 1.416-5.045.965-.393-.096-.793-.158-1.194-.223-.057-.01-.126.054-.19.083.04.05.075.134.123.141 1.08.179 2.083.676 3.237.57 1.924-.176 3.55-.875 4.805-2.367.041-.049.034-.14.05-.212l.022.014z"/><path d="M47.933 12.509c-.245.055-.532.046-.729.176-1.243.818-2.603 1.141-4.075 1.07a3.3 3.3 0 0 0-.658.028c-.09.015-.167.118-.252.181.07.058.134.16.21.167 1.563.127 3.096.064 4.43-.904.347-.25.874-.245 1.055-.732l.017.016zM47.092 8.713c-.298-.203-.571-.456-.893-.604-1.292-.589-2.487-1.296-3.379-2.438-.044-.057-.094-.13-.157-.152a.7.7 0 0 0-.289-.015c-.013 0-.04.147-.01.192.16.248.3.524.51.718 1.22 1.11 2.614 1.908 4.234 2.277l-.016.018zM103.297 98.113c.878 1.028 1.753 2.056 2.636 3.08.283.328.586.641.879.961l-.014.011c-.061-.243-.052-.541-.193-.721-.83-1.053-1.531-2.217-2.543-3.12-.175-.156-.442-.207-.667-.306q-.05.046-.098.093zM82.397 65.24c.52.897 1.341 1.532 2.012 2.298.063.072.195.083.294.124-.016-.127.011-.29-.058-.376-.48-.609-.983-1.2-1.476-1.8-.214-.26-.475-.33-.791-.23l.015-.015zM91.992 72.174c.642.692 1.264 1.405 1.932 2.07.407.406.884.742 1.33 1.11l-.015.016c-.174-.733-.844-1.058-1.29-1.563-.452-.512-.977-.961-1.49-1.418-.123-.108-.32-.134-.483-.198l.018-.015zM44.804 4.814l3.495 1.439-.016.015c-.618-.95-1.64-1.118-2.628-1.346-.282-.065-.579-.06-.867-.09zM111.474 101.19c.02-.97-.489-1.758-.884-2.586-.027-.058-.113-.09-.171-.133-.01.096-.059.208-.026.286.357.81.73 1.614 1.097 2.418zM91.973 72.19c-.19-.829-.747-1.311-1.5-1.612l.017-.02c.097.184.157.404.297.542.384.376.8.717 1.203 1.073l-.017.015zM95.488 75.581c.14.883.87 1.318 1.425 1.885l.117-.101c-.38-.712-.875-1.322-1.558-1.767l.018-.017zM48.805 12.511c.076-.073.2-.135.221-.221.078-.334.123-.677.18-1.017-.032.003-.076-.004-.095.013-.31.282-.44.632-.379 1.047.01.067.064.128.097.19l-.023-.014zM47.108 8.695c.285.35.697.326 1.085.357.086.006.179-.088.268-.135-.065-.067-.13-.19-.198-.193-.389-.02-.78-.01-1.17-.01z"/><path d="M96.91 77.467q.378.427.755.856c-.002-.46-.28-.735-.639-.957l-.117.1zM88.943 69.205c-.246-.434-.58-.767-1.063-.93l.014-.014c.137.56.55.803 1.067.928l-.018.018zM81.436 165.205c-.537.077-.875.418-1.137.858l.032.04c.49-.126.89-.387 1.179-.808q-.037-.044-.076-.09zM110.644 100.972c.016.068.021.143.054.199.034.057.096.095.145.14.022-.072.064-.144.062-.215a.4.4 0 0 0-.075-.194c-.03-.049-.084-.083-.128-.123q-.03.096-.06.191zM44.788 4.83c-.293-.102-.583-.207-.88-.297-.04-.013-.107.066-.162.101.037.055.071.154.11.155.315.017.632.016.948.02l-.016.018zM109.17 95.768c.069-.398-.106-.684-.41-.913l.017-.015.409.911zM109.053 136.973l-.451.65-.021-.014.245.006-.023.019.251-.24-.02.023q.007-.232.01-.465l.011.02zM48.213 12.106c.08-.072.189-.13.231-.22.055-.114.053-.254.077-.383-.105.067-.231.116-.308.208-.063.077-.068.202-.098.306z"/><path d="m88.962 69.184.172.245q.052-.056.103-.113l-.295-.113.018-.02zM40.354 12.533l.236.139.049-.165-.299.047.016-.021zM43.504 10.686c-.028-.017-.077-.05-.081-.043-.03.032-.048.074-.07.112.032 0 .07.01.1-.002.023-.008.035-.043.053-.066zM36.006 179.03c-.104-.006-.207-.022-.31-.017-.064.004-.127.039-.19.063.062.042.12.103.188.124.098.027.205.026.309.036l-.024.017q.003-.122.008-.242zM40.217 13.748l-.09-.032.005.074zM86.774 67.576l.45.211-.016.017-.45-.211.016-.019zM87.882 68.275q-.226-.108-.448-.217l.016-.015.446.219zM47.915 12.493q.15-.195.3-.387l-.098-.09q-.091.247-.183.492l-.017-.015zM66.444 17.627l.405.096q.037-.062.07-.125l-.471-.185.018-.023-.007.26-.017-.021zM77.385 24.58q-.236-.099-.471-.198l.015-.015.468.2-.014.013zM72.647 170.797q.227-.11.457-.22l.01.02-.471-.012.021-.017q-.003.123-.004.247zM72.192 171.006l.454-.21.013.018q-.236-.006-.472-.016l.028-.02-.007.248zM48.303 6.249l.033.055-.05-.04zM82.18 64.994q.108.121.215.244l-.015.015-.215-.244zM71.642 14.843l.03.045-.027-.036z"/><path d="m87.433 68.057-.226-.253.016-.017.228.255-.016.016zM90.472 70.58q-.015-.038-.034-.078.024.03.052.06zM95.469 75.599l-.234-.231.015-.015.237.229zM98.25 79.008l-.02-.048.038.032zM98.267 78.994l.227.232-.016.017-.228-.232zM109.187 95.753l.032.034-.047-.02zM103.089 97.88l.206.233q.05-.046.098-.093l-.223-.218-.083.08zM90.009 26.884l.226.243-.015.01-.225-.232zM109.973 136.095l-.224.219-.021-.015.242.006-.021.022.006-.246.02.014zM109.748 136.316l-.229.219-.02-.014.228-.221zM109.52 136.536l-.228.218-.021-.014.228-.218z"/><path d="M109.292 136.751q-.12.113-.239.223l-.013-.019q.115-.109.232-.218zM108.602 137.622l-.23.216-.021-.014q.123.002.246.008l-.022.021.006-.245z"/><path d="M108.372 137.839q-.112.109-.226.218l-.019-.014.24.006-.02.02.005-.246.02.014z"/><path d="m108.147 138.054-.242.231-.013-.02.236-.227.019.014zM97.621 150.263l-.233.217-.018-.008q.124.004.248.01l-.02.021.006-.25.021.012z"/><path d="m97.388 150.48-.004.229-.017.009q.002-.124.002-.246l.017.008zM97.136 151.146l-.03-.058.04.047zM88.045 159.825l-.234.216-.015-.006q.125.002.246.008l-.024.018.006-.246z"/><path d="m87.812 160.038-.004.235-.015.005q.003-.123.004-.248l.015.006zM112.625 55.318c.586-.158 1.064-.43 1.16-1.108-.475.277-.951.55-1.16 1.108M32.745 12.143c.444-.074 1.101-.153 1.747-.295.716-.159 1.423-.368 2.129-.569.174-.05.344-.137.498-.233.436-.274.666-.72.514-.711-.268.014-.542.136-.794.254-1.41.664-2.86 1.18-4.44 1.23-.221.008-.44.045-.66.072-.032.005-.06.037-.09.055.034.04.065.111.103.114.256.03.515.046.993.083M31.764 9.404l-.683.432c.128.1.335.306.369.282.603-.458 1.333-.37 2.009-.505.612-.121 1.214-.293 1.818-.452.052-.014.08-.114.119-.174-.057-.036-.12-.109-.17-.1-.8.12-1.607.211-2.391.395-.363.085-.696.233-1.073.122zM38.176 8.836c-.575-.047-1.15-.096-1.729-.132-.05-.001-.105.084-.158.13.045.048.083.126.135.135.534.105 1.067.21 1.606.282.063.007.152-.2.232-.31q-.044-.053-.086-.105M63.43 13.566c.25.396.647.532 1.077.604.017.003.068-.067.065-.075-.277-.37-.664-.527-1.107-.569l-.034.038zM64.226 10.199c-.144-.302-.354-.49-.716-.41l.018-.02.623.499z"/><path d="m63.465 13.527-.146-.144q-.046.058-.092.117l.204.066.034-.038zM64.4 10.454q-.088-.128-.174-.256l-.075.07q.132.083.263.17l-.016.014zM65.522 11.148l-.083.035.066-.055.017.018zM65.704 11.829q-.009-.05-.022-.1l.04.083-.02.017zM80.906 17.532c.13-.037.263-.062.385-.117.05-.024.074-.108.108-.165-.086-.01-.206-.06-.25-.023-.099.082-.158.21-.231.317z"/><path d="m80.919 17.544-.242.233-.017-.018.247-.229.012.012zM6.04 17.695l-.046.017.031-.016zM97.21 40.018c-.1-.15-.163-.374-.301-.437-1.307-.603-2.624-1.19-4.125-1-.06.008-.115.046-.134.053.859.223 1.754.427 2.629.695.523.159 1.012.423 1.525.624.129.049.28.033.424.048l-.016.017z"/><path d="m97.225 40.004.454.211-.018.017-.454-.211.016-.017z"/><path d="M97.885 40.489q-.113-.13-.222-.26l.017-.016q.112.13.222.26l-.016.016zM120.58 69.299c.01-.085.055-.185.024-.253-.278-.6-.529-1.217-.864-1.784-.57-.967-1.326-1.762-2.348-2.267-.163-.08-.329-.166-.504-.205-.134-.028-.282.014-.424.024.07.108.118.238.21.32.841.768 1.733 1.488 2.522 2.306.448.464.737 1.086 1.093 1.64.059.092.095.2.142.301q.074-.042.15-.084zM19.82 15.81l.252-.24q-.128.12-.252.24M120.592 56.834l-.137-.08c.019.014.038.031.059.04.028.012.059.018.088.027l-.012.013zM120.354 57.287q-.23-.108-.461-.212l.016-.017.465.212-.018.017zM119.718 56.361l-.006.252c.025-.057.057-.11.068-.17.004-.022-.039-.054-.06-.082z"/><path d="m120.372 57.268.031.08-.049-.063zM87.021 30.395c-1.451-.822-3.004-.874-4.597-.602-.315.053-.544.224-.632.543-.017.06-.01.153.028.2.031.041.132.069.18.049 1.248-.541 2.548-.215 3.827-.237.404-.008.808.02 1.212.03l-.016.015z"/><path d="m87.038 30.377.038.056-.053-.041zM23.621 7.199c-.119.24-.219.641.163.526.929-.278 1.823-.158 2.735-.036a1 1 0 0 0 .33-.009c.054-.012.127-.087.132-.137.005-.059-.048-.174-.088-.178-.431-.067-.864-.149-1.299-.161-.662-.023-1.327.007-1.992.013l.021-.016zM52.177 10.58c.188.531.597.714 1.12.714-.344-.285-.611-.69-1.12-.713M55.119 8.674l-.017-.074.035.059-.018.017zM93.404 33.679c.018-.342-.116-.585-.446-.703q.224.35.446.703M67.726 2.508l.135.132q-.076-.058-.151-.111l.015-.02zM71.17 6.376q.12.128.24.252zM113.801 43.74q.12.127.24.252-.12-.128-.24-.252M102.808 38.808l1.092.48-.018.013c-.201-.53-.675-.437-1.09-.476l.018-.017z"/><path d="m103.899 39.287.132.05-.149-.039.017-.013zM117.15 35.16q-.12-.128-.24-.252.12.127.24.252"/><path d="M117.368 35.39q-.12-.128-.239-.252.12.128.239.252M41.315 9.22c-.765-.677-1.667-1.093-2.627-1.403l.018-.02c.666.857 1.592 1.23 2.622 1.407z"/><path d="M41.328 9.206c.083.05.162.104.247.149.015.008.053-.022.078-.033q-.17-.05-.34-.1zM42.449 9.374l.003-.05-.066.023zM58.005 17.634l-.006.244q.126-.12.252-.238zM68.661 9.212l-.228.22-.011.466c.41-.048.376-.414.48-.68zM106.096 49.81q.127-.12.251-.24-.127.12-.251.24M102.24 43.923l.251-.24z"/></g><defs><clipPath id="a"><path fill="#fff" d="M171.058 4.144 4.474 0 0 179.863l166.584 4.143z"/></clipPath></defs></svg>