<svg xmlns="http://www.w3.org/2000/svg" width="48" height="62" fill="none"><g fill="#6A5349" clip-path="url(#a)"><path d="M43.407 56.64c-2.376-1.262-5.256-2.294-7.571-3.123-1.667-.598-3.242-1.161-3.651-1.493a1 1 0 0 0-.083-.056c-.082-.045-2.02-1.135-2.291-4.369a24 24 0 0 1-.052-2.22q.054-.27.072-.606c.017-.292.01-.665-.021-1.073.046-1.055.108-1.958.136-2.335l.223-.175c-.053.59-.085 1.349-.033 2.2.157 2.623 1.03 4.885 2.526 6.545 2.359 2.618 6.072 3.912 8.951 3.985.426.465 1.085.837 2.097 1.108a.529.529 0 0 0 .648-.37.524.524 0 0 0-.373-.642 6 6 0 0 1-.677-.216c.694-.131 1.414-.403 1.747-.953a.52.52 0 0 0-.18-.718.53.53 0 0 0-.725.18c-.125.205-.653.451-1.553.535a7 7 0 0 1-.449.027c-.27-.554-.256-1.33-.232-2.5.025-1.298.057-2.915-.341-4.994-.498-2.594-2.317-4.63-5.263-5.889a15.7 15.7 0 0 0-3.437-1.002q.11-.133.214-.267a1 1 0 0 0 .093-.014c2.938-.715 5.212-2.074 6.794-4.05q.71.544 1.54 1.008a.53.53 0 0 0 .719-.2.52.52 0 0 0-.202-.713 11.5 11.5 0 0 1-1.44-.95q.485-.75.858-1.599c1.283-2.935 1.499-6.786.626-11.137-.67-3.33-2.007-6.973-3.58-9.744C34.914 4.51 29.057.47 26.378.091c-4.67-.66-8.069 2.473-8.21 2.606a.52.52 0 0 0-.021.74c.2.209.534.218.746.02.032-.028 3.182-2.917 7.336-2.33 1.274.181 3.311 1.336 5.317 3.014 2.39 2 4.532 4.554 6.03 7.194 1.521 2.679 2.816 6.206 3.464 9.434.831 4.142.638 7.778-.559 10.517q-.306.7-.7 1.326a12 12 0 0 1-1.093-1.165c.27-.54.481-1.52.518-2.43s-.082-2.11-.862-2.662c-.529-.374-1.003-.378-1.308-.316a2 2 0 0 0-.198.056c.072-.572.134-1.094.187-1.53.063-.517.112-.925.14-1.112a.524.524 0 0 0-.45-.592.527.527 0 0 0-.597.444c-.029.199-.076.592-.142 1.136-.055.456-.125 1.038-.207 1.693a70 70 0 0 1-1.073-3.068c-.481-1.45-.936-2.819-1.495-4.052-2.992-6.595-6.593-8.4-9.086-8.753-3.155-.446-4.8 1.605-4.87 1.693a.52.52 0 0 0 .093.732c.228.178.56.137.74-.088.004-.004.346-.426.997-.794.859-.486 1.832-.655 2.89-.506 2.231.316 5.478 1.985 8.273 8.146.536 1.183.983 2.528 1.455 3.95.524 1.578 1.074 3.233 1.802 4.828-.292 2.106-.656 4.349-1.017 5.467-.659 2.043-2.728 5.065-5.469 7.07a1.46 1.46 0 0 0-.464-.46 1.4 1.4 0 0 0-.631-.184c.015-.608-.052-1.44-.473-1.859-.52-.515-1.381-.022-2.602.941-.811.64-1.55 1.326-1.58 1.355a.52.52 0 0 0-.025.74.53.53 0 0 0 .747.024c1.202-1.116 2.315-1.945 2.787-2.163.067.23.113.664.079 1.174-1.042.425-2.027 1.355-2.296 1.622a.52.52 0 0 0 0 .74.53.53 0 0 0 .747 0c.796-.788 2.221-1.772 2.715-1.487.126.073.451.608.652 1.798q.06.362.089.686c-.022.508-.04 1.05-.048 1.59q-.016.065-.033.117c-.379-.36-.585-1.525-.611-2.26a.52.52 0 0 0-.33-.468.53.53 0 0 0-.565.109c-.006.006-.637.607-1.824 1.534a.52.52 0 0 0-.145.645c.004.008.365.729.687 1.667.412 1.2.576 2.21.473 2.918-.21 1.457-2.168 3.848-2.904 4.647a.5.5 0 0 0-.118.207l-2.038 6.938a.523.523 0 0 0 .508.67c.229 0 .44-.148.507-.377l.227-.771a7.3 7.3 0 0 0 1.613.176c2.872 0 5.119-1.525 6.496-4.412.675-1.414.98-2.813 1.11-3.614.625.382 1.823.82 3.72 1.5 4.181 1.497 11.18 4.005 11.47 7.024.026.27.256.474.525.474q.026 0 .05-.002a.524.524 0 0 0 .476-.57c-.16-1.667-1.662-3.233-4.59-4.788zm-6.693-29.157c.046-.075.27-.363.535-.418.054-.011.218-.044.48.142.296.21.457.887.42 1.769a7 7 0 0 1-.217 1.463 18 18 0 0 1-1.349-2.385l.065-.485a.5.5 0 0 0 .066-.086m.668 4.014a11.2 11.2 0 0 1-1.645 1.569c.207-.89.406-2.025.587-3.208q.478.846 1.058 1.64m-2.049 2.933c.249-.03.747-.208 1.768-1.137.291-.265.64-.612.946-.96q.515.6 1.118 1.149c-1.235 1.547-2.944 2.681-5.11 3.389.558-.86.993-1.697 1.28-2.441zm-3.275 4.997c.426.05 2.107.28 3.861 1.034 2.63 1.13 4.184 2.85 4.618 5.112.378 1.972.348 3.529.323 4.78-.018.94-.035 1.774.164 2.481-2.288-.203-5.411-1.195-7.574-3.594-3.23-3.586-2.082-9.038-2.066-9.11l.002-.013q.348-.337.673-.688zM29.68 56.193c-1.208 2.514-3.068 3.79-5.53 3.79q-.69-.001-1.317-.137l1.481-5.046c.484-.538 2.814-3.214 3.087-5.113.24-1.664-.673-3.919-1.079-4.815q.464-.37.792-.65c.124.712.382 1.577.922 2.013.252.202.48.273.666.282.007.42.025.818.054 1.171.205 2.445 1.266 3.866 2.033 4.59-.03.285-.247 2.118-1.11 3.916"/><path d="M22.93 29.775a.377.377 0 0 0 .452-.281c.374-1.605.476-3.248.42-4.89-.024-.328-.501-.317-.512.009a20 20 0 0 1-.168 2.376 15 15 0 0 1-.469 2.312.375.375 0 0 0 .277.474M19.562 25.962c-.502-.342-1.136-.474-1.73-.456-.791.032-1.695.268-2.143.97-.175.214.135.473.319.27.006.006.027-.005.043-.01.58-.199 1.191-.234 1.805-.25a5.2 5.2 0 0 1 1.82.265c.236.22.568-.113.345-.344a1.7 1.7 0 0 0-.458-.444M20.263 21.915a.524.524 0 0 0-.418-.614c-.071-.014-1.786-.327-3.904.87a.52.52 0 0 0-.198.714.53.53 0 0 0 .721.196c1.749-.989 3.154-.757 3.182-.752a.53.53 0 0 0 .617-.414M29.497 25.584c-.772.035-1.623.301-2.105.943a.178.178 0 0 0 .077.274l.243.092c.01.004.032-.003.05-.007.894-.215 1.823-.253 2.739-.278a7 7 0 0 1 .866.03c.015 0 .039.007.041-.003.212.177.48-.125.278-.31-.517-.624-1.425-.761-2.188-.741M31.454 22.106c-2.156-1.13-3.859-.764-3.93-.748a.522.522 0 1 0 .231 1.02c.014-.002 1.416-.285 3.204.652a.53.53 0 0 0 .714-.218.52.52 0 0 0-.22-.707zM22.397 31.256l-.302-.059a.299.299 0 1 0-.116.587l.302.059q.03.005.058.005a.299.299 0 0 0 .057-.592M24.62 31.846q.03.005.058.006a.299.299 0 0 0 .057-.592l-.301-.059a.299.299 0 1 0-.116.587z"/><path d="M20.54 42.858c-.158-1.215-.308-2.363-.308-2.569.008-.146.292-.767 1.12-1.753.745-.888 1.357-1.378 1.53-1.428.217-.043.648.17.787.32-.045.163-.252.515-.464.778q-.01.013-.018.025c-.716.697-1.339 1.406-1.365 1.435a.52.52 0 0 0 .051.739.529.529 0 0 0 .745-.05c1.09-1.241 2.294-2.355 2.692-2.498.382.13.554.387.561.398l-.004-.007.905-.538c-.039-.066-.41-.646-1.24-.88-.221-.063-.483-.04-.877.19l-.006-.014c-.119-.235-.348-.45-.623-.615.87-.062 1.751-.299 2.479-.789a3 3 0 0 0 .413-.341l.053-.056a.37.37 0 0 0 .021-.528.38.38 0 0 0-.534-.021c0-.004-.016.006-.025.01l-.114.056a5.4 5.4 0 0 1-1.221.383c-1.439.27-3.01.181-4.315-.523l-.358.074a.3.3 0 0 0-.135.068.285.285 0 0 0-.02.406l.048.053c.2.212.433.389.68.542.389.24.818.414 1.264.526-.634.37-1.375 1.203-1.709 1.598-.515.611-1.377 1.74-1.377 2.438 0 .166.04.547.124 1.218-1.704-.935-2.936-2.346-4.013-3.75-.685-.893-1.484-2.94-2.311-5.919a77 77 0 0 1-1.06-4.323c-.412-2.824-.51-6.795 1.351-9.71 1.095-1.715 2.38-2.267 2.405-2.278a.52.52 0 0 0 .289-.68.53.53 0 0 0-.689-.289c-.063.026-1.565.646-2.848 2.613-1.754 2.687-1.968 6.143-1.729 8.977a1.6 1.6 0 0 0-.327-.107c-.305-.062-.78-.058-1.307.316-.78.552-.9 1.753-.863 2.662.038.95.267 1.978.555 2.5.295.537 1.02 1.292 1.55 1.775 1.167 1.062 1.652 1.142 1.86 1.142l.054-.001a.53.53 0 0 0 .38-.185c.306.942.64 1.85.989 2.619-3.248-1.51-5.388-3.808-6.367-6.845-.65-2.02-.801-4.395-.447-7.06.295-2.222.94-4.654 1.919-7.23 1.969-5.183 4.555-9.095 4.844-9.524 1.691-2.514 3.652-2.393 3.74-2.386a.526.526 0 0 0 .572-.47.525.525 0 0 0-.474-.572c-.107-.01-2.655-.22-4.718 2.847-.295.44-2.943 4.443-4.954 9.736-2.267 5.968-2.768 11.007-1.49 14.977 1.195 3.706 3.942 6.397 8.165 7.996q.02.008.041.013l.029.039c1.025 1.336 2.186 2.68 3.75 3.683.033.705.156 3.602-.007 5.528-.271 3.234-2.209 4.325-2.288 4.367a.6.6 0 0 0-.086.057c-.41.332-1.984.897-3.651 1.493-2.315.83-5.195 1.861-7.571 3.123-2.93 1.555-4.43 3.121-4.591 4.788A.524.524 0 0 0 .528 62c.27 0 .499-.203.525-.474.29-3.02 7.288-5.527 11.47-7.025 2.128-.762 3.377-1.22 3.923-1.637.044-.027.116-.07.208-.134.098.76.367 2.292 1.07 3.84l.006.01a208 208 0 0 1-3.297 4.587.52.52 0 0 0 .114.732.53.53 0 0 0 .738-.113c.568-.767 5.56-7.54 6.038-8.962.31-.922-.036-4.214-.784-9.966m-8.338-9.471c-.448-.115-2.111-1.625-2.522-2.37-.182-.332-.392-1.186-.426-2.043-.036-.881.125-1.559.42-1.768.261-.185.424-.153.477-.143.257.05.476.32.54.42a.5.5 0 0 0 .18.176q0 .009.002.018l.005.03c.04.197.619 2.951 1.453 5.697a.5.5 0 0 0-.13-.019zm8.12 19.106c-.145.427-.896 1.612-1.88 3.055-.667-1.742-.781-3.35-.783-3.377a.5.5 0 0 0-.093-.263c.706-.798 1.502-2.138 1.677-4.222.137-1.62.082-3.83.038-5.011l.181.084.03.233c.365 2.802 1.123 8.632.83 9.5"/></g><defs><clipPath id="a"><path fill="#fff" d="M0 0h48v62H0z"/></clipPath></defs></svg>