<svg xmlns="http://www.w3.org/2000/svg" width="48" height="63" fill="none"><g fill="#6A5349" clip-path="url(#a)"><path d="m.478 62.998.05.002c.27 0 .5-.206.526-.482.31-3.285 7.538-5.956 11.862-7.48l.911 7.117a.53.53 0 0 0 .591.46.53.53 0 0 0 .457-.596l-.94-7.34q.41-.143.771-.273c.5.338 3.21 1.978 8.84 1.978 5.629 0 8.543-1.606 9.256-2.023q.15.063.315.128l-.964 7.53a.532.532 0 0 0 .525.6.53.53 0 0 0 .523-.464l.931-7.275q.603.224 1.344.494c4.18 1.523 11.179 4.073 11.47 7.143a.53.53 0 0 0 .575.48.53.53 0 0 0 .476-.58c-.16-1.695-1.662-3.288-4.591-4.868-2.376-1.283-5.257-2.333-7.571-3.176-1.667-.607-3.242-1.18-3.651-1.518a1 1 0 0 0-.083-.057c-.083-.045-2.02-1.155-2.292-4.443-.158-1.913.009-5.11.06-5.997q.797-.578 1.574-1.307c1.893-1.778 3.526-4.12 4.267-6.09.249-.03.747-.212 1.767-1.156.53-.491 1.256-1.26 1.55-1.804.288-.532.517-1.578.556-2.543.031-.787-.052-1.786-.557-2.412.06-.13.142-.302.241-.505.713-1.466 2.195-4.517 1.858-7.033-.393-2.934-.928-6.332-1.91-9.298-1.11-3.36-3.999-4.498-5.19-4.831-.681-.191-.995-.673-1.585-1.657-.289-.482-.617-1.03-1.077-1.647C29.886.088 27.705-.37 22.725.269c-4.747.607-8.52 3.43-9.784 5.068-.366.474-1.247 1.24-2.268 2.128-1.763 1.533-3.958 3.441-5.081 5.212-1.1 1.735-1.078 4.581-.968 6.123.131 1.839.568 4.09 1.15 4.834.789 1.012 2.045 3.465 2.058 3.49l.014.023c-.435.63-.508 1.565-.477 2.31.038.966.267 2.012.554 2.544.295.545 1.02 1.313 1.551 1.804 1.167 1.08 1.65 1.162 1.859 1.162q.032 0 .055-.002a.5.5 0 0 0 .136-.025l.004.01q.094.196.209.481c.355.864.893 2.17 2.529 3.837 1.192 1.214 2.413 2.376 3.866 3.29.056.926.213 3.924.058 5.797-.266 3.214-2.122 4.346-2.28 4.436-.557.263-1.59.625-2.783 1.044-2.302.808-5.454 1.914-8.059 3.29-3.234 1.71-4.89 3.441-5.066 5.292a.53.53 0 0 0 .475.58zm38.05-33.583c-.035.872-.245 1.74-.427 2.077-.306.565-1.312 1.565-1.987 2.084.34-1.486.659-3.652.912-5.59a.6.6 0 0 0 .064-.085c.063-.102.283-.377.54-.428.054-.01.215-.043.477.145.296.213.457.902.42 1.799zM8.85 31.492c-.182-.337-.392-1.206-.426-2.077-.037-.896.125-1.585.42-1.798.261-.188.423-.156.477-.146.257.051.477.327.54.428a.53.53 0 0 0 .215.198c.407 2.061.917 4.46 1.199 5.767-.552-.266-2.04-1.661-2.425-2.372m6.167 7.028c-1.49-1.518-1.98-2.708-2.304-3.495-.075-.182-.14-.342-.211-.49-.16-.73-1.66-7.65-1.941-9.705a.53.53 0 0 0-.596-.455.53.53 0 0 0-.45.6c.05.377.14.906.254 1.523a1.512 1.512 0 0 0-1.07 0c-.284-.55-1.348-2.563-2.095-3.521-.287-.369-.769-2.051-.926-4.254-.172-2.4.122-4.396.805-5.473 1.04-1.64 3.17-3.491 4.88-4.98 1.108-.962 1.983-1.723 2.413-2.28.979-1.268 4.487-4.077 9.083-4.665 4.582-.587 6.443-.249 7.662 1.388.427.574.741 1.098 1.017 1.56.61 1.016 1.09 1.819 2.208 2.131 1.027.288 3.519 1.267 4.47 4.143.953 2.881 1.477 6.22 1.864 9.103.294 2.196-1.093 5.05-1.76 6.423q-.106.216-.186.386a1.5 1.5 0 0 0-.72-.03 2 2 0 0 0-.198.058c.072-.583.134-1.114.187-1.557.063-.525.112-.94.139-1.13.106-.749-.453-2.702-1.33-4.645-.811-1.797-2.213-4.315-4.284-6.1a.526.526 0 0 0-.744.058.535.535 0 0 0 .058.75c2.025 1.746 3.38 4.342 4.009 5.733.922 2.044 1.296 3.7 1.246 4.053-.029.203-.077.603-.142 1.156-.265 2.235-.886 7.471-1.499 9.404-1.059 3.339-5.79 9.155-10.542 9.155q-.23 0-.46-.018c-1.958-.158-3.51-.705-4.856-1.497a.5.5 0 0 0-.185-.111c-1.405-.861-2.59-1.989-3.795-3.217zm1.381 15.216c.103-.056 2.522-1.398 2.844-5.293.134-1.62.048-3.962-.018-5.27 1.289.642 2.766 1.089 4.544 1.232q.261.022.527.022c1.44 0 2.966-.465 4.478-1.35-.066 1.354-.15 3.754-.016 5.366.301 3.643 2.437 5.053 2.796 5.265q.038.029.079.058c-1.228.569-3.952 1.553-8.086 1.553s-6.415-.868-7.541-1.408q.205-.085.37-.164z"/><path d="M23.308 30.23a.377.377 0 0 0 .452-.286c.373-1.632.475-3.303.42-4.973-.025-.333-.502-.322-.512.01-.007.8-.068 1.62-.168 2.416-.1.794-.251 1.584-.47 2.35a.38.38 0 0 0 .278.483M19.585 26.176l.053.013c.015.003.038.013.04.005.238.22.567-.121.342-.353-.399-.529-1.09-.716-1.718-.735-.811-.019-1.669.235-2.244.84a1.9 1.9 0 0 0-.32.452c-.024.053-.065.121-.052.189.016.102.111.172.212.156l.148-.024c.01-.001.03-.016.046-.025l.052-.03a4.2 4.2 0 0 1 1.683-.536c.593-.055 1.18-.087 1.757.048zM16.15 22.622q.097 0 .193-.037c1.875-.742 3.232-.305 3.258-.297a.527.527 0 0 0 .67-.328.534.534 0 0 0-.324-.678c-.07-.024-1.72-.587-3.99.311a.534.534 0 0 0 .193 1.028zM29.84 25.074c-.816-.16-1.81-.06-2.372.63-.242.216.065.579.316.376.005.006.03 0 .046-.003q.086-.012.172-.023c.55-.065 1.091-.008 1.643.08.623.1 1.21.327 1.727.69l.174.028c.124.022.235-.103.197-.225-.229-.852-1.087-1.396-1.902-1.553M27.523 21.282a.532.532 0 0 0 .346 1.006c.013-.005 1.374-.45 3.258.295a.525.525 0 0 0 .685-.3.533.533 0 0 0-.299-.69c-2.27-.898-3.921-.335-3.99-.31zM26.838 35.195l-.026.01-.114.056a5.3 5.3 0 0 1-1.221.39c-1.439.274-3.01.185-4.315-.532l-.358.076a.293.293 0 0 0-.155.482l.048.054c.2.215.433.395.68.551.775.484 1.71.71 2.612.695 1.001-.01 2.05-.241 2.895-.82q.222-.154.414-.347l.053-.056a.383.383 0 0 0 .02-.538.376.376 0 0 0-.533-.021M22.774 31.737l-.302-.06a.304.304 0 0 0-.115.597l.302.06a.302.302 0 0 0 .354-.24.304.304 0 0 0-.239-.356zM24.998 32.333q.03.006.058.006a.304.304 0 0 0 .057-.602l-.302-.06a.304.304 0 0 0-.116.597zM19.174 35.206c0-1.55 1.454-2.712 1.468-2.724a.5.5 0 0 0 .089-.698.493.493 0 0 0-.695-.09c-.075.058-1.852 1.466-1.852 3.512 0 .276.221.5.495.5a.497.497 0 0 0 .495-.5M27.079 31.677a.5.5 0 0 0-.131.693c.01.015 1.046 1.57 1.046 3.065 0 .275.221.499.495.499a.497.497 0 0 0 .495-.5c0-1.805-1.169-3.553-1.218-3.626a.493.493 0 0 0-.688-.132M17.136 16.135c.299-.093.604-.247.908-.443.352.214 1.03.522 2.018.522.626 0 1.377-.124 2.247-.474q.221-.09.423-.196c.088.13.233.221.402.232q.165.012.334.012c1.423 0 2.912-.603 4.325-1.754a11.2 11.2 0 0 0 1.84-1.896.535.535 0 0 0-.115-.744.526.526 0 0 0-.739.116c-.022.032-2.155 2.933-4.91 3.194 1.484-1.489 1.702-3.629 1.712-3.743a.53.53 0 0 0-.477-.58.53.53 0 0 0-.575.48c-.003.03-.299 2.957-2.613 3.89-1.422.574-2.4.42-2.944.219 1.49-1.338 2.754-3.274 2.827-3.387a.536.536 0 0 0-.153-.737.527.527 0 0 0-.731.154c-.643.992-2.63 3.665-4.09 4.117q-.17.053-.338.103c-1.863.569-3.975 1.213-5.133 4.325a.533.533 0 0 0 .495.72.53.53 0 0 0 .495-.346c.975-2.62 2.663-3.134 4.45-3.68z"/></g><defs><clipPath id="a"><path fill="#fff" d="M0 0h48v63H0z"/></clipPath></defs></svg>