<svg width="48" height="62" viewBox="0 0 48 62" fill="none" xmlns="http://www.w3.org/2000/svg">
<g clip-path="url(#clip0_20192_4587)">
<path d="M43.407 56.6396C41.0305 55.3782 38.1506 54.3463 35.8359 53.517C34.1688 52.9195 32.5945 52.3557 32.1847 52.0237C32.1598 52.0035 32.1296 51.9841 32.1017 51.9684C32.0195 51.9235 30.0829 50.8326 29.8105 47.5993C29.7576 46.9749 29.7471 46.1868 29.7592 45.3792C29.7946 45.199 29.8188 44.9971 29.8309 44.7728C29.8475 44.4811 29.8414 44.108 29.8097 43.7005C29.8558 42.6447 29.9184 41.7421 29.9456 41.3653C30.0203 41.3077 30.095 41.2486 30.169 41.1895C30.1161 41.7803 30.0844 42.5385 30.1357 43.3909C30.2927 46.0125 31.1659 48.2752 32.6617 49.9353C35.0209 52.5531 38.734 53.8475 41.6131 53.92C42.0395 54.3851 42.6976 54.7575 43.7104 55.0275C43.7565 55.0394 43.8025 55.0454 43.8478 55.0454C44.081 55.0454 44.2938 54.8914 44.3579 54.6581C44.4334 54.3792 44.2666 54.092 43.9851 54.0165C43.7293 53.9485 43.5059 53.8774 43.3082 53.8004C44.0025 53.6688 44.7217 53.3974 45.0553 52.847C45.2055 52.5988 45.1247 52.2772 44.8741 52.1292C44.6236 51.9804 44.2991 52.0611 44.1496 52.3086C44.0251 52.5143 43.4968 52.7603 42.5972 52.844C42.4561 52.8575 42.3059 52.8665 42.1482 52.8709C41.878 52.3169 41.8924 51.5414 41.9158 50.3719C41.9414 49.0731 41.9731 47.4565 41.5746 45.377C41.0773 42.783 39.2577 40.7469 36.3122 39.4884C34.9613 38.9111 33.6768 38.624 32.8753 38.4864C32.9477 38.3974 33.0187 38.3084 33.0889 38.2187C33.1198 38.2165 33.1507 38.2127 33.1817 38.2052C36.1197 37.4896 38.3944 36.131 39.9762 34.1554C40.4501 34.5173 40.9611 34.8546 41.5158 35.1626C41.5973 35.2082 41.6863 35.2299 41.7739 35.2299C41.9588 35.2299 42.1384 35.1335 42.235 34.9622C42.3776 34.7102 42.2871 34.391 42.0327 34.2496C41.5143 33.961 41.0365 33.6425 40.5928 33.3C40.9165 32.7997 41.2033 32.2673 41.4509 31.7013C42.7338 28.7663 42.9497 24.9154 42.0765 20.5642C41.4078 17.2337 40.0698 13.5907 38.497 10.8203C34.9137 4.50996 29.0565 0.4706 26.3781 0.0914887C21.7081 -0.569526 18.309 2.56356 18.1671 2.69741C17.9558 2.89631 17.9467 3.22682 18.1467 3.43619C18.3467 3.64556 18.681 3.65528 18.8931 3.45788C18.9248 3.42871 22.0749 0.540141 26.2287 1.12788C27.5026 1.30808 29.5403 2.46262 31.5463 4.14057C33.9364 6.14007 36.0782 8.69514 37.5763 11.3347C39.097 14.0139 40.392 17.5411 41.0403 20.7691C41.8712 24.9109 41.678 28.5473 40.4811 31.2855C40.2773 31.7521 40.0434 32.1948 39.7815 32.612C39.3868 32.2442 39.0238 31.8546 38.6879 31.447C38.9581 30.9064 39.1694 29.9261 39.2064 29.0168C39.2434 28.1068 39.1241 26.9067 38.3438 26.3548C37.8155 25.981 37.3408 25.9772 37.0359 26.0393C36.9672 26.0535 36.9016 26.0729 36.8382 26.0954C36.9099 25.5226 36.9725 25.0007 37.0253 24.5647C37.088 24.048 37.137 23.6398 37.1642 23.4528C37.2057 23.1664 37.005 22.9017 36.7159 22.8606C36.4269 22.8195 36.1597 23.0184 36.1182 23.3048C36.0895 23.5037 36.042 23.897 35.9763 24.4406C35.9212 24.8967 35.851 25.4792 35.7688 26.1335C35.3733 25.1046 35.0292 24.069 34.6964 23.0662C34.2149 21.6163 33.7598 20.2472 33.2006 19.0141C30.209 12.419 26.6083 10.6139 24.1148 10.2609C20.9602 9.81453 19.3142 11.8664 19.2455 11.9539C19.0674 12.1812 19.1089 12.5079 19.3376 12.6859C19.5663 12.8639 19.8976 12.8235 20.0787 12.5984C20.0817 12.5939 20.4244 12.1722 21.0749 11.8043C21.9337 11.3183 22.9065 11.1485 23.9654 11.2981C26.1962 11.6136 29.4429 13.2834 32.2376 19.4441C32.7742 20.6271 33.2209 21.9715 33.6934 23.3945C34.2171 24.9715 34.7673 26.627 35.4948 28.222C35.2028 30.3277 34.839 32.5709 34.4783 33.6888C33.8194 35.7324 31.75 38.7541 29.009 40.7588C28.8739 40.5584 28.7199 40.3992 28.5449 40.2982C28.3479 40.1846 28.1351 40.1285 27.9139 40.115C27.929 39.5071 27.8619 38.6741 27.4407 38.2561C26.9208 37.7409 26.0596 38.2344 24.8393 39.1975C24.028 39.8376 23.2892 40.5233 23.2582 40.5524C23.0454 40.7499 23.0348 41.0811 23.2341 41.292C23.3382 41.4019 23.4786 41.4572 23.6197 41.4572C23.7488 41.4572 23.8786 41.4101 23.9812 41.3159C25.1827 40.2003 26.2959 39.371 26.7676 39.1526C26.8355 39.3822 26.8808 39.8167 26.8468 40.3266C25.8053 40.7521 24.8204 41.6823 24.551 41.9492C24.345 42.1534 24.345 42.4854 24.551 42.6895C24.757 42.8937 25.0921 42.8937 25.2982 42.6895C26.0944 41.9007 27.5192 40.9166 28.0128 41.2022C28.1388 41.2748 28.4641 41.8102 28.6649 42.9998C28.7056 43.2421 28.7343 43.4709 28.7539 43.6863C28.732 44.194 28.7139 44.7369 28.7056 45.2753C28.695 45.3186 28.6845 45.359 28.6732 45.3927C28.2943 45.0337 28.0875 43.868 28.0618 43.1322C28.0551 42.9251 27.9253 42.7419 27.732 42.6649C27.5388 42.5878 27.317 42.6297 27.1668 42.774C27.1607 42.78 26.5298 43.3812 25.3434 44.3084C25.1465 44.4617 25.0861 44.7316 25.1978 44.953C25.2016 44.9605 25.5631 45.682 25.8853 46.6205C26.2974 47.8206 26.4611 48.8293 26.3585 49.5382C26.1487 50.9948 24.1903 53.3861 23.4537 54.1847C23.3994 54.2438 23.3586 54.3149 23.336 54.3919L21.2983 61.3303C21.2168 61.6077 21.3775 61.8986 21.6583 61.9793C21.7073 61.9935 21.7571 62.0003 21.8062 62.0003C22.0349 62.0003 22.2462 61.8515 22.3134 61.6227L22.5398 60.8517C23.0514 60.9684 23.5918 61.0282 24.1525 61.0282C27.0249 61.0282 29.2716 59.5028 30.6489 56.6157C31.3236 55.2017 31.6285 53.8026 31.7591 53.0018C32.384 53.3839 33.5824 53.8221 35.479 54.5018C39.66 55.9995 46.6582 58.5068 46.9488 61.5262C46.9752 61.7969 47.2046 62.0003 47.4741 62.0003C47.4907 62.0003 47.508 62.0003 47.5246 61.998C47.8152 61.9704 48.028 61.7154 48.0001 61.4275C47.8401 59.7607 46.3383 58.1949 43.4093 56.6404L43.407 56.6396ZM36.7144 27.4825C36.7597 27.4084 36.9831 27.1198 37.2495 27.0652C37.3031 27.054 37.4668 27.0211 37.7295 27.2073C38.0246 27.4167 38.1861 28.0941 38.1498 28.9757C38.1279 29.5059 38.0396 30.0338 37.9325 30.4391C37.4163 29.6801 36.974 28.8778 36.5831 28.0537C36.605 27.8907 36.6269 27.7292 36.648 27.5692C36.6721 27.543 36.6948 27.5146 36.7137 27.4825H36.7144ZM37.3816 31.4971C36.9378 32.0325 36.2442 32.6831 35.7371 33.0659C35.9439 32.1769 36.1431 31.041 36.3242 29.8581C36.6435 30.4211 36.9936 30.97 37.3823 31.4971H37.3816ZM35.3333 34.4298C35.5816 34.3999 36.0797 34.222 37.1008 33.2933C37.3921 33.0278 37.7415 32.6808 38.0472 32.3331C38.3913 32.7332 38.7626 33.1168 39.1649 33.4817C37.9302 35.0288 36.2208 36.1631 34.0556 36.8705C34.6133 36.0106 35.048 35.1739 35.3341 34.4298H35.3333ZM32.058 39.4271C32.4844 39.4764 34.1651 39.7067 35.919 40.4612C38.5498 41.5918 40.103 43.3117 40.5369 45.5729C40.915 47.5454 40.8848 49.1015 40.8599 50.3525C40.8418 51.2939 40.8252 52.1269 41.0237 52.8343C38.7355 52.6309 35.6126 51.6394 33.4504 49.2398C30.2195 45.6544 31.3682 40.2017 31.384 40.13C31.3848 40.1255 31.3855 40.121 31.3863 40.1173C31.618 39.8922 31.8421 39.6626 32.0587 39.4286L32.058 39.4271ZM29.6799 56.1932C28.4724 58.7072 26.6121 59.9821 24.1503 59.9821C23.6914 59.9821 23.2499 59.9357 22.8326 59.846L24.314 54.8001C24.7978 54.2618 27.1283 51.5856 27.4015 49.687C27.6415 48.0233 26.7283 45.768 26.3223 44.8722C26.631 44.6262 26.8951 44.4079 27.114 44.2224C27.2377 44.9335 27.4958 45.7994 28.0362 46.2346C28.2875 46.4373 28.5154 46.5076 28.7018 46.5165C28.7094 46.9375 28.7267 47.3353 28.7562 47.6883C28.9614 50.1327 30.0218 51.5541 30.7886 52.2772C30.7591 52.5629 30.5425 54.3956 29.6784 56.194L29.6799 56.1932Z" fill="#6A5349"/>
<path d="M22.9303 29.7746C23.1333 29.821 23.3363 29.6946 23.3823 29.4935C23.7559 27.8888 23.8578 26.246 23.8019 24.6039C23.7778 24.2764 23.3008 24.2869 23.2903 24.6129C23.2835 25.401 23.2223 26.2056 23.122 26.9893C23.0231 27.7699 22.8714 28.5468 22.6533 29.3006C22.5891 29.5069 22.7174 29.7268 22.9303 29.7746Z" fill="#6A5349"/>
<path d="M19.5621 25.9624C19.0602 25.6199 18.4263 25.4876 17.8323 25.5055C17.0406 25.5377 16.1373 25.7739 15.689 26.4768C15.5139 26.6899 15.8241 26.9494 16.0075 26.7468C16.0135 26.752 16.0346 26.7408 16.0505 26.7363C16.6301 26.5374 17.2421 26.5023 17.8557 26.4866C18.4791 26.4716 19.0927 26.5516 19.6768 26.7513C19.9123 26.9711 20.2436 26.6376 20.0209 26.4073C19.8994 26.2316 19.7387 26.082 19.5628 25.9631L19.5621 25.9624Z" fill="#6A5349"/>
<path d="M20.2626 21.9149C20.3185 21.6315 20.1313 21.3563 19.8453 21.301C19.7736 21.2867 18.0589 20.9742 15.9405 22.1713C15.6869 22.3149 15.5986 22.6342 15.7435 22.8854C15.8409 23.0544 16.019 23.1494 16.2032 23.1494C16.2922 23.1494 16.382 23.127 16.4643 23.0806C18.2129 22.0921 19.6181 22.3239 19.6461 22.3291C19.9313 22.383 20.2068 22.1975 20.2626 21.9149Z" fill="#6A5349"/>
<path d="M29.4971 25.5839C28.7251 25.619 27.8738 25.8852 27.3923 26.5268C27.3191 26.618 27.3583 26.7609 27.4692 26.8012L27.7123 26.8932C27.7213 26.897 27.744 26.8895 27.7613 26.8857C28.6556 26.6711 29.5847 26.633 30.5009 26.6083C30.7725 26.6046 31.0427 26.6053 31.3121 26.6322C31.3318 26.6337 31.3484 26.6352 31.3672 26.6375C31.3816 26.6375 31.4057 26.645 31.408 26.6352C31.6201 26.8117 31.8872 26.5104 31.6857 26.3242C31.1688 25.7005 30.2609 25.5637 29.4979 25.5839H29.4971Z" fill="#6A5349"/>
<path d="M31.4538 22.106C29.2984 20.9754 27.5951 21.3425 27.5234 21.3583C27.2403 21.4226 27.0637 21.7007 27.1264 21.9811C27.189 22.2623 27.4713 22.4395 27.755 22.3789C27.7694 22.3759 29.1709 22.0925 30.9595 23.0302C31.038 23.0714 31.1225 23.0908 31.2063 23.0908C31.3957 23.0908 31.5791 22.9898 31.6734 22.8119C31.81 22.5562 31.7111 22.2399 31.4538 22.1045V22.106Z" fill="#6A5349"/>
<path d="M22.3968 31.2555L22.0949 31.1971C21.9311 31.165 21.7726 31.2712 21.7409 31.4334C21.7092 31.5957 21.8157 31.7527 21.9794 31.7841L22.2813 31.8425C22.3009 31.8462 22.3205 31.8484 22.3394 31.8484C22.4813 31.8484 22.6073 31.7497 22.6352 31.6069C22.6669 31.4447 22.5605 31.2876 22.3968 31.2562V31.2555Z" fill="#6A5349"/>
<path d="M24.6202 31.8456C24.6398 31.8494 24.6594 31.8516 24.6783 31.8516C24.8202 31.8516 24.9462 31.7529 24.9741 31.6101C25.0058 31.4478 24.8994 31.2908 24.7356 31.2594L24.4338 31.2011C24.27 31.1689 24.1115 31.2751 24.0798 31.4373C24.0481 31.5996 24.1545 31.7566 24.3183 31.788L24.6202 31.8464V31.8456Z" fill="#6A5349"/>
<path d="M20.5394 42.8579C20.3817 41.6428 20.2323 40.495 20.2323 40.2893C20.2398 40.1428 20.5236 39.5221 21.3515 38.5359C22.0971 37.6483 22.7092 37.1585 22.882 37.1077C23.0994 37.065 23.5303 37.2774 23.6691 37.4277C23.6239 37.5914 23.4171 37.9429 23.205 38.2061C23.1982 38.2143 23.1929 38.2226 23.1869 38.2308C22.4707 38.9284 21.8481 39.6366 21.8217 39.6657C21.63 39.8841 21.6534 40.2146 21.873 40.4045C21.9734 40.4912 22.0964 40.5331 22.2194 40.5331C22.3665 40.5331 22.5137 40.4725 22.6179 40.3536C23.7084 39.1139 24.9121 37.9997 25.3098 37.8569C25.6917 37.9878 25.8638 38.2442 25.8713 38.2555L25.8668 38.248L26.7724 37.7096C26.7332 37.6438 26.3619 37.0643 25.5325 36.8295C25.3106 36.7667 25.0495 36.7899 24.6548 37.0194C24.6525 37.0149 24.651 37.0104 24.6487 37.006C24.5303 36.7712 24.3008 36.5566 24.0261 36.3906C24.8963 36.3285 25.777 36.0922 26.5045 35.6024C26.6509 35.5 26.7913 35.3886 26.9181 35.2607L26.9709 35.2054C27.1241 35.0655 27.1332 34.8285 26.9921 34.6767C26.8509 34.5249 26.6117 34.5159 26.4585 34.6558C26.4585 34.652 26.4419 34.6617 26.4328 34.6662C26.3959 34.6849 26.3581 34.7036 26.3189 34.7216C25.9332 34.9033 25.5174 35.0199 25.0978 35.1052C23.6593 35.3744 22.0873 35.2861 20.7832 34.5817L20.4247 34.6558C20.3764 34.6662 20.3296 34.6887 20.2904 34.7238C20.1711 34.83 20.1621 35.0124 20.27 35.1298L20.3183 35.1829C20.5183 35.3945 20.7507 35.5718 20.9975 35.7251C21.387 35.9643 21.8164 36.1386 22.2616 36.2515C21.6277 36.6216 20.8866 37.4539 20.553 37.8494C20.0383 38.4603 19.1757 39.5887 19.1757 40.2871C19.1757 40.4531 19.2165 40.8337 19.3002 41.5052C17.5961 40.5697 16.3645 39.1595 15.2875 37.7552C14.6023 36.8616 13.803 34.815 12.9759 31.836C12.3699 29.654 11.9556 27.7017 11.9156 27.5125C11.5042 24.689 11.4069 20.7184 13.2672 17.8036C14.3623 16.0883 15.6468 15.5357 15.6717 15.5252C15.9403 15.4161 16.0694 15.1117 15.9607 14.8448C15.8513 14.5771 15.5426 14.4477 15.2724 14.5561C15.209 14.5816 13.7072 15.2015 12.4235 17.1688C10.6703 19.8562 10.456 23.3123 10.6952 26.1463C10.5941 26.1015 10.4854 26.0633 10.3684 26.0394C10.0628 25.9773 9.58808 25.9811 9.06055 26.355C8.28095 26.9068 8.16095 28.1077 8.19793 29.017C8.23642 29.9666 8.4651 30.9948 8.75264 31.5174C9.04772 32.0536 9.77298 32.8088 10.3035 33.2919C11.4703 34.3537 11.9548 34.4344 12.1623 34.4344C12.1835 34.4344 12.2016 34.4337 12.2174 34.4329C12.3706 34.4262 12.5042 34.3552 12.5963 34.2482C12.9027 35.1897 13.2363 36.0982 13.5857 36.8669C10.3375 35.3572 8.19794 33.0593 7.2191 30.0219C6.56855 28.0023 6.41761 25.6266 6.77156 22.9624C7.06665 20.7401 7.71267 18.3076 8.69075 15.7316C10.6597 10.5489 13.2461 6.63669 13.5351 6.20823C15.2264 3.69353 17.1871 3.81541 17.2746 3.82214C17.5629 3.84831 17.8195 3.6382 17.8474 3.35181C17.8761 3.06392 17.6633 2.80819 17.3727 2.77978C17.2656 2.77005 14.7185 2.55994 12.6552 5.62722C12.3601 6.06615 9.71185 10.0704 7.70135 15.363C5.43425 21.3308 4.93313 26.3699 6.21158 30.3397C7.40551 34.0463 10.1526 36.7368 14.3759 38.3355C14.3894 38.3407 14.403 38.3452 14.4174 38.3489C14.4272 38.3616 14.4362 38.3751 14.446 38.3878C15.4709 39.724 16.6316 41.0685 18.1961 42.0712C18.2293 42.7756 18.3516 45.6732 18.1893 47.5994C17.9176 50.8327 15.9803 51.9236 15.9011 51.9663C15.8709 51.9827 15.8415 52.0014 15.8151 52.0231C15.4053 52.3551 13.831 52.9196 12.1638 53.5164C9.8492 54.3456 6.96854 55.3775 4.59276 56.639C1.6638 58.1943 0.162716 59.7601 0.00196615 61.4268C-0.0259575 61.7147 0.187621 61.9705 0.477423 61.9974C0.494781 61.9989 0.511384 61.9996 0.527987 61.9996C0.797413 61.9996 1.02684 61.797 1.05325 61.5255C1.34381 58.5061 8.34133 55.9989 12.5231 54.5011C14.6506 53.7392 15.9003 53.2801 16.446 52.8636C16.4905 52.8374 16.5622 52.794 16.6543 52.7297C16.7516 53.4902 17.0211 55.0216 17.7244 56.5694C17.7259 56.5732 17.7282 56.5762 17.7305 56.5799C16.6497 58.1322 15.4211 59.8319 14.4332 61.1674C14.2604 61.4007 14.3117 61.7282 14.5472 61.8987C14.6415 61.9667 14.7509 61.9996 14.8589 61.9996C15.0219 61.9996 15.1819 61.9256 15.2853 61.7858C15.8528 61.0186 20.8443 54.2454 21.3228 52.8239C21.633 51.902 21.2866 48.6103 20.5387 42.8579H20.5394ZM12.2016 33.3868C11.754 33.2717 10.0907 31.762 9.68015 31.0164C9.49827 30.6852 9.28847 29.8313 9.25375 28.9743C9.21753 28.0927 9.37903 27.4153 9.67411 27.2059C9.93524 27.0212 10.0975 27.0526 10.1511 27.0631C10.4077 27.1132 10.6273 27.3831 10.6914 27.4833C10.7375 27.5581 10.7994 27.6172 10.8703 27.659C10.8711 27.665 10.8718 27.671 10.8726 27.677C10.8741 27.6875 10.8756 27.6972 10.8778 27.7076C10.9186 27.9035 11.4967 30.6583 12.3314 33.404C12.2899 33.3928 12.2461 33.3861 12.2016 33.3853V33.3868ZM20.3213 52.4927C20.1772 52.9204 19.4255 54.1048 18.4421 55.548C17.775 53.8057 17.661 52.1988 17.6588 52.1711C17.6527 52.0732 17.6188 51.9835 17.5659 51.9079C18.2716 51.1101 19.0678 49.7701 19.2429 47.6861C19.3795 46.0657 19.3251 43.8554 19.2806 42.6747C19.341 42.7031 19.4014 42.7315 19.4625 42.7592C19.4723 42.8347 19.4821 42.9117 19.4927 42.9917C19.8572 45.7936 20.6149 51.6238 20.3221 52.4927H20.3213Z" fill="#6A5349"/>
</g>
<defs>
<clipPath id="clip0_20192_4587">
<rect width="48" height="62" fill="white"/>
</clipPath>
</defs>
</svg>
