<svg width="48" height="63" viewBox="0 0 48 63" fill="none" xmlns="http://www.w3.org/2000/svg">
<g clip-path="url(#clip0_20192_4598)">
<path d="M0.478178 62.9978C0.495536 62.9994 0.512139 63.0001 0.528742 63.0001C0.798167 63.0001 1.02835 62.794 1.05401 62.518C1.36419 59.233 8.59188 56.5616 12.9163 55.0377L13.8272 62.1553C13.8619 62.4237 14.0891 62.6199 14.3502 62.6199C14.3728 62.6199 14.3955 62.6184 14.4181 62.6153C14.7072 62.5781 14.9117 62.3112 14.8747 62.0192L13.9351 54.6795C14.2076 54.5837 14.4649 54.4924 14.7064 54.4058C15.2053 54.7441 17.9161 56.3844 23.5454 56.3844C29.1746 56.3844 32.0893 54.7784 32.8024 54.3609C32.9021 54.4027 33.007 54.4453 33.1172 54.4894L32.1534 62.0192C32.1164 62.3104 32.3202 62.5773 32.61 62.6153C32.6326 62.6184 32.656 62.6199 32.6779 62.6199C32.9398 62.6199 33.167 62.4237 33.2009 62.1553L34.1322 54.8803C34.5345 55.0308 34.9805 55.1936 35.4756 55.3738C39.6566 56.8969 46.6548 59.4466 46.9454 62.5173C46.9711 62.7925 47.2012 62.9994 47.4707 62.9994C47.4873 62.9994 47.5046 62.9986 47.5212 62.9971C47.8118 62.9689 48.0246 62.7096 47.9967 62.4169C47.8367 60.7219 46.3348 59.1295 43.4059 57.5486C41.0301 56.2658 38.1494 55.2164 35.8348 54.3731C34.1677 53.7655 32.5934 53.1921 32.1836 52.8545C32.1587 52.834 32.1285 52.8142 32.1006 52.7982C32.0183 52.7526 30.0818 51.6431 29.8093 48.355C29.6508 46.4418 29.8176 43.2457 29.8697 42.3575C30.4003 41.9727 30.9263 41.537 31.4432 41.0511C33.336 39.2732 34.9692 36.9311 35.7103 34.9608C35.9586 34.9304 36.4567 34.7494 37.477 33.805C38.0076 33.3137 38.7328 32.5457 39.0279 32.0005C39.3154 31.4689 39.5441 30.4226 39.5826 29.4576C39.6143 28.6713 39.5305 27.6721 39.0264 27.0455C39.0853 26.9163 39.1683 26.7444 39.2671 26.5414C39.9796 25.0753 41.4625 22.0237 41.1252 19.5082C40.732 16.5744 40.1969 13.1761 39.2158 10.2096C38.1042 6.8493 35.216 5.7117 34.0258 5.37863C33.3436 5.18776 33.0296 4.70641 32.4402 3.72241C32.1511 3.23954 31.8229 2.69127 31.3632 2.07457C29.8856 0.0875647 27.7052 -0.368693 22.725 0.268547C17.978 0.876129 14.2045 3.6996 12.9412 5.3368C12.5752 5.81131 11.6937 6.57782 10.6726 7.46525C8.90961 8.99827 6.71496 10.9062 5.59198 12.6772C4.49239 14.4118 4.51352 17.258 4.62371 18.8002C4.75502 20.6389 5.19199 22.8898 5.77311 23.6342C6.56251 24.6464 7.81908 27.0988 7.83191 27.1231C7.83644 27.1315 7.84172 27.1398 7.84625 27.1474C7.41079 27.7771 7.33834 28.7124 7.36853 29.4576C7.40702 30.4234 7.63569 31.4689 7.92323 32.0005C8.21831 32.5457 8.94357 33.3137 9.47412 33.805C10.6409 34.8848 11.1246 34.9669 11.3329 34.9669C11.3541 34.9669 11.3722 34.9662 11.388 34.9654C11.4356 34.9631 11.4808 34.954 11.5239 34.9403C11.5254 34.9433 11.5261 34.9464 11.5276 34.9494C11.5918 35.0795 11.659 35.2422 11.7367 35.4315C12.0922 36.2954 12.6295 37.601 14.2657 39.2679C15.4581 40.4823 16.6792 41.6435 18.132 42.5583C18.1878 43.4845 18.3455 46.4821 18.1901 48.355C17.9244 51.5686 16.0679 52.7009 15.9101 52.7914C15.3532 53.0537 14.3208 53.4164 13.1268 53.8354C10.825 54.643 7.67267 55.7494 5.06822 57.1258C1.83436 58.8353 0.177055 60.566 0.00196615 62.4169C-0.0259575 62.7096 0.187621 62.9697 0.477423 62.9971L0.478178 62.9978ZM38.5275 29.415C38.4928 30.2865 38.283 31.1549 38.1011 31.4918C37.7947 32.0575 36.7895 33.0567 36.114 33.5761C36.4544 32.0902 36.7729 29.9245 37.0257 27.9869C37.0491 27.9611 37.071 27.9322 37.0899 27.901C37.1532 27.7991 37.3729 27.5238 37.6302 27.4729C37.6838 27.4622 37.8453 27.4295 38.1072 27.6181C38.403 27.8311 38.5638 28.52 38.5275 29.4165V29.415ZM8.84999 31.4918C8.66811 31.1549 8.4583 30.2865 8.42359 29.415C8.38736 28.5185 8.54887 27.8295 8.84395 27.6166C9.10508 27.4288 9.26733 27.4607 9.32092 27.4714C9.57751 27.5223 9.79788 27.7976 9.86128 27.8995C9.91486 27.9877 9.99033 28.0539 10.0756 28.0972C10.4831 30.158 10.9933 32.5571 11.2748 33.8643C10.7231 33.5981 9.23488 32.2028 8.84999 31.4918ZM15.0166 38.5204C13.5261 37.0018 13.0363 35.8118 12.7125 35.0247C12.6378 34.843 12.5721 34.6833 12.502 34.5358C12.3427 33.805 10.8416 26.8843 10.5609 24.8296C10.5209 24.5384 10.2545 24.3354 9.96543 24.3749C9.67638 24.4152 9.47412 24.6836 9.51412 24.9749C9.56544 25.3521 9.65525 25.8806 9.76921 26.498C9.696 26.4706 9.61978 26.4463 9.53827 26.4296C9.32696 26.3855 9.03489 26.3741 8.69981 26.4973C8.41453 25.9475 7.35117 23.9346 6.60402 22.9765C6.31724 22.6084 5.83499 20.9256 5.67801 18.7234C5.50594 16.3227 5.79952 14.3274 6.48327 13.2498C7.52324 11.6103 9.65223 9.7587 11.3639 8.27054C12.471 7.30784 13.3457 6.54741 13.7759 5.99001C14.7547 4.72162 18.2633 1.91259 22.8594 1.32478C27.4411 0.738492 29.3022 1.07612 30.521 2.71333C30.9482 3.28745 31.2621 3.81062 31.5383 4.2722C32.1474 5.2889 32.6281 6.09191 33.7458 6.40445C34.7729 6.69189 37.2649 7.67132 38.2159 10.5465C39.169 13.4285 39.6935 16.7661 40.0799 19.6504C40.3743 21.8457 38.9872 24.7004 38.32 26.0729C38.2498 26.2167 38.1872 26.3459 38.1336 26.4592C37.8483 26.3779 37.5993 26.3916 37.4136 26.4296C37.3449 26.444 37.2793 26.4638 37.2159 26.4866C37.2876 25.9041 37.3502 25.3733 37.4031 24.93C37.4657 24.4046 37.5147 23.9894 37.5419 23.7993C37.6483 23.051 37.0891 21.0982 36.2121 19.1553C35.4009 17.3577 33.9994 14.8399 31.9285 13.0544C31.7066 12.8635 31.3731 12.8894 31.1836 13.1129C30.9942 13.3365 31.0199 13.6726 31.2417 13.8635C33.2673 15.6094 34.6228 18.2048 35.2507 19.5964C36.1729 21.6404 36.5465 23.2966 36.4967 23.6495C36.468 23.8517 36.4204 24.2517 36.3548 24.8045C36.0899 27.0402 35.4688 32.2765 34.856 34.2088C33.7971 37.5478 29.0652 43.3643 24.3144 43.3643C24.1612 43.3643 24.008 43.3582 23.8548 43.3461C21.8964 43.1879 20.3447 42.6412 18.9984 41.8488C18.9448 41.8001 18.8821 41.7621 18.8127 41.7378C17.4082 40.877 16.2233 39.7493 15.0181 38.5212L15.0166 38.5204ZM16.3984 53.7358C16.5011 53.6803 18.9199 52.3382 19.2421 48.4432C19.3764 46.8235 19.2904 44.4806 19.224 43.1735C20.513 43.8153 21.99 44.2616 23.768 44.4054C23.9423 44.4198 24.1174 44.4266 24.2948 44.4266C25.7355 44.4266 27.2607 43.962 28.7731 43.0761C28.7067 44.4312 28.6237 46.8311 28.7573 48.4432C29.0584 52.0857 31.1942 53.4955 31.5534 53.7084C31.5783 53.7275 31.6047 53.7465 31.6319 53.7662C30.404 54.335 27.6803 55.319 23.5461 55.319C19.4119 55.319 17.1305 54.4506 16.0045 53.9115C16.1411 53.8544 16.2656 53.7997 16.375 53.7472C16.3826 53.7434 16.3901 53.7396 16.3977 53.7358H16.3984Z" fill="#6A5349"/>
<path d="M23.3078 30.2297C23.5108 30.2768 23.7139 30.1483 23.7599 29.9437C24.1335 28.3118 24.2353 26.6412 24.1795 24.9713C24.1554 24.6382 23.6784 24.6489 23.6678 24.9804C23.661 25.7819 23.5999 26.6001 23.4995 27.3971C23.4007 28.1909 23.249 28.981 23.0309 29.7475C22.9667 29.9574 23.095 30.181 23.3078 30.2297Z" fill="#6A5349"/>
<path d="M19.585 26.1764L19.6378 26.1893C19.6529 26.1924 19.6756 26.2022 19.6786 26.1939C19.9163 26.4144 20.2446 26.073 20.0197 25.841C19.6212 25.3125 18.9299 25.1247 18.302 25.1065C17.4907 25.0875 16.6334 25.3407 16.0576 25.9467C15.9315 26.0806 15.8198 26.2311 15.7383 26.3977C15.7142 26.4509 15.6727 26.5193 15.6863 26.587C15.7021 26.6889 15.7972 26.7589 15.8983 26.7429L16.0455 26.7193C16.0561 26.7178 16.0757 26.7034 16.0915 26.6942L16.1436 26.6638C16.6598 26.3604 17.2349 26.1931 17.8273 26.1285C18.4198 26.073 19.0077 26.041 19.5843 26.1764H19.585Z" fill="#6A5349"/>
<path d="M16.1502 22.6221C16.2144 22.6221 16.28 22.61 16.3434 22.5849C18.2181 21.8427 19.575 22.2799 19.6007 22.2883C19.8754 22.3833 20.175 22.2373 20.2709 21.9605C20.3675 21.683 20.2218 21.3796 19.9471 21.2822C19.8777 21.2579 18.2264 20.6952 15.957 21.5933C15.6853 21.7005 15.5518 22.01 15.6582 22.283C15.7397 22.4928 15.9389 22.6206 16.1502 22.6206V22.6221Z" fill="#6A5349"/>
<path d="M29.8404 25.0735C29.0238 24.9146 28.0291 25.0142 27.4676 25.7032C27.2261 25.9199 27.5333 26.2826 27.7839 26.0796C27.7891 26.0864 27.8133 26.0796 27.8299 26.0773C27.8865 26.0697 27.9454 26.0598 28.002 26.0537C28.5529 25.9891 29.0932 26.0461 29.6449 26.1336C30.2683 26.2332 30.8555 26.4606 31.3717 26.8233L31.546 26.8522C31.6698 26.8742 31.7807 26.7488 31.743 26.6271C31.5143 25.7747 30.6562 25.2309 29.8412 25.0735H29.8404Z" fill="#6A5349"/>
<path d="M27.5231 21.2815C27.2491 21.3781 27.105 21.6792 27.1993 21.956C27.2936 22.2328 27.5933 22.3803 27.8687 22.2875C27.8823 22.283 29.243 21.8381 31.1267 22.5833C31.1901 22.6084 31.2558 22.6206 31.3199 22.6206C31.5305 22.6206 31.7297 22.4928 31.812 22.283C31.9184 22.0092 31.7848 21.7005 31.5131 21.5933C29.2438 20.6952 27.5917 21.2579 27.5231 21.2822V21.2815Z" fill="#6A5349"/>
<path d="M26.8376 35.1946C26.8376 35.1946 26.821 35.2007 26.8119 35.2053C26.7749 35.2243 26.7372 35.2433 26.698 35.2615C26.3123 35.4463 25.8965 35.5649 25.4769 35.6516C24.0384 35.9254 22.4664 35.8357 21.1623 35.1193L20.8038 35.1946C20.7555 35.2053 20.7087 35.2281 20.6695 35.2638C20.5502 35.3718 20.5412 35.5573 20.6491 35.6767L20.6974 35.7307C20.8974 35.9459 21.1298 36.1261 21.3766 36.282C22.1517 36.7664 23.0867 36.9915 23.9894 36.9771C24.9901 36.9664 26.0399 36.736 26.8844 36.1573C27.0308 36.0531 27.1711 35.9398 27.2979 35.8098L27.3508 35.7535C27.504 35.6113 27.513 35.3703 27.3719 35.2159C27.2308 35.0615 26.9915 35.0524 26.8383 35.1946H26.8376Z" fill="#6A5349"/>
<path d="M22.7742 31.7368L22.4723 31.6775C22.3093 31.6456 22.1501 31.7528 22.1184 31.9178C22.0867 32.0828 22.1931 32.2425 22.3569 32.2744L22.6587 32.3338C22.6784 32.3376 22.698 32.3398 22.7169 32.3398C22.858 32.3398 22.9848 32.2395 23.0127 32.0942C23.0444 31.9292 22.938 31.7695 22.7742 31.7376V31.7368Z" fill="#6A5349"/>
<path d="M24.9976 32.333C25.0172 32.3368 25.0368 32.3391 25.0557 32.3391C25.1968 32.3391 25.3236 32.2387 25.3516 32.0935C25.3833 31.9284 25.2768 31.7688 25.1131 31.7368L24.8112 31.6775C24.6482 31.6456 24.4889 31.7528 24.4572 31.9178C24.4255 32.0828 24.532 32.2425 24.6957 32.2744L24.9976 32.3338V32.333Z" fill="#6A5349"/>
<path d="M19.1738 35.2063C19.1738 33.6558 20.628 32.4938 20.6424 32.4824C20.8582 32.3136 20.8975 32.0011 20.7307 31.7836C20.5631 31.5654 20.2522 31.5258 20.0364 31.6939C19.9609 31.7524 18.1836 33.16 18.1836 35.2063C18.1836 35.4816 18.4055 35.7051 18.6787 35.7051C18.9519 35.7051 19.1738 35.4816 19.1738 35.2063Z" fill="#6A5349"/>
<path d="M27.0789 31.6768C26.8532 31.8319 26.7944 32.1422 26.9476 32.3695C26.9581 32.3847 27.9936 33.9406 27.9936 35.4348C27.9936 35.7101 28.2155 35.9337 28.4887 35.9337C28.7619 35.9337 28.9837 35.7101 28.9837 35.4348C28.9837 33.6288 27.8155 31.8813 27.7657 31.8076C27.6117 31.5802 27.3038 31.5216 27.0781 31.676L27.0789 31.6768Z" fill="#6A5349"/>
<path d="M17.1361 16.1345C17.435 16.0418 17.7399 15.8882 18.044 15.692C18.3964 15.9064 19.0749 16.2144 20.0621 16.2144C20.6884 16.2144 21.4386 16.0904 22.3088 15.7399C22.4567 15.6806 22.5971 15.6144 22.7322 15.5437C22.8205 15.6745 22.9654 15.765 23.1337 15.7764C23.2446 15.784 23.3563 15.7878 23.468 15.7878C24.8913 15.7878 26.3796 15.1855 27.7931 14.0342C28.9191 13.1172 29.6044 12.1773 29.6331 12.1377C29.8051 11.9005 29.7531 11.5674 29.5176 11.394C29.2821 11.2207 28.9516 11.2731 28.7795 11.5104C28.7569 11.5423 26.6241 14.4426 23.8695 14.7042C25.3532 13.2153 25.5706 11.0754 25.5811 10.9606C25.6083 10.6678 25.3947 10.4085 25.1042 10.3811C24.8144 10.3545 24.5563 10.569 24.5291 10.8617C24.5261 10.8914 24.2302 13.8183 21.9156 14.7513C20.4937 15.3247 19.5157 15.1718 18.9723 14.9696C20.4613 13.632 21.7262 11.6959 21.7994 11.5826C21.9586 11.3362 21.8899 11.007 21.6462 10.8458C21.4016 10.6853 21.0749 10.7545 20.9149 11.0001C20.2719 11.9917 18.2848 14.6646 16.8244 15.1171C16.712 15.1521 16.5995 15.1863 16.4871 15.2205C14.6237 15.7885 12.5121 16.4326 11.3536 19.5451C11.251 19.8203 11.3899 20.1268 11.6631 20.2302C11.7242 20.253 11.7868 20.2644 11.8487 20.2644C12.0623 20.2644 12.2638 20.1329 12.3438 19.9192C13.3189 17.2995 15.0071 16.7847 16.7942 16.2395C16.9082 16.2045 17.0229 16.1695 17.1369 16.1345H17.1361Z" fill="#6A5349"/>
</g>
<defs>
<clipPath id="clip0_20192_4598">
<rect width="48" height="63" fill="white"/>
</clipPath>
</defs>
</svg>
